<?xml version="1.0" encoding="UTF-8" standalone="no"?>
<!-- Created with Inkscape (http://www.inkscape.org/) -->

<svg
   xmlns:dc="http://purl.org/dc/elements/1.1/"
   xmlns:cc="http://creativecommons.org/ns#"
   xmlns:rdf="http://www.w3.org/1999/02/22-rdf-syntax-ns#"
   xmlns:svg="http://www.w3.org/2000/svg"
   xmlns="http://www.w3.org/2000/svg"
   xmlns:sodipodi="http://sodipodi.sourceforge.net/DTD/sodipodi-0.dtd"
   xmlns:inkscape="http://www.inkscape.org/namespaces/inkscape"
   id="svg3004"
   version="1.1"
   inkscape:version="0.48.3.1 r9886"
   width="322.49988"
   height="123.43906"
   xml:space="preserve"
   sodipodi:docname="feudor.ps"><metadata
     id="metadata3010"><rdf:RDF><cc:Work
         rdf:about=""><dc:format>image/svg+xml</dc:format><dc:type
           rdf:resource="http://purl.org/dc/dcmitype/StillImage" /><dc:title></dc:title></cc:Work></rdf:RDF></metadata><defs
     id="defs3008"><clipPath
       clipPathUnits="userSpaceOnUse"
       id="clipPath3020"><path
         d="m 566.398,7852.8 0,-144 4821.602,0 0,144 -4821.602,0 z"
         id="path3022"
         inkscape:connector-curvature="0" /></clipPath><clipPath
       clipPathUnits="userSpaceOnUse"
       id="clipPath3034"><path
         d="m 566.398,708 0,-141.598 4821.602,0 0,141.598 -4821.602,0 z"
         id="path3036"
         inkscape:connector-curvature="0" /></clipPath></defs><sodipodi:namedview
     pagecolor="#ffffff"
     bordercolor="#666666"
     borderopacity="1"
     objecttolerance="10"
     gridtolerance="10"
     guidetolerance="10"
     inkscape:pageopacity="0"
     inkscape:pageshadow="2"
     inkscape:window-width="1920"
     inkscape:window-height="1021"
     id="namedview3006"
     showgrid="false"
     fit-margin-top="0"
     fit-margin-left="0"
     fit-margin-right="0"
     fit-margin-bottom="0"
     showborder="false"
     inkscape:showpageshadow="false"
     inkscape:zoom="1.2684253"
     inkscape:cx="103.90263"
     inkscape:cy="-146.38194"
     inkscape:window-x="0"
     inkscape:window-y="27"
     inkscape:window-maximized="1"
     inkscape:current-layer="g3012" /><g
     id="g3012"
     inkscape:groupmode="layer"
     inkscape:label="ink_ext_XXXXXX"
     transform="matrix(1.25,0,0,-1.25,-69.600125,955.03906)"><path
       inkscape:connector-curvature="0"
       id="path3044"
       style="fill:none;stroke:#000000;stroke-width:0.24000001;stroke-linecap:butt;stroke-linejoin:miter;stroke-miterlimit:10;stroke-opacity:1;stroke-dasharray:none"
       d="m 56.6398,763.92 255.8402,0" /><path
       inkscape:connector-curvature="0"
       id="path3046"
       style="fill:none;stroke:#000000;stroke-width:0.24000001;stroke-linecap:butt;stroke-linejoin:miter;stroke-miterlimit:10;stroke-opacity:1;stroke-dasharray:none"
       d="m 56.6398,739.2 192.0002,0" /><path
       inkscape:connector-curvature="0"
       id="path3048"
       style="fill:#000000;fill-opacity:1;fill-rule:evenodd;stroke:none"
       d="m 312.48,739.2 -0.96,-0.96 -61.92,0 -0.96,0.96 -0.96,1.2 64.8,0 0,-1.2" /><path
       inkscape:connector-curvature="0"
       id="path3050"
       style="fill:#000000;fill-opacity:1;fill-rule:evenodd;stroke:none"
       d="m 248.64,726.72 0.96,-0.96 -192,0 -0.9602,0.96 0,0.96 190.8002,0 1.2,-0.96" /><path
       inkscape:connector-curvature="0"
       id="path3052"
       style="fill:#000000;fill-opacity:1;fill-rule:evenodd;stroke:none"
       d="m 312.48,726.72 -0.72,-1.2 -64.08,0 0.96,1.2 0.96,0.96 61.92,0 0.96,-0.96" /><path
       inkscape:connector-curvature="0"
       id="path3054"
       style="fill:none;stroke:#000000;stroke-width:0.24000001;stroke-linecap:butt;stroke-linejoin:miter;stroke-miterlimit:10;stroke-opacity:1;stroke-dasharray:none"
       d="m 248.64,678.24 63.84,0" /><path
       inkscape:connector-curvature="0"
       id="path3056"
       style="fill:#000000;fill-opacity:1;fill-rule:evenodd;stroke:none"
       d="m 312.48,666.24 0.96,-0.96 -257.7599,0 0.9597,0.96 0.9602,0.96 254.16,0 0.72,-0.96" /><path
       inkscape:connector-curvature="0"
       id="path3058"
       style="fill:none;stroke:#000000;stroke-width:0.24000001;stroke-linecap:butt;stroke-linejoin:miter;stroke-miterlimit:10;stroke-opacity:1;stroke-dasharray:none"
       d="m 56.6398,726.72 0,37.2" /><path
       inkscape:connector-curvature="0"
       id="path3060"
       style="fill:#000000;fill-opacity:1;fill-rule:evenodd;stroke:none"
       d="m 56.6398,726.72 0.9602,-0.96 0,-58.56 -0.9602,-0.96 -0.9597,-0.96 0,62.4 0.9597,-0.96" /><path
       inkscape:connector-curvature="0"
       id="path3062"
       style="fill:none;stroke:#000000;stroke-width:0.24000001;stroke-linecap:butt;stroke-linejoin:miter;stroke-miterlimit:10;stroke-opacity:1;stroke-dasharray:none"
       d="m 120.72,726.72 0,12.48" /><path
       inkscape:connector-curvature="0"
       id="path3064"
       style="fill:none;stroke:#000000;stroke-width:0.24000001;stroke-linecap:butt;stroke-linejoin:miter;stroke-miterlimit:10;stroke-opacity:1;stroke-dasharray:none"
       d="m 184.56,726.72 0,12.48" /><path
       inkscape:connector-curvature="0"
       id="path3066"
       style="fill:#000000;fill-opacity:1;fill-rule:evenodd;stroke:none"
       d="m 248.64,739.2 0.96,-0.96 0,-10.56 -0.96,-0.96 -0.96,0.96 0,11.52 0.96,0" /><path
       inkscape:connector-curvature="0"
       id="path3068"
       style="fill:none;stroke:#000000;stroke-width:0.24000001;stroke-linecap:butt;stroke-linejoin:miter;stroke-miterlimit:10;stroke-opacity:1;stroke-dasharray:none"
       d="m 248.64,666.24 0,12" /><path
       inkscape:connector-curvature="0"
       id="path3070"
       style="fill:none;stroke:#000000;stroke-width:0.24000001;stroke-linecap:butt;stroke-linejoin:miter;stroke-miterlimit:10;stroke-opacity:1;stroke-dasharray:none"
       d="m 312.48,739.2 0,24.72" /><path
       inkscape:connector-curvature="0"
       id="path3072"
       style="fill:#000000;fill-opacity:1;fill-rule:evenodd;stroke:none"
       d="m 312.48,739.2 1.2,1.2 0,-14.88 -1.2,1.2 -0.96,0.96 0,10.56 0.96,0.96" /><path
       inkscape:connector-curvature="0"
       id="path3074"
       style="fill:#000000;fill-opacity:1;fill-rule:evenodd;stroke:none"
       d="m 312.48,726.72 0.96,0.96 0,-62.4 -0.96,0.96 -0.72,0.96 0,58.32 0.72,1.2" /><g
       id="g3076"><text
         id="text3078"
         transform="matrix(1,0,0,-1,57.6,729.84)"><tspan
           id="tspan3080"
           sodipodi:role="line"
           y="0"
           x="0 3.3599176 8.8783808 13.918381 19.436838 22.318533 25.200222 30.718679 128.15881 133.67728 136.07558 138.95728 144.47574 147.83566 153.35414 158.8726 161.75432 164.15262 167.27432 191.9942 197.51268 206.1526 211.67107 214.06938 219.58784 224.62785 230.14635 238.78624 244.30472 249.82318"
           style="font-size:10.07999992px;font-variant:normal;font-weight:normal;writing-mode:lr-tb;fill:#000000;fill-opacity:1;fill-rule:nonzero;stroke:none;font-family:Arial Black;-inkscape-font-specification:ArialMTFID6HGSet1">recettesalternatifsemplacement</tspan><tspan
           id="tspan3082"
           sodipodi:role="line"
           y="24.239799"
           x="0 5.5184631 8.4001522 11.276922 18.001925 23.520388 29.038845 37.438766 42.95723 48.475689 51.352467 56.875843 59.752617 66.477615 68.875923 71.274231 76.792694 82.311157 85.192848 90.711304 96.229767 99.111458 101.99316 110.63307 116.15154 119.51146 125.02991 130.54839 136.06685 141.5853 144.94522 147.82693 153.3454 158.86388 161.74557 164.62729 170.14575 172.54407 178.06253 183.58102 186.46271 189.34442 192.22612 197.7446 203.26306 208.78154 214.30003 216.69833 222.2168 225.57672"
           style="font-size:10.07999992px;font-variant:normal;font-weight:normal;writing-mode:lr-tb;fill:#000000;fill-opacity:1;fill-rule:nonzero;stroke:none;font-family:Arial Black;-inkscape-font-specification:ArialMTFID6HGSet1">1. A13M11 – Allée 13, marqueur 11 [plan] [annuler]</tspan><tspan
           id="tspan3084"
           sodipodi:role="line"
           y="60.479599"
           x="192 197.51846 203.03694 208.55544 214.07544 219.5939 225.11238"
           style="font-size:10.07999992px;font-variant:normal;font-weight:normal;writing-mode:lr-tb;fill:#000000;fill-opacity:1;fill-rule:nonzero;stroke:none;font-family:Arial Black;-inkscape-font-specification:ArialMTFID6HGSet1">nouveau</tspan><tspan
           id="tspan3086"
           sodipodi:role="line"
           y="-24.240299"
           x="12.72 18.238462 21.598381 24.48007 26.878378 31.918377 34.316685 39.835148 42.716839 47.516834 52.556835 58.075291 63.59375 69.112221 74.630676 77.512367 80.394051 83.275749 88.794205 94.312675 96.710983 99.109291 104.62775 113.26767 118.78613 121.66782 124.54951 130.06798 134.86798 137.74966 143.99127 149.50975 155.02821 160.54669 166.06516 169.42509 172.30679 178.5484 185.26846 192.46678 195.34848 202.5468 208.06526 213.58374 219.1022 224.6207 230.13918 235.65764"
           style="font-size:10.07999992px;font-variant:normal;font-weight:normal;writing-mode:lr-tb;fill:#000000;fill-opacity:1;fill-rule:nonzero;stroke:none;font-family:Arial Black;-inkscape-font-specification:ArialMTFID6HGSet1">article scanné : «allumettes Feudor FSC C037294»</tspan><tspan
           id="tspan3088"
           sodipodi:role="line"
           y="0.23980001"
           x="64.0802 66.478508 71.996964 75.11866 80.637123"
           style="font-size:10.07999992px;font-variant:normal;font-weight:normal;writing-mode:lr-tb;fill:#000000;fill-opacity:1;fill-rule:nonzero;stroke:none;font-family:Arial Black;-inkscape-font-specification:ArialMTFID6HGSet1">infos</tspan></text>
</g></g></svg>