<?xml version="1.0" encoding="UTF-8" standalone="no"?>
<!-- Created with Inkscape (http://www.inkscape.org/) -->

<svg
   xmlns:dc="http://purl.org/dc/elements/1.1/"
   xmlns:cc="http://creativecommons.org/ns#"
   xmlns:rdf="http://www.w3.org/1999/02/22-rdf-syntax-ns#"
   xmlns:svg="http://www.w3.org/2000/svg"
   xmlns="http://www.w3.org/2000/svg"
   xmlns:sodipodi="http://sodipodi.sourceforge.net/DTD/sodipodi-0.dtd"
   xmlns:inkscape="http://www.inkscape.org/namespaces/inkscape"
   width="744.09448819"
   height="1052.3622047"
   id="svg5390"
   version="1.1"
   inkscape:version="0.48.5 r10040"
   sodipodi:docname="Liste_connectée_apres_login.svg">
  <defs
     id="defs5392">
    <inkscape:perspective
       sodipodi:type="inkscape:persp3d"
       inkscape:vp_x="0 : 526.18109 : 1"
       inkscape:vp_y="0 : 1000 : 0"
       inkscape:vp_z="744.09448 : 526.18109 : 1"
       inkscape:persp3d-origin="372.04724 : 350.78739 : 1"
       id="perspective5842" />
  </defs>
  <sodipodi:namedview
     id="base"
     pagecolor="#ffffff"
     bordercolor="#ffffff"
     borderopacity="0.0"
     inkscape:pageopacity="0.0"
     inkscape:pageshadow="0"
     inkscape:zoom="1.28"
     inkscape:cx="-702.16974"
     inkscape:cy="17092.038"
     inkscape:document-units="px"
     inkscape:current-layer="layer1"
     showgrid="false"
     inkscape:window-width="1106"
     inkscape:window-height="671"
     inkscape:window-x="551"
     inkscape:window-y="286"
     inkscape:window-maximized="0"
     inkscape:snap-grids="false" />
  <metadata
     id="metadata5395">
    <rdf:RDF>
      <cc:Work
         rdf:about="">
        <dc:format>image/svg+xml</dc:format>
        <dc:type
           rdf:resource="http://purl.org/dc/dcmitype/StillImage" />
        <dc:title></dc:title>
      </cc:Work>
    </rdf:RDF>
  </metadata>
  <g
     inkscape:label="Layer 1"
     inkscape:groupmode="layer"
     id="layer1">
    <rect
       style="fill:#000000;fill-opacity:0;fill-rule:evenodd;stroke:#000000;stroke-width:1px;stroke-linecap:butt;stroke-linejoin:miter;stroke-opacity:1"
       id="rect2985"
       width="632.85712"
       height="222.85715"
       x="-975.96429"
       y="-16172.777" />
    <text
       xml:space="preserve"
       style="font-size:16px;font-style:normal;font-weight:normal;line-height:125%;letter-spacing:0px;word-spacing:0px;fill:#000000;fill-opacity:1;stroke:none;font-family:Sans"
       x="-1172.0898"
       y="-13395.305"
       id="text3003"
       sodipodi:linespacing="125%"
       transform="scale(0.82795296,1.2077981)"><tspan
         sodipodi:role="line"
         id="tspan3005"
         x="-1172.0898"
         y="-13395.305">Future Market.fr</tspan></text>
    <rect
       style="fill:#000000;fill-opacity:0"
       id="rect5223"
       width="240.71429"
       height="53.57143"
       x="-977.39288"
       y="-16225.635" />
    <text
       xml:space="preserve"
       style="font-size:12px;font-style:normal;font-weight:normal;line-height:125%;letter-spacing:0px;word-spacing:0px;fill:#000000;fill-opacity:1;stroke:none;font-family:Sans"
       x="-971.01776"
       y="-16108.211"
       id="text5225"
       sodipodi:linespacing="125%"><tspan
         sodipodi:role="line"
         id="tspan5227"
         x="-971.01776"
         y="-16108.211">Catégorie patisserie</tspan></text>
    <text
       xml:space="preserve"
       style="font-size:10px;font-style:normal;font-variant:normal;font-weight:normal;font-stretch:normal;text-align:start;line-height:125%;letter-spacing:0px;word-spacing:0px;writing-mode:lr-tb;text-anchor:start;fill:#ff8080;fill-opacity:1;stroke:none;font-family:Sans;-inkscape-font-specification:Sans"
       x="-957.77545"
       y="-16092.849"
       id="text5225-1"
       sodipodi:linespacing="125%"><tspan
         sodipodi:role="line"
         id="tspan5227-7"
         x="-957.77545"
         y="-16092.849">Farine</tspan></text>
    <text
       xml:space="preserve"
       style="font-size:10px;font-style:normal;font-variant:normal;font-weight:normal;font-stretch:normal;text-align:start;line-height:125%;letter-spacing:0px;word-spacing:0px;writing-mode:lr-tb;text-anchor:start;fill:#d35f5f;fill-opacity:1;stroke:none;font-family:Sans;-inkscape-font-specification:Sans"
       x="-959.75879"
       y="-16060.603"
       id="text5225-4"
       sodipodi:linespacing="125%"><tspan
         sodipodi:role="line"
         id="tspan5227-0"
         x="-959.75879"
         y="-16060.603">Maizena</tspan><tspan
         sodipodi:role="line"
         x="-959.75879"
         y="-16048.103"
         id="tspan5580" /></text>
    <text
       xml:space="preserve"
       style="font-size:10px;font-style:normal;font-variant:normal;font-weight:normal;font-stretch:normal;text-align:start;line-height:125%;letter-spacing:0px;word-spacing:0px;writing-mode:lr-tb;text-anchor:start;fill:#000000;fill-opacity:1;stroke:none;font-family:Sans;-inkscape-font-specification:Sans"
       x="-960.40643"
       y="-16077.64"
       id="text5225-8"
       sodipodi:linespacing="125%"><tspan
         sodipodi:role="line"
         id="tspan5227-8"
         x="-960.40643"
         y="-16077.64">Vergeoise</tspan></text>
    <text
       xml:space="preserve"
       style="font-size:10px;font-style:normal;font-variant:normal;font-weight:normal;font-stretch:normal;text-align:start;line-height:125%;letter-spacing:0px;word-spacing:0px;writing-mode:lr-tb;text-anchor:start;fill:#000000;fill-opacity:1;stroke:none;font-family:Sans;-inkscape-font-specification:Sans"
       x="-958.7973"
       y="-16026.206"
       id="text5225-8-2"
       sodipodi:linespacing="125%"><tspan
         sodipodi:role="line"
         id="tspan5227-8-4"
         x="-958.7973"
         y="-16026.206">Bonbons</tspan></text>
    <text
       xml:space="preserve"
       style="font-size:12px;font-style:normal;font-weight:normal;line-height:125%;letter-spacing:0px;word-spacing:0px;fill:#000000;fill-opacity:1;stroke:none;font-family:Sans"
       x="-784.77234"
       y="-15955.18"
       id="text5225-8-5"
       sodipodi:linespacing="125%"><tspan
         sodipodi:role="line"
         id="tspan5227-8-5"
         x="-784.77234"
         y="-15955.18"
         style="font-size:8px">Prix au kilo</tspan></text>
    <text
       xml:space="preserve"
       style="font-size:12px;font-style:normal;font-weight:normal;line-height:125%;letter-spacing:0px;word-spacing:0px;fill:#000000;fill-opacity:1;stroke:none;font-family:Sans"
       x="-684.39844"
       y="-15955.234"
       id="text5225-8-1"
       sodipodi:linespacing="125%"><tspan
         sodipodi:role="line"
         id="tspan5227-8-7"
         x="-684.39844"
         y="-15955.234"
         style="font-size:8px">Quantité</tspan></text>
    <text
       xml:space="preserve"
       style="font-size:12px;font-style:normal;font-weight:normal;line-height:125%;letter-spacing:0px;word-spacing:0px;fill:#000000;fill-opacity:1;stroke:none;font-family:Sans"
       x="-418.39285"
       y="-16188.349"
       id="text5316"
       sodipodi:linespacing="125%"><tspan
         sodipodi:role="line"
         id="tspan5318"
         x="-418.39285"
         y="-16188.349">TsongTsong</tspan><tspan
         sodipodi:role="line"
         x="-418.39285"
         y="-16173.349"
         id="tspan5320" /></text>
    <text
       xml:space="preserve"
       style="font-size:12px;font-style:normal;font-weight:normal;line-height:125%;letter-spacing:0px;word-spacing:0px;fill:#000000;fill-opacity:1;stroke:none;font-family:Sans"
       x="-433.10715"
       y="-16176.063"
       id="text5322"
       sodipodi:linespacing="125%"><tspan
         sodipodi:role="line"
         x="-433.10715"
         y="-16176.063"
         id="tspan5558">se déconnecter</tspan><tspan
         sodipodi:role="line"
         x="-433.10715"
         y="-16161.063"
         id="tspan5326" /></text>
    <path
       style="fill:#000000;fill-opacity:0"
       id="path5328"
       d="m -567.67508,-16200.367 c 1.68192,-1.401 3.29512,-2.881 4.97596,-4.286 2.05613,-1.531 4.19389,-2.943 6.3743,-4.289 1.88854,-1.18 3.55641,-2.672 5.21156,-4.152 1.57299,-1.443 3.03859,-2.999 4.60586,-4.448 3.24991,-2.782 7.45595,-4.589 11.04539,-6.59 2.75014,-1.533 -10.91051,6.29 -8.19388,4.699 9.4492,-5.536 6.15717,-4.355 10.43672,-5.816 1.68527,-0.68 3.24572,-1.62 4.89062,-2.387 1.56273,-0.636 3.12474,-1.245 4.67114,-1.912 1.19151,-0.782 2.55874,-1.056 3.94961,-1.214 1.28914,-0.554 2.6712,-0.646 4.05359,-0.71 1.71125,-0.02 3.44166,-0.232 5.13864,0.03 0.80263,0.427 1.87391,0.496 2.58715,1.096 0.0702,0.06 0.84027,0.967 0.94021,1.084 0.12812,0.19 0.25624,0.379 0.38436,0.569 0,0 -9.05231,5.319 -9.05231,5.319 l 0,0 c -0.10729,-0.155 -0.21457,-0.31 -0.32185,-0.465 -0.80939,-0.912 -1.84591,-1.345 -3.051,-1.554 -1.66724,-0.08 -3.34116,-0 -5.0052,0.109 -1.38018,0.162 -2.70214,0.501 -4.05291,0.808 -1.34435,0.274 -2.5732,0.791 -3.79018,1.421 -1.51331,0.647 -3.08791,1.152 -4.56382,1.891 -1.63277,0.833 -3.25629,1.69 -4.96256,2.367 -0.24858,0.125 -0.98563,0.515 -0.74574,0.374 2.73126,-1.601 10.98668,-6.299 8.22123,-4.758 -3.24365,1.809 -6.39362,3.784 -9.65599,5.558 -2.75885,1.501 5.43709,-3.145 8.14492,-4.736 0.23558,-0.138 -0.49408,0.236 -0.72727,0.378 -0.25211,0.154 -0.48362,0.34 -0.72544,0.509 -1.61712,1.422 -3.15029,2.928 -4.64142,4.482 -1.72038,1.456 -3.32321,3.058 -5.1916,4.333 -2.1948,1.315 -4.32035,2.721 -6.43621,4.155 -1.63527,1.328 -3.28223,2.661 -4.69448,4.225 0,0 -9.8194,3.905 -9.8194,3.905 z"
       inkscape:connector-curvature="0" />
    <path
       style="fill:none;stroke:#000000;stroke-width:1px;stroke-linecap:butt;stroke-linejoin:miter;stroke-opacity:1"
       d="m -975.78571,-16172.956 0,-25.714 631.78571,0 0,0 0.89286,0 0,25.714"
       id="path5342"
       inkscape:connector-curvature="0" />
    <text
       xml:space="preserve"
       style="font-size:12px;font-style:normal;font-weight:normal;line-height:125%;letter-spacing:0px;word-spacing:0px;fill:#000000;fill-opacity:1;stroke:none;font-family:Sans"
       x="-779.83777"
       y="-16160.133"
       id="text5562"
       sodipodi:linespacing="125%"><tspan
         sodipodi:role="line"
         id="tspan5564"
         x="-779.83777"
         y="-16160.133">Recettes</tspan></text>
    <text
       xml:space="preserve"
       style="font-size:12px;font-style:normal;font-weight:normal;line-height:125%;letter-spacing:0px;word-spacing:0px;fill:#000000;fill-opacity:1;stroke:none;font-family:Sans"
       x="-968.25153"
       y="-16161.122"
       id="text5566"
       sodipodi:linespacing="125%"><tspan
         sodipodi:role="line"
         id="tspan5568"
         x="-968.25153"
         y="-16161.122">Liste de courses</tspan></text>
    <text
       xml:space="preserve"
       style="font-size:12px;font-style:normal;font-weight:normal;line-height:125%;letter-spacing:0px;word-spacing:0px;fill:#000000;fill-opacity:1;stroke:none;font-family:Sans"
       x="-843.21594"
       y="-16160.152"
       id="text5570"
       sodipodi:linespacing="125%"><tspan
         sodipodi:role="line"
         id="tspan5572"
         x="-843.21594"
         y="-16160.152">Budget</tspan></text>
    <path
       style="fill:none;stroke:#000000;stroke-width:1px;stroke-linecap:butt;stroke-linejoin:miter;stroke-opacity:1"
       d="m -976.31244,-16155.586 632.86057,0"
       id="path5574"
       inkscape:connector-curvature="0" />
    <path
       style="fill:none;stroke:#000000;stroke-width:1px;stroke-linecap:butt;stroke-linejoin:miter;stroke-opacity:1"
       d="m -856.10428,-16172.759 0,16.667"
       id="path5576"
       inkscape:connector-curvature="0" />
    <path
       style="fill:none;stroke:#000000;stroke-width:1px;stroke-linecap:butt;stroke-linejoin:miter;stroke-opacity:1"
       d="m -790.44437,-16172.759 0,16.667"
       id="path5578"
       inkscape:connector-curvature="0" />
    <text
       xml:space="preserve"
       style="font-size:12px;font-style:normal;font-weight:normal;line-height:125%;letter-spacing:0px;word-spacing:0px;fill:#000000;fill-opacity:1;stroke:none;font-family:Sans"
       x="-967.44629"
       y="-16045.169"
       id="text5225-9"
       sodipodi:linespacing="125%"><tspan
         sodipodi:role="line"
         id="tspan5227-4"
         x="-967.44629"
         y="-16045.169">Categorie confiserie et gateaux</tspan></text>
    <path
       style="fill:#000000;stroke:#000000;stroke-width:0.61470509px;stroke-linecap:butt;stroke-linejoin:miter;stroke-opacity:1"
       d="m -970.90864,-16100.485 5.18353,0 0,4.426 -4.26879,0 0,-4.426 z"
       id="path5582"
       inkscape:connector-curvature="0" />
    <path
       style="fill:none;stroke:#000000;stroke-width:0.61470509px;stroke-linecap:butt;stroke-linejoin:miter;stroke-opacity:1"
       d="m -971.28745,-16083.817 5.18353,0 0,4.426 -4.26879,0 0,-4.426 z"
       id="path5582-1"
       inkscape:connector-curvature="0" />
    <path
       style="fill:none;stroke:#000000;stroke-width:0.61470509px;stroke-linecap:butt;stroke-linejoin:miter;stroke-opacity:1"
       d="m -970.78237,-16067.149 5.18353,0 0,4.426 -4.26879,0 0,-4.426 z"
       id="path5582-15"
       inkscape:connector-curvature="0" />
    <path
       style="fill:none;stroke:#000000;stroke-width:0.61470509px;stroke-linecap:butt;stroke-linejoin:miter;stroke-opacity:1"
       d="m -971.28744,-16032.552 5.18353,0 0,4.426 -4.26879,0 0,-4.426 z"
       id="path5582-2"
       inkscape:connector-curvature="0" />
    <path
       style="fill:none;stroke:#000000;stroke-width:0.61470509px;stroke-linecap:butt;stroke-linejoin:miter;stroke-opacity:1"
       d="m -971.53999,-16013.612 5.18353,0 0,4.426 -4.26879,0 0,-4.426 z"
       id="path5582-7"
       inkscape:connector-curvature="0" />
    <text
       xml:space="preserve"
       style="font-size:10px;font-style:normal;font-variant:normal;font-weight:normal;font-stretch:normal;text-align:start;line-height:125%;letter-spacing:0px;word-spacing:0px;writing-mode:lr-tb;text-anchor:start;fill:#ff2a2a;fill-opacity:1;stroke:none;font-family:Sans;-inkscape-font-specification:Sans"
       x="-960.6145"
       y="-16009.126"
       id="text5623"
       sodipodi:linespacing="125%"><tspan
         sodipodi:role="line"
         id="tspan5625"
         x="-960.6145"
         y="-16009.126">Gateaux secs</tspan></text>
    <text
       xml:space="preserve"
       style="font-size:10px;font-style:normal;font-variant:normal;font-weight:normal;font-stretch:normal;text-align:start;line-height:125%;letter-spacing:0px;word-spacing:0px;writing-mode:lr-tb;text-anchor:start;fill:#000000;fill-opacity:1;stroke:none;font-family:Sans;-inkscape-font-specification:Sans"
       x="-960.51819"
       y="-15991.715"
       id="text5225-4-6"
       sodipodi:linespacing="125%"><tspan
         sodipodi:role="line"
         id="tspan5227-0-1"
         x="-960.51819"
         y="-15991.715">Maizena</tspan><tspan
         sodipodi:role="line"
         x="-960.51819"
         y="-15979.215"
         id="tspan5580-4" /></text>
    <path
       style="fill:none;stroke:#000000;stroke-width:0.61470509px;stroke-linecap:butt;stroke-linejoin:miter;stroke-opacity:1"
       d="m -971.54176,-15998.263 5.18353,0 0,4.426 -4.26879,0 0,-4.426 z"
       id="path5582-15-2"
       inkscape:connector-curvature="0" />
    <text
       xml:space="preserve"
       style="font-size:10px;font-style:normal;font-variant:normal;font-weight:normal;font-stretch:normal;text-align:start;line-height:125%;letter-spacing:0px;word-spacing:0px;writing-mode:lr-tb;text-anchor:start;fill:#000000;fill-opacity:1;stroke:none;font-family:Sans;-inkscape-font-specification:Sans"
       x="-963.04352"
       y="-15976.058"
       id="text5225-4-3"
       sodipodi:linespacing="125%"><tspan
         sodipodi:role="line"
         id="tspan5227-0-2"
         x="-963.04352"
         y="-15976.058">Maizena</tspan><tspan
         sodipodi:role="line"
         x="-963.04352"
         y="-15963.558"
         id="tspan5580-2" /></text>
    <path
       style="fill:none;stroke:#000000;stroke-width:0.61470509px;stroke-linecap:butt;stroke-linejoin:miter;stroke-opacity:1"
       d="m -974.06715,-15982.605 5.18353,0 0,4.426 -4.26879,0 0,-4.426 z"
       id="path5582-15-1"
       inkscape:connector-curvature="0" />
    <path
       style="fill:none;stroke:#000000;stroke-width:1px;stroke-linecap:butt;stroke-linejoin:miter;stroke-opacity:1"
       d="m -789.93929,-16156.092 0,206.577"
       id="path5782"
       inkscape:connector-curvature="0" />
    <text
       xml:space="preserve"
       style="font-size:8px;font-style:normal;font-weight:normal;line-height:125%;letter-spacing:0px;word-spacing:0px;fill:#000000;fill-opacity:1;stroke:none;font-family:Sans"
       x="-401.03058"
       y="-15954.565"
       id="text5784"
       sodipodi:linespacing="125%"><tspan
         sodipodi:role="line"
         id="tspan5786"
         x="-401.03058"
         y="-15954.565">Panier: NNN €</tspan></text>
    <path
       sodipodi:type="star"
       style="fill:#000000;fill-opacity:0"
       id="path5788"
       sodipodi:sides="5"
       sodipodi:cx="-761.65502"
       sodipodi:cy="-16111.645"
       sodipodi:r1="123.27586"
       sodipodi:r2="61.637932"
       sodipodi:arg1="0.58118453"
       sodipodi:arg2="1.2095031"
       inkscape:flatsided="false"
       inkscape:rounded="0"
       inkscape:randomized="0"
       d="m -658.61947,-16043.964 -81.24752,-10.022 -54.31602,61.248 -15.57575,-80.367 -75.03522,-32.731 71.62117,-39.649 7.9417,-81.477 59.84007,55.864 79.94346,-17.625 -34.63797,74.174 z"
       inkscape:transform-center-x="10.051697"
       inkscape:transform-center-y="1.7948739" />
    <path
       sodipodi:type="star"
       style="fill:#000000;fill-opacity:0"
       id="path5790"
       sodipodi:sides="5"
       sodipodi:cx="-706.60171"
       sodipodi:cy="-16080.33"
       sodipodi:r1="80.307127"
       sodipodi:r2="40.153564"
       sodipodi:arg1="0.55659932"
       sodipodi:arg2="1.1849178"
       inkscape:flatsided="false"
       inkscape:rounded="0"
       inkscape:randomized="0"
       d="m -638.41639,-16037.904 -53.07257,-5.225 -34.39222,40.757 -11.43067,-52.089 -49.39052,-20.114 46.00804,-26.968 3.8672,-53.189 39.86519,35.423 51.78058,-12.759 -21.36998,48.861 z"
       inkscape:transform-center-x="5.9576917"
       inkscape:transform-center-y="1.7782778" />
    <path
       sodipodi:type="star"
       style="fill:#000000;fill-opacity:0"
       id="path5794"
       sodipodi:sides="5"
       sodipodi:cx="-563.66512"
       sodipodi:cy="-16077.3"
       sodipodi:r1="14.647212"
       sodipodi:r2="7.3236059"
       sodipodi:arg1="0.76101275"
       sodipodi:arg2="1.3893313"
       inkscape:flatsided="false"
       inkscape:rounded="0"
       inkscape:randomized="0"
       d="m -553.0585,-16067.198 -9.2849,-2.898 -7.6512,6.005 -0.11287,-9.726 -8.07608,-5.421 9.21515,-3.113 2.65991,-9.356 5.80814,7.803 9.71999,-0.362 -5.62552,7.935 z"
       inkscape:transform-center-x="0.81685347"
       inkscape:transform-center-y="-0.59884456" />
    <path
       sodipodi:type="star"
       style="fill:#000000;fill-opacity:0"
       id="path5796"
       sodipodi:sides="5"
       sodipodi:cx="-549.01791"
       sodipodi:cy="-16038.409"
       sodipodi:r1="42.021617"
       sodipodi:r2="21.010808"
       sodipodi:arg1="2.9111902"
       sodipodi:arg2="3.5395087"
       inkscape:flatsided="false"
       inkscape:rounded="0"
       inkscape:randomized="0"
       d="m -589.92906,-16028.813 21.54193,-17.738 -2.39977,-27.802 23.52676,15.007 25.69944,-10.874 -7.00159,27.013 18.2829,21.081 -27.85398,1.689 -14.4,23.902 -10.21311,-25.969 z"
       inkscape:transform-center-x="1.0863442"
       inkscape:transform-center-y="2.9654659" />
    <path
       sodipodi:type="star"
       style="fill:#000000;fill-opacity:0"
       id="path5800"
       sodipodi:sides="5"
       sodipodi:cx="-719.73369"
       sodipodi:cy="-16097.503"
       sodipodi:r1="99.038747"
       sodipodi:r2="49.519374"
       sodipodi:arg1="0.58941703"
       sodipodi:arg2="1.2177356"
       inkscape:flatsided="false"
       inkscape:rounded="0"
       inkscape:randomized="0"
       d="m -637.40627,-16042.45 -65.20505,-8.588 -44.04062,48.846 -11.98146,-64.668 -60.06412,-26.791 57.8001,-31.379 6.91895,-65.403 47.70389,45.275 64.34027,-13.631 -28.31748,59.36 z"
       inkscape:transform-center-x="8.3181927"
       inkscape:transform-center-y="1.1902668" />
    <path
       sodipodi:type="star"
       style="fill:#000000;fill-opacity:0"
       id="path5820"
       sodipodi:sides="5"
       sodipodi:cx="-530.33009"
       sodipodi:cy="-16069.218"
       sodipodi:r1="152.58654"
       sodipodi:r2="123.44511"
       sodipodi:arg1="-3.1151088"
       sodipodi:arg2="-2.4867903"
       inkscape:flatsided="true"
       inkscape:rounded="0.68894362"
       inkscape:randomized="0"
       d="m -682.8631,-16073.258 c 3.27249,-123.537 -9.26114,-107.213 109.24057,-142.276 118.50171,-35.063 99.10368,-41.938 169.06927,59.928 69.96559,101.867 70.51058,81.294 -4.75002,179.314 -75.26059,98.02 -55.52575,92.18 -172.00494,50.893 -116.47919,-41.287 -104.82738,-24.323 -101.55488,-147.859 z"
       inkscape:transform-center-x="-11.706415"
       inkscape:transform-center-y="1.1545754" />
    <path
       sodipodi:type="star"
       style="fill:#000000;fill-opacity:0"
       id="path5822"
       sodipodi:sides="5"
       sodipodi:cx="-676.29713"
       sodipodi:cy="-16060.632"
       sodipodi:r1="92.496553"
       sodipodi:r2="74.831283"
       sodipodi:arg1="0.25954717"
       sodipodi:arg2="0.8878657"
       inkscape:flatsided="true"
       inkscape:rounded="0.68894362"
       inkscape:randomized="0"
       d="m -586.89862,-16036.893 c -19.22592,72.404 -9.54814,64.531 -84.34958,68.62 -74.80144,4.089 -64.32311,10.86 -91.32701,-59.017 -27.00391,-69.876 -30.20573,-57.819 27.90638,-105.094 58.1121,-47.275 45.65494,-46.594 108.5741,-5.935 62.91917,40.659 58.42203,29.022 39.19611,101.426 z"
       inkscape:transform-center-x="1.4411815"
       inkscape:transform-center-y="-6.5130822" />
    <rect
       style="fill:#800000;fill-opacity:0;stroke:#800000"
       id="rect5916"
       width="147.65625"
       height="100.78125"
       x="-757.8125"
       y="-16087.481" />
    <path
       style="fill:none;stroke:#000000;stroke-width:1px;stroke-linecap:butt;stroke-linejoin:miter;stroke-opacity:1"
       d="m -975.78125,-16128.107 185.15625,0"
       id="path3047"
       inkscape:connector-curvature="0" />
    <flowRoot
       xml:space="preserve"
       id="flowRoot3049"
       style="fill:black;stroke:none;stroke-opacity:1;stroke-width:1px;stroke-linejoin:miter;stroke-linecap:butt;fill-opacity:1;font-family:Sans;font-style:normal;font-weight:normal;font-size:12px;line-height:125%;letter-spacing:0px;word-spacing:0px"><flowRegion
         id="flowRegion3051"><rect
           id="rect3053"
           width="44.53125"
           height="15.625"
           x="-969.53125"
           y="-16151.544" /></flowRegion><flowPara
         id="flowPara3055"></flowPara></flowRoot>    <text
       xml:space="preserve"
       style="font-size:12px;font-style:normal;font-weight:normal;line-height:125%;letter-spacing:0px;word-spacing:0px;fill:#000000;fill-opacity:1;stroke:none;font-family:Sans"
       x="-970.15625"
       y="-16144.95"
       id="text3057"
       sodipodi:linespacing="125%"><tspan
         sodipodi:role="line"
         id="tspan3059"
         x="-970.15625"
         y="-16144.95">Budget maximum souhaité:</tspan></text>
    <path
       style="fill:none;stroke:#000000;stroke-width:1px;stroke-linecap:butt;stroke-linejoin:miter;stroke-opacity:1"
       d="m -958.59375,-16138.263 141.40625,0 0,6.25 -140.625,0 z"
       id="path3061"
       inkscape:connector-curvature="0" />
    <path
       style="fill:#008080;stroke:#000000;stroke-width:1px;stroke-linecap:butt;stroke-linejoin:miter;stroke-opacity:1"
       d="m -910.9375,-16139.044 0,7.031"
       id="path3063"
       inkscape:connector-curvature="0" />
    <path
       style="fill:#008080;fill-opacity:0;stroke:#800000;stroke-width:0.27621359"
       d="m -957.24497,-16132.9 c -0.0601,-0.19 -0.21839,-1.309 -0.35185,-2.486 l -0.24265,-2.141 23.14814,0 23.14814,0 0,2.486 0,2.486 -22.79629,0 c -17.99465,0 -22.81929,-0.07 -22.90549,-0.345 z"
       id="path3075"
       inkscape:connector-curvature="0" />
    <path
       style="fill:#008080;fill-opacity:0;stroke:#800000;stroke-width:0.27621359"
       d="m -955.90772,-16133.032 -1.1371,-0.104 -0.17251,-1.436 c -0.0949,-0.789 -0.1736,-1.715 -0.17492,-2.057 l -0.002,-0.622 22.78762,0 22.78762,0 0,2.21 0,2.21 -21.4756,-0.05 c -11.81159,-0.03 -21.9873,-0.09 -22.61271,-0.153 z"
       id="path3077"
       inkscape:connector-curvature="0" />
    <path
       style="fill:#008080;fill-opacity:0;stroke:#800000;stroke-width:0.27621359"
       d="m -951.90274,-16133.314 -4.8661,-0.08 -0.1748,-1.275 c -0.0961,-0.702 -0.17479,-1.507 -0.17479,-1.79 0,-0.496 0.74708,-0.513 22.5114,-0.513 l 22.51141,0 0,1.933 0,1.934 -17.47051,-0.06 c -9.60878,-0.03 -19.66025,-0.1 -22.33661,-0.144 z"
       id="path3079"
       inkscape:connector-curvature="0" />
    <path
       style="fill:#008080;fill-opacity:0;stroke:#800000;stroke-width:0.27621359"
       d="m -949.1466,-16133.591 -7.35802,-0.08 -0.18952,-1.264 c -0.10424,-0.695 -0.10775,-1.345 -0.008,-1.445 0.1,-0.1 10.11511,-0.217 22.25592,-0.261 l 22.0742,-0.08 0,1.667 0,1.666 -14.70838,-0.06 c -8.0896,-0.03 -18.01948,-0.1 -22.06639,-0.143 z"
       id="path3081"
       inkscape:connector-curvature="0" />
    <path
       style="fill:#008080;fill-opacity:0;stroke:#800000;stroke-width:0.27621359"
       d="m -947.62811,-16133.867 -8.60166,-0.08 -0.18593,-0.991 c -0.10226,-0.545 -0.12036,-1.057 -0.0402,-1.137 0.0801,-0.08 9.9697,-0.21 21.97679,-0.288 l 21.83108,-0.143 0,1.422 0,1.421 -13.1892,-0.07 c -7.25406,-0.04 -17.05994,-0.1 -21.79086,-0.142 z"
       id="path3083"
       inkscape:connector-curvature="0" />
    <path
       style="fill:#008080;fill-opacity:0;stroke:#800000;stroke-width:0.27621359"
       d="m -946.52422,-16134.143 -9.43128,-0.08 -0.18059,-0.72 c -0.0993,-0.396 -0.13617,-0.764 -0.0819,-0.818 0.0543,-0.06 9.81758,-0.184 21.69621,-0.289 l 21.59751,-0.19 0,1.15 0,1.15 -12.08435,-0.07 c -6.64638,-0.04 -16.32841,-0.1 -21.51561,-0.142 z"
       id="path3085"
       inkscape:connector-curvature="0" />
    <path
       style="fill:#008080;fill-opacity:0;stroke:#800000;stroke-width:0.27621359"
       d="m -930.11856,-16133.843 c 0.1899,-0.08 0.50064,-0.08 0.69054,0 0.18989,0.08 0.0345,0.14 -0.34527,0.14 -0.37979,0 -0.53516,-0.06 -0.34527,-0.14 z"
       id="path3087"
       inkscape:connector-curvature="0" />
    <path
       style="fill:#008080;fill-opacity:0;stroke:#800000;stroke-width:0.27621359"
       d=""
       id="path3089"
       inkscape:connector-curvature="0" />
    <path
       style="fill:#008080;fill-opacity:0;stroke:#800000;stroke-width:0.27621359"
       d="m -930.67098,-16132.738 c 0.18989,-0.08 0.50063,-0.08 0.69053,0 0.1899,0.08 0.0345,0.139 -0.34527,0.139 -0.37979,0 -0.53516,-0.06 -0.34526,-0.139 z"
       id="path3091"
       inkscape:connector-curvature="0" />
    <path
       style="fill:#008080;fill-opacity:0;stroke:#800000;stroke-width:0.27621359"
       d=""
       id="path3093"
       inkscape:connector-curvature="0" />
    <path
       style="fill:#008080;fill-opacity:0;stroke:#800000;stroke-width:0.27621359"
       d="m -928.31741,-16134.103 c 0.0918,-0.09 0.33001,-0.102 0.52941,-0.02 0.22034,0.09 0.15489,0.154 -0.16688,0.167 -0.29118,0.01 -0.45432,-0.05 -0.36253,-0.145 z"
       id="path3095"
       inkscape:connector-curvature="0" />
    <path
       style="fill:#008080;fill-opacity:0;stroke:#800000;stroke-width:0.27621359"
       d="m -945.42012,-16134.423 c -9.19087,-0.06 -10.2787,-0.119 -10.43357,-0.523 -0.0951,-0.247 -0.13751,-0.486 -0.0943,-0.529 0.0432,-0.04 9.67911,-0.169 21.41305,-0.279 l 21.33444,-0.201 0,0.872 0,0.872 -10.97949,-0.07 c -6.03872,-0.04 -15.5968,-0.102 -21.24016,-0.142 z"
       id="path3097"
       inkscape:connector-curvature="0" />
    <path
       style="fill:#008080;fill-opacity:0;stroke:#800000;stroke-width:0.27621359"
       d="m -936.07392,-16134.69 c -0.54491,-0.07 -0.8705,-0.244 -0.80567,-0.439 0.0809,-0.243 3.0952,-0.345 11.75584,-0.398 11.50776,-0.07 11.64706,-0.07 11.64706,0.483 0,0.548 -0.14998,0.555 -10.84138,0.511 -5.96276,-0.02 -11.25289,-0.1 -11.75585,-0.157 z"
       id="path3099"
       inkscape:connector-curvature="0" />
    <path
       style="fill:#008080;fill-opacity:0;stroke:#800000;stroke-width:0.09765625"
       d="m -933.2421,-16134.624 c 0,-0.128 2.53666,-0.128 2.73438,0 0.0982,0.06 -0.32786,0.09 -1.29395,0.1 -0.89618,0 -1.44043,-0.04 -1.44043,-0.1 z"
       id="path3101"
       inkscape:connector-curvature="0" />
    <path
       style="fill:#008080;fill-opacity:0;stroke:#800000;stroke-width:0.09765625"
       d="m -933.28287,-16134.815 c -1.71916,-0.04 -2.54254,-0.09 -2.56695,-0.162 -0.0651,-0.195 0.98191,-0.234 9.10186,-0.333 7.33947,-0.09 11.5537,-0.07 12.62207,0.06 0.43571,0.05 0.55321,0.243 0.24414,0.394 -0.18927,0.09 -15.406,0.124 -19.40112,0.04 z"
       id="path3103"
       inkscape:connector-curvature="0" />
    <path
       style="fill:#008080;fill-opacity:0;stroke:#800000;stroke-width:0.09765625"
       d="m -947.06046,-16134.627 c -7.68581,-0.08 -8.64258,-0.133 -8.64258,-0.517 0,-0.168 2.82086,-0.239 12.35352,-0.312 5.19207,-0.04 6.68786,-0.02 6.51855,0.06 -0.12768,0.07 -0.21972,0.206 -0.21972,0.332 0,0.12 0.0989,0.286 0.21972,0.371 0.25303,0.176 0.87849,0.172 -10.22949,0.06 z"
       id="path3105"
       inkscape:connector-curvature="0" />
    <path
       style="fill:#008080;fill-opacity:0;stroke:#800000;stroke-width:0.09765625"
       d="m -946.76749,-16134.724 c -7.56616,-0.08 -8.73276,-0.14 -8.26259,-0.431 0.13264,-0.08 17.00156,-0.288 17.49713,-0.213 0.40981,0.06 0.43343,0.08 0.43343,0.38 l 0,0.315 -1.61133,0 c -0.88623,0 -4.51172,-0.02 -8.05664,-0.06 z"
       id="path3107"
       inkscape:connector-curvature="0" />
    <path
       style="fill:#008080;fill-opacity:0;stroke:#800000;stroke-width:0.09765625"
       d="m -944.6842,-16134.818 c -3.20478,-0.03 -5.86055,-0.08 -5.9017,-0.125 -0.0412,-0.04 -0.0338,-0.113 0.0163,-0.159 0.0501,-0.05 3.01843,-0.115 6.59622,-0.152 5.95119,-0.06 6.51869,-0.05 6.66504,0.09 0.35493,0.355 0.2123,0.44 -0.69453,0.416 -0.46997,-0.01 -3.47659,-0.05 -6.68136,-0.07 z"
       id="path3109"
       inkscape:connector-curvature="0" />
    <path
       style="fill:#008080;fill-opacity:0;stroke:#800000;stroke-width:0.02441406"
       d="m -932.02292,-16134.855 c -1.61339,-0.02 -3.45595,-0.09 -3.50322,-0.134 -0.0615,-0.06 0.0605,-0.08 0.96415,-0.119 1.85246,-0.09 12.57715,-0.212 16.43067,-0.187 3.49929,0.02 4.31445,0.07 4.34082,0.251 0.005,0.03 -0.0159,0.07 -0.061,0.1 -0.0611,0.04 -0.15047,0.05 -0.83741,0.06 -0.72767,0.02 -15.95704,0.04 -17.33398,0.03 l 0,0 z"
       id="path3111"
       inkscape:connector-curvature="0" />
    <path
       style="fill:#008080;fill-opacity:0;stroke:#800000;stroke-width:0.02441406"
       d="m -933.75632,-16134.916 c -0.84979,-0.03 -1.46427,-0.06 -1.48254,-0.08 -0.0447,-0.04 0.086,-0.06 0.67687,-0.09 2.66711,-0.11 14.274,-0.225 17.68799,-0.175 2.17766,0.03 2.74313,0.06 2.98462,0.161 0.0966,0.04 0.0998,0.07 0.0133,0.127 -0.0602,0.04 -0.1777,0.04 -1.33667,0.06 -1.8196,0.02 -17.82875,0.02 -18.54356,0 z"
       id="path3113"
       inkscape:connector-curvature="0" />
    <path
       style="fill:#008080;fill-opacity:0;stroke:#800000;stroke-width:0.02441406"
       d="m -932.26706,-16134.939 c -2.17128,-0.01 -2.52543,-0.03 -2.50742,-0.08 0.0175,-0.05 1.623,-0.09 5.68124,-0.149 7.98758,-0.106 13.59089,-0.101 14.75328,0.01 0.41661,0.04 0.5761,0.107 0.41595,0.172 -0.14005,0.06 -12.50194,0.09 -18.34305,0.04 z"
       id="path3115"
       inkscape:connector-curvature="0" />
    <path
       style="fill:#008080;fill-opacity:0;stroke:#800000;stroke-width:0.02441406"
       d="m -930.75747,-16134.961 c -1.76799,0 -3.22295,-0.02 -3.23323,-0.03 -0.0103,-0.01 -0.008,-0.03 0.004,-0.04 0.0634,-0.06 9.06717,-0.173 14.12191,-0.175 4.17127,0 5.45117,0.03 5.85255,0.128 0.33661,0.08 0.0315,0.09 -4.24122,0.119 -3.89186,0.02 -6.86387,0.02 -12.50408,0 z"
       id="path3117"
       inkscape:connector-curvature="0" />
    <path
       style="fill:#008080;fill-opacity:0;stroke:#800000;stroke-width:0.02441406"
       d="m -929.73611,-16134.98 c -2.55665,0 -3.21648,-0.01 -3.20845,-0.04 0.0114,-0.03 0.39904,-0.04 3.66822,-0.09 7.98537,-0.113 14.92417,-0.09 15.16733,0.04 0.0204,0.01 -0.0917,0.03 -0.26626,0.04 -0.37827,0.02 -8.19538,0.06 -10.45771,0.06 -0.92651,0 -3.13292,0 -4.90313,-0.01 z"
       id="path3119"
       inkscape:connector-curvature="0" />
    <path
       style="fill:#008080;fill-opacity:0;stroke:#800000;stroke-width:0.02441406"
       d=""
       id="path3121"
       inkscape:connector-curvature="0" />
    <path
       style="fill:#008080;fill-opacity:0;stroke:#800000;stroke-width:0.02441406"
       d="m -941.04392,-16134.842 c -8.24546,-0.09 -9.4992,-0.113 -9.47776,-0.178 0.0131,-0.04 0.26976,-0.06 1.40891,-0.09 2.47973,-0.07 9.13817,-0.14 10.49805,-0.115 0.8441,0.02 1.15658,0.04 1.23809,0.09 0.0572,0.04 0.17793,0.193 0.17793,0.231 0,0.09 -0.33007,0.1 -3.84522,0.06 z"
       id="path3123"
       inkscape:connector-curvature="0" />
    <path
       style="fill:#008080;fill-opacity:0;stroke:#800000;stroke-width:0.02441406"
       d="m -940.05515,-16134.855 c -6.7913,-0.07 -10.00846,-0.123 -10.04476,-0.157 -0.0125,-0.01 -0.018,-0.03 -0.0122,-0.03 0.0604,-0.06 9.18038,-0.182 11.20443,-0.153 1.43262,0.02 1.52409,0.03 1.63647,0.218 l 0.0472,0.08 -0.0545,0.02 c -0.058,0.02 -1.62167,0.04 -2.77666,0.02 z"
       id="path3125"
       inkscape:connector-curvature="0" />
    <path
       style="fill:#008080;fill-opacity:0;stroke:#800000;stroke-width:0.02441406"
       d="m -941.05613,-16134.889 c -0.86608,-0.01 -3.00842,-0.04 -4.76074,-0.06 -1.79943,-0.02 -3.19595,-0.05 -3.20882,-0.06 -0.0125,-0.01 -0.0163,-0.03 -0.008,-0.04 0.0241,-0.02 3.75729,-0.08 6.95252,-0.106 3.01116,-0.02 4.3424,-0.01 4.57635,0.05 0.11403,0.03 0.25576,0.156 0.21629,0.195 -0.0324,0.03 -2.08453,0.04 -3.76725,0.02 z"
       id="path3127"
       inkscape:connector-curvature="0" />
    <path
       style="fill:#008080;fill-opacity:0;stroke:#800000;stroke-width:0.02441406"
       d="m -944.74265,-16134.956 c -1.51062,-0.02 -2.75684,-0.05 -2.76937,-0.06 -0.0125,-0.01 -0.0164,-0.03 -0.009,-0.03 0.0467,-0.05 8.96289,-0.108 9.61593,-0.07 0.37661,0.02 0.48551,0.05 0.55537,0.135 0.0242,0.03 0.0102,0.04 -0.0845,0.05 -0.18917,0.02 -4.39028,0.01 -7.30882,-0.03 z"
       id="path3129"
       inkscape:connector-curvature="0" />
    <path
       style="fill:#008080;fill-opacity:0;stroke:#800000;stroke-width:0.02441406"
       d="m -943.08249,-16134.967 c -1.59766,-0.01 -2.70705,-0.03 -2.72054,-0.04 -0.0125,-0.01 -0.0166,-0.03 -0.009,-0.04 0.0235,-0.02 5.85682,-0.07 7.01425,-0.05 1.07022,0.01 1.30727,0.03 1.37407,0.1 0.07,0.07 -0.69307,0.08 -5.65873,0.03 z"
       id="path3131"
       inkscape:connector-curvature="0" />
    <path
       style="fill:#008080;fill-opacity:0;stroke:#800000;stroke-width:0.02441406"
       d="m -942.47011,-16134.986 c -0.93935,0 -1.33118,-0.02 -1.33754,-0.04 -0.0123,-0.04 4.50909,-0.07 5.49421,-0.04 0.74759,0.02 0.96082,0.06 0.55061,0.09 -0.2366,0.02 -2.47119,0.01 -4.70728,0 z"
       id="path3133"
       inkscape:connector-curvature="0" />
    <text
       xml:space="preserve"
       style="font-size:8px;font-style:normal;font-weight:normal;line-height:125%;letter-spacing:0px;word-spacing:0px;fill:#000000;fill-opacity:1;stroke:none;font-family:Sans"
       x="-971.48438"
       y="-16132.794"
       id="text3135"
       sodipodi:linespacing="125%"><tspan
         sodipodi:role="line"
         id="tspan3137"
         x="-971.48438"
         y="-16132.794">0€</tspan></text>
    <text
       xml:space="preserve"
       style="font-size:12px;font-style:normal;font-weight:normal;line-height:125%;letter-spacing:0px;word-spacing:0px;fill:#000000;fill-opacity:1;stroke:none;font-family:Sans"
       x="-813.08594"
       y="-16132.013"
       id="text3139"
       sodipodi:linespacing="125%"><tspan
         sodipodi:role="line"
         id="tspan3141"
         x="-813.08594"
         y="-16132.013"
         style="font-size:8px">150€</tspan></text>
  </g>
</svg>
