<?xml version="1.0" encoding="UTF-8" standalone="no"?>
<!-- Created with Inkscape (http://www.inkscape.org/) -->

<svg
   xmlns:dc="http://purl.org/dc/elements/1.1/"
   xmlns:cc="http://creativecommons.org/ns#"
   xmlns:rdf="http://www.w3.org/1999/02/22-rdf-syntax-ns#"
   xmlns:svg="http://www.w3.org/2000/svg"
   xmlns="http://www.w3.org/2000/svg"
   xmlns:sodipodi="http://sodipodi.sourceforge.net/DTD/sodipodi-0.dtd"
   xmlns:inkscape="http://www.inkscape.org/namespaces/inkscape"
   width="744.09448819"
   height="1052.3622047"
   id="svg5390"
   version="1.1"
   inkscape:version="0.48.5 r10040"
   sodipodi:docname="Liste_connectée_budget_login.svg">
  <defs
     id="defs5392">
    <inkscape:perspective
       sodipodi:type="inkscape:persp3d"
       inkscape:vp_x="0 : 526.18109 : 1"
       inkscape:vp_y="0 : 1000 : 0"
       inkscape:vp_z="744.09448 : 526.18109 : 1"
       inkscape:persp3d-origin="372.04724 : 350.78739 : 1"
       id="perspective5842" />
  </defs>
  <sodipodi:namedview
     id="base"
     pagecolor="#ffffff"
     bordercolor="#ffffff"
     borderopacity="0.0"
     inkscape:pageopacity="0.0"
     inkscape:pageshadow="0"
     inkscape:zoom="1.28"
     inkscape:cx="-702.16974"
     inkscape:cy="17092.038"
     inkscape:document-units="px"
     inkscape:current-layer="layer1"
     showgrid="false"
     inkscape:window-width="1106"
     inkscape:window-height="671"
     inkscape:window-x="551"
     inkscape:window-y="286"
     inkscape:window-maximized="0"
     inkscape:snap-grids="false" />
  <metadata
     id="metadata5395">
    <rdf:RDF>
      <cc:Work
         rdf:about="">
        <dc:format>image/svg+xml</dc:format>
        <dc:type
           rdf:resource="http://purl.org/dc/dcmitype/StillImage" />
        <dc:title></dc:title>
      </cc:Work>
    </rdf:RDF>
  </metadata>
  <g
     inkscape:label="Layer 1"
     inkscape:groupmode="layer"
     id="layer1">
    <rect
       style="fill:#000000;fill-opacity:0;fill-rule:evenodd;stroke:#000000;stroke-width:1px;stroke-linecap:butt;stroke-linejoin:miter;stroke-opacity:1"
       id="rect2985"
       width="632.85712"
       height="222.85715"
       x="-975.96429"
       y="-16172.777" />
    <text
       xml:space="preserve"
       style="font-size:16px;font-style:normal;font-weight:normal;line-height:125%;letter-spacing:0px;word-spacing:0px;fill:#000000;fill-opacity:1;stroke:none;font-family:Sans"
       x="-1172.0898"
       y="-13395.305"
       id="text3003"
       sodipodi:linespacing="125%"
       transform="scale(0.82795296,1.2077981)"><tspan
         sodipodi:role="line"
         id="tspan3005"
         x="-1172.0898"
         y="-13395.305">Future Market.fr</tspan></text>
    <rect
       style="fill:#000000;fill-opacity:0"
       id="rect5223"
       width="240.71429"
       height="53.57143"
       x="-977.39288"
       y="-16225.635" />
    <text
       xml:space="preserve"
       style="font-size:12px;font-style:normal;font-weight:normal;line-height:125%;letter-spacing:0px;word-spacing:0px;fill:#000000;fill-opacity:1;stroke:none;font-family:Sans"
       x="-967.79901"
       y="-16134.992"
       id="text5225"
       sodipodi:linespacing="125%"><tspan
         sodipodi:role="line"
         id="tspan5227"
         x="-967.79901"
         y="-16134.992">Catégorie patisserie</tspan></text>
    <text
       xml:space="preserve"
       style="font-size:10px;font-style:normal;font-weight:normal;line-height:125%;letter-spacing:0px;word-spacing:0px;fill:#000000;fill-opacity:1;stroke:none;font-family:Sans;-inkscape-font-specification:Sans;font-stretch:normal;font-variant:normal;text-anchor:start;text-align:start;writing-mode:lr"
       x="-953.77545"
       y="-16118.849"
       id="text5225-1"
       sodipodi:linespacing="125%"><tspan
         sodipodi:role="line"
         id="tspan5227-7"
         x="-953.77545"
         y="-16118.849">Farine</tspan></text>
    <text
       xml:space="preserve"
       style="font-size:10px;font-style:normal;font-weight:normal;line-height:125%;letter-spacing:0px;word-spacing:0px;fill:#000000;fill-opacity:1;stroke:none;font-family:Sans;-inkscape-font-specification:Sans;font-stretch:normal;font-variant:normal;text-anchor:start;text-align:start;writing-mode:lr"
       x="-955.75879"
       y="-16086.603"
       id="text5225-4"
       sodipodi:linespacing="125%"><tspan
         sodipodi:role="line"
         id="tspan5227-0"
         x="-955.75879"
         y="-16086.603">Maizena</tspan><tspan
         sodipodi:role="line"
         x="-955.75879"
         y="-16071.603"
         id="tspan5580" /></text>
    <text
       xml:space="preserve"
       style="font-size:10px;font-style:normal;font-weight:normal;line-height:125%;letter-spacing:0px;word-spacing:0px;fill:#000000;fill-opacity:1;stroke:none;font-family:Sans;-inkscape-font-specification:Sans;font-stretch:normal;font-variant:normal;text-anchor:start;text-align:start;writing-mode:lr"
       x="-956.40643"
       y="-16103.64"
       id="text5225-8"
       sodipodi:linespacing="125%"><tspan
         sodipodi:role="line"
         id="tspan5227-8"
         x="-956.40643"
         y="-16103.64">Vergeoise</tspan></text>
    <text
       xml:space="preserve"
       style="font-size:10px;font-style:normal;font-weight:normal;line-height:125%;letter-spacing:0px;word-spacing:0px;fill:#000000;fill-opacity:1;stroke:none;font-family:Sans;-inkscape-font-specification:Sans;font-stretch:normal;font-variant:normal;text-anchor:start;text-align:start;writing-mode:lr"
       x="-954.7973"
       y="-16052.206"
       id="text5225-8-2"
       sodipodi:linespacing="125%"><tspan
         sodipodi:role="line"
         id="tspan5227-8-4"
         x="-954.7973"
         y="-16052.206">Bonbons</tspan></text>
    <text
       xml:space="preserve"
       style="font-size:12px;font-style:normal;font-weight:normal;line-height:125%;letter-spacing:0px;word-spacing:0px;fill:#000000;fill-opacity:1;stroke:none;font-family:Sans"
       x="-784.77234"
       y="-15955.18"
       id="text5225-8-5"
       sodipodi:linespacing="125%"><tspan
         sodipodi:role="line"
         id="tspan5227-8-5"
         x="-784.77234"
         y="-15955.18"
         style="font-size:8px">Prix au kilo</tspan></text>
    <text
       xml:space="preserve"
       style="font-size:12px;font-style:normal;font-weight:normal;line-height:125%;letter-spacing:0px;word-spacing:0px;fill:#000000;fill-opacity:1;stroke:none;font-family:Sans"
       x="-684.39844"
       y="-15955.234"
       id="text5225-8-1"
       sodipodi:linespacing="125%"><tspan
         sodipodi:role="line"
         id="tspan5227-8-7"
         x="-684.39844"
         y="-15955.234"
         style="font-size:8px">Quantité</tspan></text>
    <text
       xml:space="preserve"
       style="font-size:12px;font-style:normal;font-weight:normal;line-height:125%;letter-spacing:0px;word-spacing:0px;fill:#000000;fill-opacity:1;stroke:none;font-family:Sans"
       x="-418.39285"
       y="-16188.349"
       id="text5316"
       sodipodi:linespacing="125%"><tspan
         sodipodi:role="line"
         id="tspan5318"
         x="-418.39285"
         y="-16188.349">TsongTsong</tspan><tspan
         sodipodi:role="line"
         x="-418.39285"
         y="-16173.349"
         id="tspan5320" /></text>
    <text
       xml:space="preserve"
       style="font-size:12px;font-style:normal;font-weight:normal;line-height:125%;letter-spacing:0px;word-spacing:0px;fill:#000000;fill-opacity:1;stroke:none;font-family:Sans"
       x="-433.10715"
       y="-16176.063"
       id="text5322"
       sodipodi:linespacing="125%"><tspan
         sodipodi:role="line"
         x="-433.10715"
         y="-16176.063"
         id="tspan5558">se déconnecter</tspan><tspan
         sodipodi:role="line"
         x="-433.10715"
         y="-16161.063"
         id="tspan5326" /></text>
    <path
       style="fill:#000000;fill-opacity:0"
       id="path5328"
       d="m -567.67508,-16200.367 c 1.68192,-1.401 3.29512,-2.881 4.97596,-4.286 2.05613,-1.531 4.19389,-2.943 6.3743,-4.289 1.88854,-1.18 3.55641,-2.672 5.21156,-4.152 1.57299,-1.443 3.03859,-2.999 4.60586,-4.448 3.24991,-2.782 7.45595,-4.589 11.04539,-6.59 2.75014,-1.533 -10.91051,6.29 -8.19388,4.699 9.4492,-5.536 6.15717,-4.355 10.43672,-5.816 1.68527,-0.68 3.24572,-1.62 4.89062,-2.387 1.56273,-0.636 3.12474,-1.245 4.67114,-1.912 1.19151,-0.782 2.55874,-1.056 3.94961,-1.214 1.28914,-0.554 2.6712,-0.646 4.05359,-0.71 1.71125,-0.02 3.44166,-0.232 5.13864,0.03 0.80263,0.427 1.87391,0.496 2.58715,1.096 0.0702,0.06 0.84027,0.967 0.94021,1.084 0.12812,0.19 0.25624,0.379 0.38436,0.569 0,0 -9.05231,5.319 -9.05231,5.319 l 0,0 c -0.10729,-0.155 -0.21457,-0.31 -0.32185,-0.465 -0.80939,-0.912 -1.84591,-1.345 -3.051,-1.554 -1.66724,-0.08 -3.34116,-0 -5.0052,0.109 -1.38018,0.162 -2.70214,0.501 -4.05291,0.808 -1.34435,0.274 -2.5732,0.791 -3.79018,1.421 -1.51331,0.647 -3.08791,1.152 -4.56382,1.891 -1.63277,0.833 -3.25629,1.69 -4.96256,2.367 -0.24858,0.125 -0.98563,0.515 -0.74574,0.374 2.73126,-1.601 10.98668,-6.299 8.22123,-4.758 -3.24365,1.809 -6.39362,3.784 -9.65599,5.558 -2.75885,1.501 5.43709,-3.145 8.14492,-4.736 0.23558,-0.138 -0.49408,0.236 -0.72727,0.378 -0.25211,0.154 -0.48362,0.34 -0.72544,0.509 -1.61712,1.422 -3.15029,2.928 -4.64142,4.482 -1.72038,1.456 -3.32321,3.058 -5.1916,4.333 -2.1948,1.315 -4.32035,2.721 -6.43621,4.155 -1.63527,1.328 -3.28223,2.661 -4.69448,4.225 0,0 -9.8194,3.905 -9.8194,3.905 z"
       inkscape:connector-curvature="0" />
    <path
       style="fill:none;stroke:#000000;stroke-width:1px;stroke-linecap:butt;stroke-linejoin:miter;stroke-opacity:1"
       d="m -975.78571,-16172.956 0,-25.714 631.78571,0 0,0 0.89286,0 0,25.714"
       id="path5342"
       inkscape:connector-curvature="0" />
    <text
       xml:space="preserve"
       style="font-size:12px;font-style:normal;font-weight:normal;line-height:125%;letter-spacing:0px;word-spacing:0px;fill:#000000;fill-opacity:1;stroke:none;font-family:Sans"
       x="-779.83777"
       y="-16160.133"
       id="text5562"
       sodipodi:linespacing="125%"><tspan
         sodipodi:role="line"
         id="tspan5564"
         x="-779.83777"
         y="-16160.133">Recettes</tspan></text>
    <text
       xml:space="preserve"
       style="font-size:12px;font-style:normal;font-weight:normal;line-height:125%;letter-spacing:0px;word-spacing:0px;fill:#000000;fill-opacity:1;stroke:none;font-family:Sans"
       x="-968.25153"
       y="-16161.122"
       id="text5566"
       sodipodi:linespacing="125%"><tspan
         sodipodi:role="line"
         id="tspan5568"
         x="-968.25153"
         y="-16161.122">Liste de courses</tspan></text>
    <text
       xml:space="preserve"
       style="font-size:12px;font-style:normal;font-weight:normal;line-height:125%;letter-spacing:0px;word-spacing:0px;fill:#000000;fill-opacity:1;stroke:none;font-family:Sans"
       x="-843.21594"
       y="-16160.152"
       id="text5570"
       sodipodi:linespacing="125%"><tspan
         sodipodi:role="line"
         id="tspan5572"
         x="-843.21594"
         y="-16160.152">Budget</tspan></text>
    <path
       style="fill:none;stroke:#000000;stroke-width:1px;stroke-linecap:butt;stroke-linejoin:miter;stroke-opacity:1"
       d="m -976.31244,-16155.586 632.86057,0"
       id="path5574"
       inkscape:connector-curvature="0" />
    <path
       style="fill:none;stroke:#000000;stroke-width:1px;stroke-linecap:butt;stroke-linejoin:miter;stroke-opacity:1"
       d="m -856.10428,-16172.759 0,16.667"
       id="path5576"
       inkscape:connector-curvature="0" />
    <path
       style="fill:none;stroke:#000000;stroke-width:1px;stroke-linecap:butt;stroke-linejoin:miter;stroke-opacity:1"
       d="m -790.44437,-16172.759 0,16.667"
       id="path5578"
       inkscape:connector-curvature="0" />
    <text
       xml:space="preserve"
       style="font-size:12px;font-style:normal;font-weight:normal;line-height:125%;letter-spacing:0px;word-spacing:0px;fill:#000000;fill-opacity:1;stroke:none;font-family:Sans"
       x="-963.44629"
       y="-16067.169"
       id="text5225-9"
       sodipodi:linespacing="125%"><tspan
         sodipodi:role="line"
         id="tspan5227-4"
         x="-963.44629"
         y="-16067.169">Categorie confiserie et gateaux</tspan></text>
    <path
       style="fill:#000000;stroke:#000000;stroke-width:0.61470508999999995px;stroke-linecap:butt;stroke-linejoin:miter;stroke-opacity:1"
       d="m -966.90864,-16126.485 5.18353,0 0,4.426 -4.26879,0 0,-4.426 z"
       id="path5582"
       inkscape:connector-curvature="0" />
    <path
       style="fill:none;stroke:#000000;stroke-width:0.61470509px;stroke-linecap:butt;stroke-linejoin:miter;stroke-opacity:1"
       d="m -967.28745,-16109.817 5.18353,0 0,4.426 -4.26879,0 0,-4.426 z"
       id="path5582-1"
       inkscape:connector-curvature="0" />
    <path
       style="fill:none;stroke:#000000;stroke-width:0.61470509px;stroke-linecap:butt;stroke-linejoin:miter;stroke-opacity:1"
       d="m -966.78237,-16093.149 5.18353,0 0,4.426 -4.26879,0 0,-4.426 z"
       id="path5582-15"
       inkscape:connector-curvature="0" />
    <path
       style="fill:none;stroke:#000000;stroke-width:0.61470509px;stroke-linecap:butt;stroke-linejoin:miter;stroke-opacity:1"
       d="m -967.28744,-16058.552 5.18353,0 0,4.426 -4.26879,0 0,-4.426 z"
       id="path5582-2"
       inkscape:connector-curvature="0" />
    <path
       style="fill:none;stroke:#000000;stroke-width:0.61470509px;stroke-linecap:butt;stroke-linejoin:miter;stroke-opacity:1"
       d="m -967.53999,-16039.612 5.18353,0 0,4.426 -4.26879,0 0,-4.426 z"
       id="path5582-7"
       inkscape:connector-curvature="0" />
    <text
       xml:space="preserve"
       style="font-size:10px;font-style:normal;font-weight:normal;line-height:125%;letter-spacing:0px;word-spacing:0px;fill:#000000;fill-opacity:1;stroke:none;font-family:Sans;-inkscape-font-specification:Sans;font-stretch:normal;font-variant:normal;text-anchor:start;text-align:start;writing-mode:lr"
       x="-956.6145"
       y="-16035.126"
       id="text5623"
       sodipodi:linespacing="125%"><tspan
         sodipodi:role="line"
         id="tspan5625"
         x="-956.6145"
         y="-16035.126">Gateaux secs</tspan></text>
    <text
       xml:space="preserve"
       style="font-size:10px;font-style:normal;font-variant:normal;font-weight:normal;font-stretch:normal;text-align:start;line-height:125%;letter-spacing:0px;word-spacing:0px;writing-mode:lr-tb;text-anchor:start;fill:#000000;fill-opacity:1;stroke:none;font-family:Sans;-inkscape-font-specification:Sans"
       x="-956.51819"
       y="-16017.715"
       id="text5225-4-6"
       sodipodi:linespacing="125%"><tspan
         sodipodi:role="line"
         id="tspan5227-0-1"
         x="-956.51819"
         y="-16017.715">Maizena</tspan><tspan
         sodipodi:role="line"
         x="-956.51819"
         y="-16005.215"
         id="tspan5580-4" /></text>
    <path
       style="fill:none;stroke:#000000;stroke-width:0.61470509px;stroke-linecap:butt;stroke-linejoin:miter;stroke-opacity:1"
       d="m -967.54176,-16024.263 5.18353,0 0,4.426 -4.26879,0 0,-4.426 z"
       id="path5582-15-2"
       inkscape:connector-curvature="0" />
    <text
       xml:space="preserve"
       style="font-size:10px;font-style:normal;font-variant:normal;font-weight:normal;font-stretch:normal;text-align:start;line-height:125%;letter-spacing:0px;word-spacing:0px;writing-mode:lr-tb;text-anchor:start;fill:#000000;fill-opacity:1;stroke:none;font-family:Sans;-inkscape-font-specification:Sans"
       x="-959.04352"
       y="-16002.058"
       id="text5225-4-3"
       sodipodi:linespacing="125%"><tspan
         sodipodi:role="line"
         id="tspan5227-0-2"
         x="-959.04352"
         y="-16002.058">Maizena</tspan><tspan
         sodipodi:role="line"
         x="-959.04352"
         y="-15989.558"
         id="tspan5580-2" /></text>
    <path
       style="fill:none;stroke:#000000;stroke-width:0.61470509px;stroke-linecap:butt;stroke-linejoin:miter;stroke-opacity:1"
       d="m -970.06715,-16008.605 5.18353,0 0,4.426 -4.26879,0 0,-4.426 z"
       id="path5582-15-1"
       inkscape:connector-curvature="0" />
    <path
       style="fill:none;stroke:#000000;stroke-width:1px;stroke-linecap:butt;stroke-linejoin:miter;stroke-opacity:1"
       d="m -789.93929,-16156.092 0,206.577"
       id="path5782"
       inkscape:connector-curvature="0" />
    <text
       xml:space="preserve"
       style="font-size:8px;font-style:normal;font-weight:normal;line-height:125%;letter-spacing:0px;word-spacing:0px;fill:#000000;fill-opacity:1;stroke:none;font-family:Sans"
       x="-401.03058"
       y="-15954.565"
       id="text5784"
       sodipodi:linespacing="125%"><tspan
         sodipodi:role="line"
         id="tspan5786"
         x="-401.03058"
         y="-15954.565">Panier: NNN €</tspan></text>
    <path
       sodipodi:type="star"
       style="fill:#000000;fill-opacity:0"
       id="path5788"
       sodipodi:sides="5"
       sodipodi:cx="-761.65502"
       sodipodi:cy="-16111.645"
       sodipodi:r1="123.27586"
       sodipodi:r2="61.637932"
       sodipodi:arg1="0.58118453"
       sodipodi:arg2="1.2095031"
       inkscape:flatsided="false"
       inkscape:rounded="0"
       inkscape:randomized="0"
       d="m -658.61947,-16043.964 -81.24752,-10.022 -54.31602,61.248 -15.57575,-80.367 -75.03522,-32.731 71.62117,-39.649 7.9417,-81.477 59.84007,55.864 79.94346,-17.625 -34.63797,74.174 z"
       inkscape:transform-center-x="10.051697"
       inkscape:transform-center-y="1.7948739" />
    <path
       sodipodi:type="star"
       style="fill:#000000;fill-opacity:0"
       id="path5790"
       sodipodi:sides="5"
       sodipodi:cx="-706.60171"
       sodipodi:cy="-16080.33"
       sodipodi:r1="80.307127"
       sodipodi:r2="40.153564"
       sodipodi:arg1="0.55659932"
       sodipodi:arg2="1.1849178"
       inkscape:flatsided="false"
       inkscape:rounded="0"
       inkscape:randomized="0"
       d="m -638.41639,-16037.904 -53.07257,-5.225 -34.39222,40.757 -11.43067,-52.089 -49.39052,-20.114 46.00804,-26.968 3.8672,-53.189 39.86519,35.423 51.78058,-12.759 -21.36998,48.861 z"
       inkscape:transform-center-x="5.9576917"
       inkscape:transform-center-y="1.7782778" />
    <path
       sodipodi:type="star"
       style="fill:#000000;fill-opacity:0"
       id="path5794"
       sodipodi:sides="5"
       sodipodi:cx="-563.66512"
       sodipodi:cy="-16077.3"
       sodipodi:r1="14.647212"
       sodipodi:r2="7.3236059"
       sodipodi:arg1="0.76101275"
       sodipodi:arg2="1.3893313"
       inkscape:flatsided="false"
       inkscape:rounded="0"
       inkscape:randomized="0"
       d="m -553.0585,-16067.198 -9.2849,-2.898 -7.6512,6.005 -0.11287,-9.726 -8.07608,-5.421 9.21515,-3.113 2.65991,-9.356 5.80814,7.803 9.71999,-0.362 -5.62552,7.935 z"
       inkscape:transform-center-x="0.81685347"
       inkscape:transform-center-y="-0.59884456" />
    <path
       sodipodi:type="star"
       style="fill:#000000;fill-opacity:0"
       id="path5796"
       sodipodi:sides="5"
       sodipodi:cx="-549.01791"
       sodipodi:cy="-16038.409"
       sodipodi:r1="42.021617"
       sodipodi:r2="21.010808"
       sodipodi:arg1="2.9111902"
       sodipodi:arg2="3.5395087"
       inkscape:flatsided="false"
       inkscape:rounded="0"
       inkscape:randomized="0"
       d="m -589.92906,-16028.813 21.54193,-17.738 -2.39977,-27.802 23.52676,15.007 25.69944,-10.874 -7.00159,27.013 18.2829,21.081 -27.85398,1.689 -14.4,23.902 -10.21311,-25.969 z"
       inkscape:transform-center-x="1.0863442"
       inkscape:transform-center-y="2.9654659" />
    <path
       sodipodi:type="star"
       style="fill:#000000;fill-opacity:0"
       id="path5800"
       sodipodi:sides="5"
       sodipodi:cx="-719.73369"
       sodipodi:cy="-16097.503"
       sodipodi:r1="99.038747"
       sodipodi:r2="49.519374"
       sodipodi:arg1="0.58941703"
       sodipodi:arg2="1.2177356"
       inkscape:flatsided="false"
       inkscape:rounded="0"
       inkscape:randomized="0"
       d="m -637.40627,-16042.45 -65.20505,-8.588 -44.04062,48.846 -11.98146,-64.668 -60.06412,-26.791 57.8001,-31.379 6.91895,-65.403 47.70389,45.275 64.34027,-13.631 -28.31748,59.36 z"
       inkscape:transform-center-x="8.3181927"
       inkscape:transform-center-y="1.1902668" />
    <path
       sodipodi:type="star"
       style="fill:#000000;fill-opacity:0"
       id="path5820"
       sodipodi:sides="5"
       sodipodi:cx="-530.33009"
       sodipodi:cy="-16069.218"
       sodipodi:r1="152.58654"
       sodipodi:r2="123.44511"
       sodipodi:arg1="-3.1151088"
       sodipodi:arg2="-2.4867903"
       inkscape:flatsided="true"
       inkscape:rounded="0.68894362"
       inkscape:randomized="0"
       d="m -682.8631,-16073.258 c 3.27249,-123.537 -9.26114,-107.213 109.24057,-142.276 118.50171,-35.063 99.10368,-41.938 169.06927,59.928 69.96559,101.867 70.51058,81.294 -4.75002,179.314 -75.26059,98.02 -55.52575,92.18 -172.00494,50.893 -116.47919,-41.287 -104.82738,-24.323 -101.55488,-147.859 z"
       inkscape:transform-center-x="-11.706415"
       inkscape:transform-center-y="1.1545754" />
    <path
       sodipodi:type="star"
       style="fill:#000000;fill-opacity:0"
       id="path5822"
       sodipodi:sides="5"
       sodipodi:cx="-676.29713"
       sodipodi:cy="-16060.632"
       sodipodi:r1="92.496553"
       sodipodi:r2="74.831283"
       sodipodi:arg1="0.25954717"
       sodipodi:arg2="0.8878657"
       inkscape:flatsided="true"
       inkscape:rounded="0.68894362"
       inkscape:randomized="0"
       d="m -586.89862,-16036.893 c -19.22592,72.404 -9.54814,64.531 -84.34958,68.62 -74.80144,4.089 -64.32311,10.86 -91.32701,-59.017 -27.00391,-69.876 -30.20573,-57.819 27.90638,-105.094 58.1121,-47.275 45.65494,-46.594 108.5741,-5.935 62.91917,40.659 58.42203,29.022 39.19611,101.426 z"
       inkscape:transform-center-x="1.4411815"
       inkscape:transform-center-y="-6.5130822" />
    <rect
       style="fill:#800000;fill-opacity:0;stroke:#800000"
       id="rect5916"
       width="147.65625"
       height="100.78125"
       x="-757.8125"
       y="-16087.481" />
  </g>
</svg>
