<?xml version="1.0" encoding="UTF-8" standalone="no"?>
<!-- Created with Inkscape (http://www.inkscape.org/) -->

<svg
   xmlns:dc="http://purl.org/dc/elements/1.1/"
   xmlns:cc="http://creativecommons.org/ns#"
   xmlns:rdf="http://www.w3.org/1999/02/22-rdf-syntax-ns#"
   xmlns:svg="http://www.w3.org/2000/svg"
   xmlns="http://www.w3.org/2000/svg"
   xmlns:sodipodi="http://sodipodi.sourceforge.net/DTD/sodipodi-0.dtd"
   xmlns:inkscape="http://www.inkscape.org/namespaces/inkscape"
   width="634.78125"
   height="282.13641"
   id="svg5713"
   version="1.1"
   inkscape:version="0.48.3.1 r9886"
   sodipodi:docname="Liste_connectée_avt_login.svg">
  <defs
     id="defs5715" />
  <sodipodi:namedview
     id="base"
     pagecolor="#ffffff"
     bordercolor="#ffffff"
     borderopacity="0.0"
     inkscape:pageopacity="0.0"
     inkscape:pageshadow="0"
     inkscape:zoom="0.98994949"
     inkscape:cx="192.68617"
     inkscape:cy="208.34704"
     inkscape:document-units="px"
     inkscape:current-layer="layer1"
     showgrid="false"
     inkscape:window-width="1237"
     inkscape:window-height="765"
     inkscape:window-x="225"
     inkscape:window-y="225"
     inkscape:window-maximized="0"
     showborder="false"
     inkscape:showpageshadow="false"
     fit-margin-top="0"
     fit-margin-left="0"
     fit-margin-right="0"
     fit-margin-bottom="0" />
  <metadata
     id="metadata5718">
    <rdf:RDF>
      <cc:Work
         rdf:about="">
        <dc:format>image/svg+xml</dc:format>
        <dc:type
           rdf:resource="http://purl.org/dc/dcmitype/StillImage" />
        <dc:title />
      </cc:Work>
    </rdf:RDF>
  </metadata>
  <g
     inkscape:label="Layer 1"
     inkscape:groupmode="layer"
     id="layer1"
     transform="translate(40.249996,-614.14485)">
    <rect
       style="fill:#000000;fill-opacity:0;fill-rule:evenodd;stroke:#000000;stroke-width:1px;stroke-linecap:butt;stroke-linejoin:miter;stroke-opacity:1"
       id="rect2985"
       width="632.85712"
       height="222.85715"
       x="-38.821426"
       y="672.93665" />
    <text
       xml:space="preserve"
       style="font-size:16px;font-style:normal;font-weight:normal;line-height:125%;letter-spacing:0px;word-spacing:0px;fill:#000000;fill-opacity:1;stroke:none;font-family:Sans"
       x="-40.210495"
       y="552.15472"
       id="text3003"
       sodipodi:linespacing="125%"
       transform="scale(0.82795296,1.2077981)"><tspan
         sodipodi:role="line"
         id="tspan3005"
         x="-40.210495"
         y="552.15472">Future Market.fr</tspan></text>
    <rect
       style="fill:#000000;fill-opacity:0"
       id="rect5223"
       width="240.71429"
       height="53.57143"
       x="-40.249996"
       y="620.07953" />
    <text
       xml:space="preserve"
       style="font-size:12px;font-style:normal;font-weight:normal;line-height:125%;letter-spacing:0px;word-spacing:0px;fill:#000000;fill-opacity:1;stroke:none;font-family:Sans"
       x="9.7500019"
       y="703.65094"
       id="text5225"
       sodipodi:linespacing="125%"><tspan
         sodipodi:role="line"
         id="tspan5227"
         x="9.7500019"
         y="703.65094">Publicité</tspan></text>
    <text
       xml:space="preserve"
       style="font-size:12px;font-style:normal;font-weight:normal;line-height:125%;letter-spacing:0px;word-spacing:0px;fill:#000000;fill-opacity:1;stroke:none;font-family:Sans"
       x="23.268412"
       y="765.75616"
       id="text5225-1"
       sodipodi:linespacing="125%"><tspan
         sodipodi:role="line"
         id="tspan5227-7"
         x="23.268412"
         y="765.75616">Publicité</tspan></text>
    <text
       xml:space="preserve"
       style="font-size:12px;font-style:normal;font-weight:normal;line-height:125%;letter-spacing:0px;word-spacing:0px;fill:#000000;fill-opacity:1;stroke:none;font-family:Sans"
       x="147.55414"
       y="737.89899"
       id="text5225-4"
       sodipodi:linespacing="125%"><tspan
         sodipodi:role="line"
         id="tspan5227-0"
         x="147.55414"
         y="737.89899">Publicité</tspan></text>
    <text
       xml:space="preserve"
       style="font-size:12px;font-style:normal;font-weight:normal;line-height:125%;letter-spacing:0px;word-spacing:0px;fill:#000000;fill-opacity:1;stroke:none;font-family:Sans"
       x="66.125557"
       y="842.18469"
       id="text5225-9"
       sodipodi:linespacing="125%"><tspan
         sodipodi:role="line"
         id="tspan5227-4"
         x="66.125557"
         y="842.18469">Publicité</tspan></text>
    <text
       xml:space="preserve"
       style="font-size:12px;font-style:normal;font-weight:normal;line-height:125%;letter-spacing:0px;word-spacing:0px;fill:#000000;fill-opacity:1;stroke:none;font-family:Sans"
       x="253.9827"
       y="781.47046"
       id="text5225-8"
       sodipodi:linespacing="125%"><tspan
         sodipodi:role="line"
         id="tspan5227-8"
         x="253.9827"
         y="781.47046">Publicité</tspan></text>
    <text
       xml:space="preserve"
       style="font-size:12px;font-style:normal;font-weight:normal;line-height:125%;letter-spacing:0px;word-spacing:0px;fill:#000000;fill-opacity:1;stroke:none;font-family:Sans"
       x="393.9827"
       y="732.89899"
       id="text5225-8-2"
       sodipodi:linespacing="125%"><tspan
         sodipodi:role="line"
         id="tspan5227-8-4"
         x="393.9827"
         y="732.89899">Publicité</tspan></text>
    <text
       xml:space="preserve"
       style="font-size:12px;font-style:normal;font-weight:normal;line-height:125%;letter-spacing:0px;word-spacing:0px;fill:#000000;fill-opacity:1;stroke:none;font-family:Sans"
       x="355.41125"
       y="848.61328"
       id="text5225-8-5"
       sodipodi:linespacing="125%"><tspan
         sodipodi:role="line"
         id="tspan5227-8-5"
         x="355.41125"
         y="848.61328">Publicité</tspan></text>
    <text
       xml:space="preserve"
       style="font-size:12px;font-style:normal;font-weight:normal;line-height:125%;letter-spacing:0px;word-spacing:0px;fill:#000000;fill-opacity:1;stroke:none;font-family:Sans"
       x="482.55414"
       y="782.89899"
       id="text5225-8-1"
       sodipodi:linespacing="125%"><tspan
         sodipodi:role="line"
         id="tspan5227-8-7"
         x="482.55414"
         y="782.89899">Publicité</tspan></text>
    <text
       xml:space="preserve"
       style="font-size:12px;font-style:normal;font-weight:normal;line-height:125%;letter-spacing:0px;word-spacing:0px;fill:#000000;fill-opacity:1;stroke:none;font-family:Sans"
       x="514.75"
       y="657.36523"
       id="text5316"
       sodipodi:linespacing="125%"><tspan
         sodipodi:role="line"
         id="tspan5318"
         x="514.75"
         y="657.36523">Mon compte</tspan><tspan
         sodipodi:role="line"
         x="514.75"
         y="672.36523"
         id="tspan5320" /></text>
    <text
       xml:space="preserve"
       style="font-size:12px;font-style:normal;font-weight:normal;line-height:125%;letter-spacing:0px;word-spacing:0px;fill:#000000;fill-opacity:1;stroke:none;font-family:Sans"
       x="511.00525"
       y="669.65094"
       id="text5322"
       sodipodi:linespacing="125%"><tspan
         sodipodi:role="line"
         id="tspan5324"
         x="511.00525"
         y="669.65094">Me connecter</tspan><tspan
         sodipodi:role="line"
         x="511.00525"
         y="684.65094"
         id="tspan5326" /></text>
    <path
       style="fill:#000000;fill-opacity:0"
       id="path5328"
       d="m 369.46777,645.34714 c 1.68192,-1.40044 3.29512,-2.88053 4.97596,-4.28585 2.05613,-1.53093 4.19389,-2.94301 6.3743,-4.28904 1.88854,-1.18037 3.55641,-2.67213 5.21156,-4.15239 1.57299,-1.44302 3.03859,-2.9981 4.60586,-4.44744 3.24991,-2.78254 7.45595,-4.58944 11.04539,-6.59028 2.75014,-1.53299 -10.91051,6.29063 -8.19388,4.699 9.4492,-5.5361 6.15717,-4.35476 10.43672,-5.81544 1.68527,-0.68037 3.24572,-1.62048 4.89062,-2.38702 1.56273,-0.6367 3.12474,-1.24525 4.67114,-1.91202 1.19151,-0.78216 2.55874,-1.05632 3.94961,-1.21394 1.28914,-0.55408 2.6712,-0.64599 4.05359,-0.71063 1.71125,-0.0154 3.44166,-0.23132 5.13864,0.0347 0.80263,0.42745 1.87391,0.49687 2.58715,1.09632 0.0702,0.059 0.84027,0.96738 0.94021,1.0846 0.12812,0.18947 0.25624,0.37895 0.38436,0.56842 0,0 -9.05231,5.31871 -9.05231,5.31871 l 0,0 c -0.10729,-0.15477 -0.21457,-0.30954 -0.32185,-0.46432 -0.80939,-0.91221 -1.84591,-1.3452 -3.051,-1.55435 -1.66724,-0.0826 -3.34116,-0.008 -5.0052,0.10955 -1.38018,0.16143 -2.70214,0.50097 -4.05291,0.80725 -1.34435,0.27476 -2.5732,0.79176 -3.79018,1.42111 -1.51331,0.64764 -3.08791,1.15202 -4.56382,1.89086 -1.63277,0.83301 -3.25629,1.69006 -4.96256,2.36746 -0.24858,0.1247 -0.98563,0.51478 -0.74574,0.3741 2.73126,-1.60166 10.98668,-6.29971 8.22123,-4.75784 -3.24365,1.80848 -6.39362,3.78328 -9.65599,5.55778 -2.75885,1.50062 5.43709,-3.14503 8.14492,-4.73587 0.23558,-0.13839 -0.49408,0.23566 -0.72727,0.37805 -0.25211,0.15394 -0.48362,0.33932 -0.72544,0.50898 -1.61712,1.42204 -3.15029,2.92799 -4.64142,4.48198 -1.72038,1.45533 -3.32321,3.05765 -5.1916,4.33235 -2.1948,1.31537 -4.32035,2.7218 -6.43621,4.15558 -1.63527,1.32784 -3.28223,2.66049 -4.69448,4.22457 0,0 -9.8194,3.90503 -9.8194,3.90503 z"
       inkscape:connector-curvature="0" />
    <path
       style="fill:none;stroke:#000000;stroke-width:1px;stroke-linecap:butt;stroke-linejoin:miter;stroke-opacity:1"
       d="m -38.642856,672.75809 0,-25.71429 631.785706,0 0,0 0.89286,0 0,25.71429"
       id="path5342"
       inkscape:connector-curvature="0" />
  </g>
</svg>
