<?xml version="1.0" encoding="UTF-8" standalone="no"?>
<!-- Created with Inkscape (http://www.inkscape.org/) -->

<svg
   xmlns:dc="http://purl.org/dc/elements/1.1/"
   xmlns:cc="http://creativecommons.org/ns#"
   xmlns:rdf="http://www.w3.org/1999/02/22-rdf-syntax-ns#"
   xmlns:svg="http://www.w3.org/2000/svg"
   xmlns="http://www.w3.org/2000/svg"
   xmlns:sodipodi="http://sodipodi.sourceforge.net/DTD/sodipodi-0.dtd"
   xmlns:inkscape="http://www.inkscape.org/namespaces/inkscape"
   id="svg3004"
   version="1.1"
   inkscape:version="0.48.3.1 r9886"
   width="380.39987"
   height="184.33907"
   xml:space="preserve"
   sodipodi:docname="poulet_markettab.pdf"><metadata
     id="metadata3010"><rdf:RDF><cc:Work
         rdf:about=""><dc:format>image/svg+xml</dc:format><dc:type
           rdf:resource="http://purl.org/dc/dcmitype/StillImage" /><dc:title></dc:title></cc:Work></rdf:RDF></metadata><defs
     id="defs3008"><clipPath
       clipPathUnits="userSpaceOnUse"
       id="clipPath3020"><path
         d="m 566.398,7852.8 0,-144 4821.602,0 0,144 -4821.602,0 z"
         id="path3022"
         inkscape:connector-curvature="0" /></clipPath><clipPath
       clipPathUnits="userSpaceOnUse"
       id="clipPath3034"><path
         d="m 566.398,708 0,-141.598 4821.602,0 0,141.598 -4821.602,0 z"
         id="path3036"
         inkscape:connector-curvature="0" /></clipPath></defs><sodipodi:namedview
     pagecolor="#ffffff"
     bordercolor="#666666"
     borderopacity="1"
     objecttolerance="10"
     gridtolerance="10"
     guidetolerance="10"
     inkscape:pageopacity="0"
     inkscape:pageshadow="2"
     inkscape:window-width="1196"
     inkscape:window-height="817"
     id="namedview3006"
     showgrid="false"
     inkscape:zoom="1.7938242"
     inkscape:cx="146.14194"
     inkscape:cy="139.15554"
     inkscape:window-x="0"
     inkscape:window-y="27"
     inkscape:window-maximized="0"
     inkscape:current-layer="g3012"
     fit-margin-top="0"
     fit-margin-left="0"
     fit-margin-right="0"
     fit-margin-bottom="0"
     showborder="false"
     inkscape:showpageshadow="false" /><g
     id="g3012"
     inkscape:groupmode="layer"
     inkscape:label="ink_ext_XXXXXX"
     transform="matrix(1.25,0,0,-1.25,-69.600125,955.03906)"><path
       inkscape:connector-curvature="0"
       id="path3044"
       style="fill:none;stroke:#000000;stroke-width:0.24000001;stroke-linecap:butt;stroke-linejoin:miter;stroke-miterlimit:10;stroke-opacity:1;stroke-dasharray:none"
       d="m 56.6398,763.92 302.4002,0" /><path
       inkscape:connector-curvature="0"
       id="path3046"
       style="fill:#000000;fill-opacity:1;fill-rule:evenodd;stroke:none"
       d="m 142.32,739.2 -0.96,-0.72 -83.76,0 -0.9602,0.72 0,0.96 86.4002,0 -0.72,-0.96" /><path
       inkscape:connector-curvature="0"
       id="path3048"
       style="fill:none;stroke:#000000;stroke-width:0.24000001;stroke-linecap:butt;stroke-linejoin:miter;stroke-miterlimit:10;stroke-opacity:1;stroke-dasharray:none"
       d="m 142.32,739.2 216.72,0" /><path
       inkscape:connector-curvature="0"
       id="path3050"
       style="fill:#000000;fill-opacity:1;fill-rule:evenodd;stroke:none"
       d="m 359.04,726.72 -0.96,-0.96 -300.48,0 -0.9602,0.96 0.9602,0.96 301.44,0 0,-0.96" /><path
       inkscape:connector-curvature="0"
       id="path3052"
       style="fill:none;stroke:#000000;stroke-width:0.24000001;stroke-linecap:butt;stroke-linejoin:miter;stroke-miterlimit:10;stroke-opacity:1;stroke-dasharray:none"
       d="m 56.6398,702.48 266.1602,0" /><path
       inkscape:connector-curvature="0"
       id="path3054"
       style="fill:none;stroke:#000000;stroke-width:0.24000001;stroke-linecap:butt;stroke-linejoin:miter;stroke-miterlimit:10;stroke-opacity:1;stroke-dasharray:none"
       d="m 56.6398,690.48 266.1602,0" /><path
       inkscape:connector-curvature="0"
       id="path3056"
       style="fill:none;stroke:#000000;stroke-width:0.24000001;stroke-linecap:butt;stroke-linejoin:miter;stroke-miterlimit:10;stroke-opacity:1;stroke-dasharray:none"
       d="m 56.6398,677.76 266.1602,0" /><path
       inkscape:connector-curvature="0"
       id="path3058"
       style="fill:none;stroke:#000000;stroke-width:0.24000001;stroke-linecap:butt;stroke-linejoin:miter;stroke-miterlimit:10;stroke-opacity:1;stroke-dasharray:none"
       d="m 56.6398,665.76 266.1602,0" /><path
       inkscape:connector-curvature="0"
       id="path3060"
       style="fill:none;stroke:#000000;stroke-width:0.24000001;stroke-linecap:butt;stroke-linejoin:miter;stroke-miterlimit:10;stroke-opacity:1;stroke-dasharray:none"
       d="m 56.6398,653.76 266.1602,0" /><path
       inkscape:connector-curvature="0"
       id="path3062"
       style="fill:none;stroke:#000000;stroke-width:0.24000001;stroke-linecap:butt;stroke-linejoin:miter;stroke-miterlimit:10;stroke-opacity:1;stroke-dasharray:none"
       d="m 56.6398,641.52 266.1602,0" /><path
       inkscape:connector-curvature="0"
       id="path3064"
       style="fill:#000000;fill-opacity:1;fill-rule:evenodd;stroke:none"
       d="m 359.04,617.52 0.96,-0.96 -304.3199,0 0.9597,0.96 0.9602,0.72 300.48,0 0.96,-0.72" /><path
       inkscape:connector-curvature="0"
       id="path3066"
       style="fill:none;stroke:#000000;stroke-width:0.24000001;stroke-linecap:butt;stroke-linejoin:miter;stroke-miterlimit:10;stroke-opacity:1;stroke-dasharray:none"
       d="m 56.6398,739.2 0,24.72" /><path
       inkscape:connector-curvature="0"
       id="path3068"
       style="fill:#000000;fill-opacity:1;fill-rule:evenodd;stroke:none"
       d="m 56.6398,739.2 0.9602,-0.72 0,-120.24 -0.9602,-0.72 -0.9597,-0.96 0,123.6 0.9597,-0.96" /><path
       inkscape:connector-curvature="0"
       id="path3070"
       style="fill:#000000;fill-opacity:1;fill-rule:evenodd;stroke:none"
       d="m 142.32,739.2 0.72,0 0,-11.52 -0.72,-0.96 -0.96,0.96 0,10.8 0.96,0.72" /><path
       inkscape:connector-curvature="0"
       id="path3072"
       style="fill:none;stroke:#000000;stroke-width:0.24000001;stroke-linecap:butt;stroke-linejoin:miter;stroke-miterlimit:10;stroke-opacity:1;stroke-dasharray:none"
       d="m 142.32,641.52 0,60.96" /><path
       inkscape:connector-curvature="0"
       id="path3074"
       style="fill:none;stroke:#000000;stroke-width:0.24000001;stroke-linecap:butt;stroke-linejoin:miter;stroke-miterlimit:10;stroke-opacity:1;stroke-dasharray:none"
       d="m 183.84,726.72 0,12.48" /><path
       inkscape:connector-curvature="0"
       id="path3076"
       style="fill:none;stroke:#000000;stroke-width:0.24000001;stroke-linecap:butt;stroke-linejoin:miter;stroke-miterlimit:10;stroke-opacity:1;stroke-dasharray:none"
       d="m 183.84,641.52 0,60.96" /><path
       inkscape:connector-curvature="0"
       id="path3078"
       style="fill:none;stroke:#000000;stroke-width:0.24000001;stroke-linecap:butt;stroke-linejoin:miter;stroke-miterlimit:10;stroke-opacity:1;stroke-dasharray:none"
       d="m 243.6,726.72 0,12.48" /><path
       inkscape:connector-curvature="0"
       id="path3080"
       style="fill:none;stroke:#000000;stroke-width:0.24000001;stroke-linecap:butt;stroke-linejoin:miter;stroke-miterlimit:10;stroke-opacity:1;stroke-dasharray:none"
       d="m 243.6,641.52 0,60.96" /><path
       inkscape:connector-curvature="0"
       id="path3082"
       style="fill:none;stroke:#000000;stroke-width:0.24000001;stroke-linecap:butt;stroke-linejoin:miter;stroke-miterlimit:10;stroke-opacity:1;stroke-dasharray:none"
       d="m 322.8,726.72 0,12.48" /><path
       inkscape:connector-curvature="0"
       id="path3084"
       style="fill:none;stroke:#000000;stroke-width:0.24000001;stroke-linecap:butt;stroke-linejoin:miter;stroke-miterlimit:10;stroke-opacity:1;stroke-dasharray:none"
       d="m 322.8,641.52 0,60.96" /><path
       inkscape:connector-curvature="0"
       id="path3086"
       style="fill:none;stroke:#000000;stroke-width:0.24000001;stroke-linecap:butt;stroke-linejoin:miter;stroke-miterlimit:10;stroke-opacity:1;stroke-dasharray:none"
       d="m 359.04,726.72 0,37.2" /><path
       inkscape:connector-curvature="0"
       id="path3088"
       style="fill:#000000;fill-opacity:1;fill-rule:evenodd;stroke:none"
       d="m 359.04,726.72 0.96,0.96 0,-111.12 -0.96,0.96 -0.96,0.72 0,107.52 0.96,0.96" /><g
       id="g3090"><text
         id="text3092"
         transform="matrix(1,0,0,-1,57.6,729.84)"><tspan
           id="tspan3094"
           sodipodi:role="line"
           y="0"
           x="0 3.3599176 8.8783808 13.918381 19.436838 22.318533 25.200222 30.718679 127.19869 132.71715 135.11546 137.99715 143.51561 146.87555 152.39401 157.91249 160.79419 163.1925 168.71251 174.23097 186.95114 192.4696 197.98808 200.38638 205.90488 266.14337 271.66183 277.1803 282.69879 285.09711 290.61557"
           style="font-size:10.07999992px;font-variant:normal;font-weight:normal;writing-mode:lr-tb;fill:#000000;fill-opacity:1;fill-rule:nonzero;stroke:none;font-family:Arial Black;-inkscape-font-specification:ArialMTFID6HGSet1">recettesalternativesguidepanier</tspan><tspan
           id="tspan3096"
           sodipodi:role="line"
           y="12.2398"
           x="0 5.5184631 11.036921 13.918615 17.278534 22.796997 27.836996 33.355461 36.237148 39.118839 44.637302 49.437309 52.318993 57.837463 62.637447 67.437447 72.955917 77.995918 80.394226 85.912682 91.431137 96.231133 99.112831 104.63129 107.51299 112.55298 118.07144 120.95313 123.83482 129.35329 132.71321 135.59489 137.99319 143.0332 145.4315"
           style="font-size:10.07999992px;font-variant:normal;font-weight:normal;writing-mode:lr-tb;fill:#000000;fill-opacity:1;fill-rule:nonzero;stroke:none;font-family:Arial Black;-inkscape-font-specification:ArialMTFID6HGSet1">12 recettes associées à cet article</tspan><tspan
           id="tspan3098"
           sodipodi:role="line"
           y="36.239799"
           x="0 3.3599176 8.8783808 13.918381 19.436838 22.318533 25.200222 85.678711 92.877014 98.39547 101.27717 106.79562 109.67732 112.55901 127.1974 132.2374 137.75584 143.27432 186.95619 189.83791 195.35638 203.99628 209.51477"
           style="font-size:10.07999992px;font-variant:normal;font-weight:normal;writing-mode:lr-tb;fill:#000000;fill-opacity:1;fill-rule:nonzero;stroke:none;font-family:Arial Black;-inkscape-font-specification:ArialMTFID6HGSet1">recetteNote /5coûttemps</tspan><tspan
           id="tspan3100"
           sodipodi:role="line"
           y="48.959702"
           x="85.680099 91.198555 94.080254 127.19859 131.03699 186.95549 192.47395 197.99243 203.51093"
           style="font-size:10.07999992px;font-variant:normal;font-weight:normal;writing-mode:lr-tb;fill:#000000;fill-opacity:1;fill-rule:nonzero;stroke:none;font-family:Arial Black;-inkscape-font-specification:ArialMTFID6HGSet1">4.4**1h30</tspan><tspan
           id="tspan3102"
           sodipodi:role="line"
           y="60.959702"
           x="0 5.5184631 11.036921 16.555384 18.95369 24.472153 27.353844 30.235533 35.753994 41.272457 46.072456 51.590927 57.109383 62.627838 65.026146 69.826141 85.66465 91.183105 94.064796 127.18314 186.94171 192.46019 197.97865 206.61858 209.01689"
           style="font-size:10.07999992px;font-variant:normal;font-weight:normal;writing-mode:lr-tb;fill:#000000;fill-opacity:1;fill-rule:nonzero;stroke:none;font-family:Arial Black;-inkscape-font-specification:ArialMTFID6HGSet1">poulet basquaise4.2*45min</tspan><tspan
           id="tspan3104"
           sodipodi:role="line"
           y="73.199501"
           x="0 85.680099 127.20003 186.96021"
           style="font-size:10.07999992px;font-variant:normal;font-weight:normal;writing-mode:lr-tb;fill:#000000;fill-opacity:1;fill-rule:nonzero;stroke:none;font-family:Arial Black;-inkscape-font-specification:ArialMTFID6HGSet1">…………</tspan><tspan
           id="tspan3106"
           sodipodi:role="line"
           y="85.199501"
           x="0 85.680099 127.20003 186.96021"
           style="font-size:10.07999992px;font-variant:normal;font-weight:normal;writing-mode:lr-tb;fill:#000000;fill-opacity:1;fill-rule:nonzero;stroke:none;font-family:Arial Black;-inkscape-font-specification:ArialMTFID6HGSet1">…………</tspan><tspan
           id="tspan3108"
           sodipodi:role="line"
           y="109.1995"
           x="186.96001 192.47847 197.99693 203.51543 209.03543 214.55391 216.95221 219.35052 224.86899 227.7507 231.11061 236.6291 241.6691 247.18758 250.06927 252.95099"
           style="font-size:10.07999992px;font-variant:normal;font-weight:normal;writing-mode:lr-tb;fill:#000000;fill-opacity:1;fill-rule:nonzero;stroke:none;font-family:Arial Black;-inkscape-font-specification:ArialMTFID6HGSet1">nouvelle recette</tspan><tspan
           id="tspan3110"
           sodipodi:role="line"
           y="-24.240499"
           x="3.5999999 9.1199989 14.638455 20.156919 24.956917 27.838606 33.357067 38.877068 44.395531 49.435532 52.317215 57.11721 62.157211 67.675667 73.194138 78.712593 84.231049 87.112747 89.994446 92.876129 98.394592 103.91306 106.79474 111.83473 117.3532 119.75151 124.55151 129.3515 134.86996 139.66997 142.55165 148.0701 153.58859 156.47028 161.98877 167.50725 173.02571 175.42401 180.94249 183.82419 186.7059 189.1042 194.62268 200.14114 205.65962 208.05792 210.93964 214.29958 219.81804 225.3365 230.85498 236.37344 239.25516 242.13686 250.56 256.07846 258.96017 261.84189 265.20178 270.72028 273.60196 280.80029 286.31879 291.3588"
           style="font-size:10.07999992px;font-variant:normal;font-weight:normal;writing-mode:lr-tb;fill:#000000;fill-opacity:1;fill-rule:nonzero;stroke:none;font-family:Arial Black;-inkscape-font-specification:ArialMTFID6HGSet1">vous avez scanné : «2 cuisses de poulet label rouge, Maître Coc»</tspan><tspan
           id="tspan3112"
           sodipodi:role="line"
           y="0.2396"
           x="85.68 88.078308 93.596764 96.71846 102.23692"
           style="font-size:10.07999992px;font-variant:normal;font-weight:normal;writing-mode:lr-tb;fill:#000000;fill-opacity:1;fill-rule:nonzero;stroke:none;font-family:Arial Black;-inkscape-font-specification:ArialMTFID6HGSet1">infos</tspan><tspan
           id="tspan3114"
           sodipodi:role="line"
           y="48.959499"
           x="-9.9999997e-05 5.518363 11.03682 16.555283 18.95359"
           style="font-size:10.07999992px;font-variant:normal;font-weight:normal;writing-mode:lr-tb;fill:#000000;fill-opacity:1;fill-rule:nonzero;stroke:none;font-family:Arial Black;-inkscape-font-specification:ArialMTFID6HGSet1">paëla</tspan></text>
</g></g></svg>