<?xml version="1.0" encoding="UTF-8"?><svg xmlns="http://www.w3.org/2000/svg" xmlns:xlink="http://www.w3.org/1999/xlink" stroke-dasharray="none" shape-rendering="auto" font-family="'Dialog'" width="853" text-rendering="auto" fill-opacity="1" contentScriptType="text/ecmascript" color-interpolation="auto" color-rendering="auto" preserveAspectRatio="xMidYMid meet" font-size="12" viewBox="0 0 853 356" fill="black" stroke="black" image-rendering="auto" stroke-miterlimit="10" zoomAndPan="magnify" version="1.0" stroke-linecap="square" stroke-linejoin="miter" contentStyleType="text/css" font-style="normal" height="356" stroke-width="1" stroke-dashoffset="0" font-weight="normal" stroke-opacity="1">
<!--Generated by the Batik Graphics2D SVG Generator-->
<defs id="genericDefs"/>
<g>
<defs id="defs1">
<clipPath clipPathUnits="userSpaceOnUse" id="clipPath1">
<path d="M284 119 L544 119 L544 181 L284 181 L284 119 Z"/>
</clipPath>
<clipPath clipPathUnits="userSpaceOnUse" id="clipPath2">
<path d="M321 127 L507 127 L507 150 L321 150 L321 127 Z"/>
</clipPath>
<clipPath clipPathUnits="userSpaceOnUse" id="clipPath3">
<path d="M24 49 L268 49 L268 111 L24 111 L24 49 Z"/>
</clipPath>
<clipPath clipPathUnits="userSpaceOnUse" id="clipPath4">
<path d="M59 57 L233 57 L233 80 L59 80 L59 57 Z"/>
</clipPath>
<clipPath clipPathUnits="userSpaceOnUse" id="clipPath5">
<path d="M389 9 L640 9 L640 71 L389 71 L389 9 Z"/>
</clipPath>
<clipPath clipPathUnits="userSpaceOnUse" id="clipPath6">
<path d="M425 17 L604 17 L604 40 L425 40 L425 17 Z"/>
</clipPath>
<clipPath clipPathUnits="userSpaceOnUse" id="clipPath7">
<path d="M614 104 L844 104 L844 166 L614 166 L614 104 Z"/>
</clipPath>
<clipPath clipPathUnits="userSpaceOnUse" id="clipPath8">
<path d="M647 112 L811 112 L811 135 L647 135 L647 112 Z"/>
</clipPath>
<clipPath clipPathUnits="userSpaceOnUse" id="clipPath9">
<path d="M349 224 L617 224 L617 286 L349 286 L349 224 Z"/>
</clipPath>
<clipPath clipPathUnits="userSpaceOnUse" id="clipPath10">
<path d="M387 232 L579 232 L579 255 L387 255 L387 232 Z"/>
</clipPath>
<clipPath clipPathUnits="userSpaceOnUse" id="clipPath11">
<path d="M9 244 L91 244 L91 306 L9 306 L9 244 Z"/>
</clipPath>
<clipPath clipPathUnits="userSpaceOnUse" id="clipPath12">
<path d="M49 324 L91 324 L91 347 L49 347 L49 324 Z"/>
</clipPath>
<clipPath clipPathUnits="userSpaceOnUse" id="clipPath13">
<path d="M-1 -1 L854 -1 L854 357 L-1 357 L-1 -1 Z"/>
</clipPath>
<clipPath clipPathUnits="userSpaceOnUse" id="clipPath14">
<path d="M312 117 L330 117 L330 131 L312 131 L312 117 Z"/>
</clipPath>
<clipPath clipPathUnits="userSpaceOnUse" id="clipPath15">
<path d="M439 105 L456 105 L456 122 L439 122 L439 105 Z"/>
</clipPath>
<clipPath clipPathUnits="userSpaceOnUse" id="clipPath16">
<path d="M535 133 L552 133 L552 148 L535 148 L535 133 Z"/>
</clipPath>
<clipPath clipPathUnits="userSpaceOnUse" id="clipPath17">
<path d="M432 178 L448 178 L448 196 L432 196 L432 178 Z"/>
</clipPath>
</defs>
<g font-size="15" fill="white" font-family="'Cantarell'" stroke-linejoin="round" stroke="white" font-weight="bold" stroke-width="0" stroke-miterlimit="0">
<ellipse clip-path="url(#clipPath1)" rx="128" cx="413" ry="29" cy="149" stroke="none"/>
</g>
<g stroke-width="1.1" font-size="15" font-weight="bold" font-family="'Cantarell'" stroke-linecap="butt">
<ellipse clip-path="url(#clipPath1)" fill="none" rx="128.5" cx="413.5" ry="29.5" cy="149.5"/>
<text xml:space="preserve" x="322" y="144" clip-path="url(#clipPath2)" stroke="none">GérerRecettesConnectées</text>
<ellipse clip-path="url(#clipPath3)" fill="white" rx="120" cx="145" ry="29" cy="79" stroke="none"/>
<ellipse clip-path="url(#clipPath3)" fill="none" rx="120.5" cx="145.5" ry="29.5" cy="79.5"/>
<text x="60" y="74" clip-path="url(#clipPath4)" stroke="none" font-weight="normal" xml:space="preserve">AjouterRecetteConnectée</text>
<ellipse clip-path="url(#clipPath5)" fill="white" rx="123.5" cx="513.5" ry="29" cy="39" stroke="none"/>
<ellipse clip-path="url(#clipPath5)" fill="none" rx="124" cx="514" ry="29.5" cy="39.5"/>
<text x="426" y="34" clip-path="url(#clipPath6)" stroke="none" font-weight="normal" xml:space="preserve">ModifierRecetteConnectée</text>
<ellipse clip-path="url(#clipPath7)" fill="white" rx="113" cx="728" ry="29" cy="134" stroke="none"/>
<ellipse clip-path="url(#clipPath7)" fill="none" rx="113.5" cx="728.5" ry="29.5" cy="134.5"/>
<text x="648" y="129" clip-path="url(#clipPath8)" stroke="none" font-weight="normal" xml:space="preserve">NoterRecetteConnectée</text>
<ellipse clip-path="url(#clipPath9)" fill="white" rx="132" cx="482" ry="29" cy="254" stroke="none"/>
<ellipse clip-path="url(#clipPath9)" fill="none" rx="132.5" cx="482.5" ry="29.5" cy="254.5"/>
<text x="388" y="249" clip-path="url(#clipPath10)" stroke="none" font-weight="normal" xml:space="preserve">SupprimerRecetteConnectée</text>
<polygon fill="white" clip-path="url(#clipPath11)" points=" 50 265 50 271 67 271 67 273 50 273 50 287 67 304 67 305 65 305 49 289 33 305 31 305 31 304 48 287 48 273 31 273 31 271 48 271 48 265 50 265" stroke="none"/>
<circle clip-path="url(#clipPath11)" fill="white" r="9.5" cx="48.5" cy="254.5" stroke="none"/>
<polygon fill="none" clip-path="url(#clipPath11)" points=" 50 265 50 271 67 271 67 273 50 273 50 287 67 304 67 305 65 305 49 289 33 305 31 305 31 304 48 287 48 273 31 273 31 271 48 271 48 265 50 265"/>
<circle fill="none" r="10" clip-path="url(#clipPath11)" cx="49" cy="255"/>
<text x="50" y="341" clip-path="url(#clipPath12)" stroke="none" font-weight="normal" xml:space="preserve">Client</text>
<line clip-path="url(#clipPath13)" fill="none" text-rendering="optimizeLegibility" x1="341" x2="90" y1="174" y2="261"/>
<line clip-path="url(#clipPath13)" fill="none" text-rendering="optimizeLegibility" x1="229" x2="328" y1="101" y2="127"/>
</g>
<g font-size="15" stroke-linecap="butt" fill="white" text-rendering="optimizeLegibility" font-family="'Cantarell'" stroke="white" stroke-width="1.1">
<polygon clip-path="url(#clipPath14)" points=" 328 127 313 129 316 118 328 127" stroke="none"/>
<polygon fill="none" clip-path="url(#clipPath14)" points=" 328 127 313 129 316 118 328 127" stroke="black"/>
<line clip-path="url(#clipPath13)" fill="none" x1="487" x2="440" y1="69" y2="120" stroke="black"/>
<polygon clip-path="url(#clipPath15)" points=" 440 120 445 106 454 114 440 120" stroke="none"/>
<polygon fill="none" clip-path="url(#clipPath15)" points=" 440 120 445 106 454 114 440 120" stroke="black"/>
<line clip-path="url(#clipPath13)" fill="none" x1="616" x2="536" y1="140" y2="140" stroke="black"/>
<polygon clip-path="url(#clipPath16)" points=" 536 140 550 134 550 146 536 140" stroke="none"/>
<polygon fill="none" clip-path="url(#clipPath16)" points=" 536 140 550 134 550 146 536 140" stroke="black"/>
<line clip-path="url(#clipPath13)" fill="none" x1="463" x2="433" y1="225" y2="179" stroke="black"/>
<polygon clip-path="url(#clipPath17)" points=" 433 179 446 187 436 194 433 179" stroke="none"/>
<polygon fill="none" clip-path="url(#clipPath17)" points=" 433 179 446 187 436 194 433 179" stroke="black"/>
</g>
</g>
</svg>
