<?xml version="1.0" encoding="UTF-8" standalone="no"?>
<!-- Created with Inkscape (http://www.inkscape.org/) -->

<svg
   xmlns:dc="http://purl.org/dc/elements/1.1/"
   xmlns:cc="http://creativecommons.org/ns#"
   xmlns:rdf="http://www.w3.org/1999/02/22-rdf-syntax-ns#"
   xmlns:svg="http://www.w3.org/2000/svg"
   xmlns="http://www.w3.org/2000/svg"
   version="1.1"
   width="767.26514"
   height="310.97006"
   id="svg3039"
   xml:space="preserve"><metadata
     id="metadata3045"><rdf:RDF><cc:Work
         rdf:about=""><dc:format>image/svg+xml</dc:format><dc:type
           rdf:resource="http://purl.org/dc/dcmitype/StillImage" /><dc:title></dc:title></cc:Work></rdf:RDF></metadata><defs
     id="defs3043"><clipPath
       id="clipPath3053"><path
         d="m 284,119 0,62 260,0 0,-62 -260,0 z"
         id="path3055" /></clipPath><clipPath
       id="clipPath3063"><path
         d="m 284,119 0,62 260,0 0,-62 -260,0 z"
         id="path3065" /></clipPath><clipPath
       id="clipPath3073"><path
         d="m 321,127 0,23 186,0 0,-23 -186,0 z"
         id="path3075" /></clipPath><clipPath
       id="clipPath3083"><path
         d="m 24,49 0,62 244,0 0,-62 -244,0 z"
         id="path3085" /></clipPath><clipPath
       id="clipPath3093"><path
         d="m 24,49 0,62 244,0 0,-62 -244,0 z"
         id="path3095" /></clipPath><clipPath
       id="clipPath3103"><path
         d="m 59,57 0,23 174,0 0,-23 -174,0 z"
         id="path3105" /></clipPath><clipPath
       id="clipPath3113"><path
         d="m 389,9 0,62 251,0 0,-62 -251,0 z"
         id="path3115" /></clipPath><clipPath
       id="clipPath3123"><path
         d="m 389,9 0,62 251,0 0,-62 -251,0 z"
         id="path3125" /></clipPath><clipPath
       id="clipPath3133"><path
         d="m 425,17 0,23 179,0 0,-23 -179,0 z"
         id="path3135" /></clipPath><clipPath
       id="clipPath3143"><path
         d="m 614,104 0,62 230,0 0,-62 -230,0 z"
         id="path3145" /></clipPath><clipPath
       id="clipPath3153"><path
         d="m 614,104 0,62 230,0 0,-62 -230,0 z"
         id="path3155" /></clipPath><clipPath
       id="clipPath3163"><path
         d="m 647,112 0,23 164,0 0,-23 -164,0 z"
         id="path3165" /></clipPath><clipPath
       id="clipPath3173"><path
         d="m 349,224 0,62 268,0 0,-62 -268,0 z"
         id="path3175" /></clipPath><clipPath
       id="clipPath3183"><path
         d="m 349,224 0,62 268,0 0,-62 -268,0 z"
         id="path3185" /></clipPath><clipPath
       id="clipPath3193"><path
         d="m 387,232 0,23 192,0 0,-23 -192,0 z"
         id="path3195" /></clipPath><clipPath
       id="clipPath3203"><path
         d="m 9,244 0,62 82,0 0,-62 -82,0 z"
         id="path3205" /></clipPath><clipPath
       id="clipPath3213"><path
         d="m 9,244 0,62 82,0 0,-62 -82,0 z"
         id="path3215" /></clipPath><clipPath
       id="clipPath3223"><path
         d="m 9,244 0,62 82,0 0,-62 -82,0 z"
         id="path3225" /></clipPath><clipPath
       id="clipPath3233"><path
         d="m 9,244 0,62 82,0 0,-62 -82,0 z"
         id="path3235" /></clipPath><clipPath
       id="clipPath3243"><path
         d="m 49,324 0,23 42,0 0,-23 -42,0 z"
         id="path3245" /></clipPath><clipPath
       id="clipPath3253"><path
         d="M 0,0 0,356 853,356 853,0 0,0 z"
         id="path3255" /></clipPath><clipPath
       id="clipPath3263"><path
         d="M 0,0 0,356 853,356 853,0 0,0 z"
         id="path3265" /></clipPath><clipPath
       id="clipPath3273"><path
         d="m 312,117 0,14 18,0 0,-14 -18,0 z"
         id="path3275" /></clipPath><clipPath
       id="clipPath3283"><path
         d="m 312,117 0,14 18,0 0,-14 -18,0 z"
         id="path3285" /></clipPath><clipPath
       id="clipPath3293"><path
         d="M 0,0 0,356 853,356 853,0 0,0 z"
         id="path3295" /></clipPath><clipPath
       id="clipPath3303"><path
         d="m 439,105 0,17 17,0 0,-17 -17,0 z"
         id="path3305" /></clipPath><clipPath
       id="clipPath3313"><path
         d="m 439,105 0,17 17,0 0,-17 -17,0 z"
         id="path3315" /></clipPath><clipPath
       id="clipPath3323"><path
         d="M 0,0 0,356 853,356 853,0 0,0 z"
         id="path3325" /></clipPath><clipPath
       id="clipPath3333"><path
         d="m 535,133 0,15 17,0 0,-15 -17,0 z"
         id="path3335" /></clipPath><clipPath
       id="clipPath3343"><path
         d="m 535,133 0,15 17,0 0,-15 -17,0 z"
         id="path3345" /></clipPath><clipPath
       id="clipPath3353"><path
         d="M 0,0 0,356 853,356 853,0 0,0 z"
         id="path3355" /></clipPath><clipPath
       id="clipPath3363"><path
         d="m 432,178 0,18 16,0 0,-18 -16,0 z"
         id="path3365" /></clipPath><clipPath
       id="clipPath3373"><path
         d="m 432,178 0,18 16,0 0,-18 -16,0 z"
         id="path3375" /></clipPath></defs><g
     transform="matrix(0.9378625,0,0,0.9375,-22.930838,-8.8592753)"
     id="g3047"><g
       id="g3049"><g
         clip-path="url(#clipPath3053)"
         id="g3051"><path
           d="m 541,149 c 0,16.0162 -57.3076,29 -128,29 -70.6925,0 -128,-12.9838 -128,-29 0,-16.0163 57.3075,-29 128,-29 70.6924,0 128,12.9837 128,29 z"
           id="path3057"
           style="fill:#ffffff;fill-opacity:1;fill-rule:nonzero;stroke:none" /></g></g><g
       id="g3059"><g
         clip-path="url(#clipPath3063)"
         id="g3061"><path
           d="M 542,149.5 C 542,165.7924 484.4685,179 413.5,179 342.5314,179 285,165.7924 285,149.5 285,133.2075 342.5314,120 413.5,120 484.4685,120 542,133.2075 542,149.5 z"
           id="path3067"
           style="fill:none;stroke:#000000;stroke-width:1.10000002;stroke-linecap:butt;stroke-linejoin:miter;stroke-miterlimit:10;stroke-opacity:1;stroke-dasharray:none" /></g></g><g
       id="g3069"><g
         clip-path="url(#clipPath3073)"
         id="g3071"><path
           d="m 332.5468,142.4863 0,-4.2774 -4.7412,0 0,1.6211 2.9248,0 0,1.9971 c -0.4492,0.3564 -1.1084,0.6152 -1.9824,0.6152 -2.2461,0 -3.8672,-1.5478 -3.8672,-3.706 0,-2.2217 1.7676,-3.5254 3.6279,-3.5254 1.0499,0 2.0557,0.376 2.627,0.6738 l 0.2686,0.1514 0.7666,-1.4551 -0.254,-0.1514 c -0.8886,-0.4931 -2.0849,-0.9131 -3.4814,-0.9131 -3.4961,0 -5.415,2.5635 -5.415,5.293 0,2.5635 1.7089,5.3418 5.4443,5.3418 2.5049,0 3.6914,-1.2451 4.082,-1.665 z m 6.7942,-9.961 -3.6768,2.7588 1.1279,1.2012 3.6133,-2.7002 -1.0644,-1.2598 z m 1.2451,9.751 c 0,0 -1.2158,0.2539 -2.1631,0.2539 -1.709,0 -2.3242,-0.6445 -2.4902,-1.289 l 5.1904,0 0,-0.9327 c 0,-1.5283 -0.9131,-3.6865 -3.2813,-3.6865 -2.1777,0 -3.8427,1.1963 -3.8427,3.9746 0,1.6797 0.8252,3.5401 3.9599,3.5401 0.9619,0 1.6065,-0.0635 2.3877,-0.2588 l 0.2393,-0.0586 0,-1.543 z m -2.8809,-4.0967 c 0.8692,0 1.6211,0.5567 1.6211,1.8018 l -3.374,0 c 0,-0.9033 0.5225,-1.8018 1.7529,-1.8018 z m 6.4487,-1.0351 -0.21,-0.376 -1.2012,0 0,7.2315 1.8018,0 0,-5.4004 c 0.5127,-0.2247 1.0937,-0.3467 1.665,-0.3467 0.4053,0 0.752,0.0635 1.0938,0.1953 l 0.2881,0.1074 0.5664,-1.499 -0.2539,-0.1221 c -0.4786,-0.2246 -0.9913,-0.3125 -1.4991,-0.3125 -0.8398,0 -1.6211,0.21 -2.2509,0.5225 z m 11.3422,5.1318 c 0,0 -1.2158,0.2539 -2.1631,0.2539 -1.709,0 -2.3242,-0.6445 -2.4902,-1.289 l 5.1904,0 0,-0.9327 c 0,-1.5283 -0.9131,-3.6865 -3.2813,-3.6865 -2.1777,0 -3.8427,1.1963 -3.8427,3.9746 0,1.6797 0.8252,3.5401 3.9599,3.5401 0.962,0 1.6065,-0.0635 2.3877,-0.2588 l 0.2393,-0.0586 0,-1.543 z m -2.8809,-4.0967 c 0.8692,0 1.6211,0.5567 1.6211,1.8018 l -3.374,0 c 0,-0.9033 0.5225,-1.8018 1.7529,-1.8018 z m 6.4037,-1.0351 -0.21,-0.376 -1.2011,0 0,7.2315 1.8017,0 0,-5.4004 c 0.5127,-0.2247 1.0938,-0.3467 1.6651,-0.3467 0.4052,0 0.7519,0.0635 1.0937,0.1953 l 0.2881,0.1074 0.5664,-1.499 -0.2539,-0.1221 c -0.4785,-0.2246 -0.9912,-0.3125 -1.499,-0.3125 -0.8399,0 -1.6211,0.21 -2.251,0.5225 z m 13.0952,-0.5713 c 0,-2.7881 -2.3243,-2.9834 -3.462,-2.9834 l -4.1552,0 0,10.4102 1.8408,0 0,-4.0333 1.5771,0 2.627,4.0333 2.3975,0 -3.0762,-4.3506 c 1.665,-0.5079 2.251,-1.8018 2.251,-3.0762 z m -5.7764,-1.2891 1.831,0 c 1.3526,0 2.0264,0.4785 2.0264,1.4551 0,1.3525 -1.1572,1.5283 -2.3389,1.5283 l -1.5185,0 0,-2.9834 z m 14.4184,6.9922 c 0,0 -1.2158,0.2539 -2.163,0.2539 -1.709,0 -2.3243,-0.6445 -2.4903,-1.289 l 5.1904,0 0,-0.9327 c 0,-1.5283 -0.913,-3.6865 -3.2812,-3.6865 -2.1777,0 -3.8428,1.1963 -3.8428,3.9746 0,1.6797 0.8252,3.5401 3.96,3.5401 0.9619,0 1.6064,-0.0635 2.3877,-0.2588 l 0.2392,-0.0586 0,-1.543 z m -2.8808,-4.0967 c 0.8691,0 1.6211,0.5567 1.6211,1.8018 l -3.3741,0 c 0,-0.9033 0.5225,-1.8018 1.753,-1.8018 z m 4.7239,2.3535 c 0,2.8223 2.0411,3.6182 3.8868,3.6182 0.6738,0 1.4697,-0.1221 2.2802,-0.4346 l 0.2686,-0.0927 -0.4932,-1.3916 -0.2881,0.1025 c -0.4052,0.1514 -0.8398,0.2246 -1.3183,0.2246 -1.5283,0 -2.5635,-0.6299 -2.5635,-2.251 0,-1.6357 1.2109,-2.041 2.4268,-2.041 0.5566,0 1.0644,0.0928 1.5478,0.2588 l 0.2832,0.1026 0.4785,-1.4405 -0.2685,-0.1025 c -0.6738,-0.3028 -1.3965,-0.4492 -2.2022,-0.4492 -1.9824,0 -4.0381,0.957 -4.0381,3.8964 z m 14.357,1.7432 c 0,0 -1.2158,0.2539 -2.1631,0.2539 -1.709,0 -2.3242,-0.6445 -2.4902,-1.289 l 5.1904,0 0,-0.9327 c 0,-1.5283 -0.9131,-3.6865 -3.2812,-3.6865 -2.1778,0 -3.8428,1.1963 -3.8428,3.9746 0,1.6797 0.8252,3.5401 3.9599,3.5401 0.962,0 1.6065,-0.0635 2.3877,-0.2588 l 0.2393,-0.0586 0,-1.543 z m -2.8809,-4.0967 c 0.8692,0 1.6211,0.5567 1.6211,1.8018 l -3.374,0 c 0,-0.9033 0.5225,-1.8018 1.7529,-1.8018 z m 9.9291,5.6836 0.2881,-0.0732 -0.2881,-1.3819 -0.2832,0.0489 c -0.7813,0.1318 -0.8838,0.1465 -1.0791,0.1465 -0.9912,0 -1.2158,-0.6153 -1.2158,-1.0498 l 0,-3.2373 2.5341,0 0,-1.5479 -2.5341,0 0,-2.085 -1.8018,0 0,2.085 -1.123,0 0,1.5479 1.123,0 0,3.3593 c 0,1.2744 0.3174,2.4756 2.6123,2.4756 0.3906,0 0.9131,-0.0635 1.7676,-0.2881 z m 6.48,0 0.2881,-0.0732 -0.2881,-1.3819 -0.2832,0.0489 c -0.7813,0.1318 -0.8838,0.1465 -1.0791,0.1465 -0.9912,0 -1.2158,-0.6153 -1.2158,-1.0498 l 0,-3.2373 2.5341,0 0,-1.5479 -2.5341,0 0,-2.085 -1.8018,0 0,2.085 -1.1231,0 0,1.5479 1.1231,0 0,3.3593 c 0,1.2744 0.3174,2.4756 2.6123,2.4756 0.3906,0 0.9131,-0.0635 1.7676,-0.2881 z m 7.8618,-1.5869 c 0,0 -1.2158,0.2539 -2.1631,0.2539 -1.709,0 -2.3242,-0.6445 -2.4902,-1.289 l 5.1904,0 0,-0.9327 c 0,-1.5283 -0.9131,-3.6865 -3.2812,-3.6865 -2.1778,0 -3.8428,1.1963 -3.8428,3.9746 0,1.6797 0.8252,3.5401 3.9599,3.5401 0.962,0 1.6065,-0.0635 2.3877,-0.2588 l 0.2393,-0.0586 0,-1.543 z m -2.8809,-4.0967 c 0.8692,0 1.6211,0.5567 1.6211,1.8018 l -3.374,0 c 0,-0.9033 0.5225,-1.8018 1.7529,-1.8018 z m 9.3725,3.6621 c 0,0.5079 -0.4932,0.7618 -1.6309,0.7618 -0.6299,0 -1.2304,-0.1319 -2.1924,-0.4932 l -0.2685,-0.1074 -0.5567,1.4551 0.2881,0.122 c 1.0938,0.4492 2.0362,0.5713 2.6807,0.5713 2.9443,0 3.6182,-1.3525 3.6182,-2.2949 0.0293,-2.2363 -4.4092,-2.1338 -4.4092,-2.9541 0,-0.1807 0.1611,-0.7373 1.6162,-0.7373 0.7666,0 1.2451,0.1221 1.7285,0.2539 l 0.2832,0.0781 0.4932,-1.4697 -0.2979,-0.0928 c -0.5078,-0.1514 -0.9619,-0.3125 -1.997,-0.3125 -2.9248,0 -3.7354,1.377 -3.7354,2.2608 0,2.373 4.3213,2.041 4.3799,2.9589 z m 9.3785,-8.3252 c -3.374,0 -5.5371,2.295 -5.5371,5.293 0,2.9541 2.0703,5.3418 5.4444,5.3418 0.9619,0 2.0849,-0.2246 3.1836,-0.6933 l 0.2685,-0.1026 -0.6006,-1.4697 -0.2685,0.0879 c -0.8106,0.2881 -1.5918,0.4345 -2.2657,0.4345 -2.4316,0 -3.9013,-1.6796 -3.9013,-3.6132 0,-1.875 1.3818,-3.5694 3.6328,-3.5694 0.4785,0 1.2256,0.0586 2.3975,0.4639 l 0.2832,0.1074 0.5712,-1.5918 -0.2685,-0.1074 c -1.0938,-0.4346 -2.1289,-0.5811 -2.9395,-0.5811 z m 8.2791,3.1055 c -2.3242,0 -3.916,1.4844 -3.916,3.8379 0,2.3096 1.6064,3.6914 3.7939,3.6914 2.2949,0 3.9307,-1.4844 3.9307,-3.9014 0,-2.3388 -1.6797,-3.6279 -3.8086,-3.6279 z m -0.1074,1.6309 c 1.0058,0 2.1484,0.7226 2.1484,2.207 0,1.2598 -0.918,2.0557 -2.0264,2.0557 -1.289,0 -2.1435,-1.0059 -2.1435,-2.251 0,-1.3623 1.0498,-2.0117 2.0215,-2.0117 z m 5.5995,-1.4844 0,7.2315 1.7968,0 0,-5.293 c 0.3907,-0.166 1.0645,-0.4053 1.709,-0.4053 1.3526,0 1.3965,0.9424 1.3965,1.4551 l 0,4.2432 1.8164,0 0,-4.2774 c 0,-1.4697 -0.3467,-3.1006 -2.6709,-3.1006 -0.5859,0 -1.4404,0.1319 -2.5488,0.6445 l -0.2393,-0.498 -1.2597,0 z m 8.685,0 0,7.2315 1.7969,0 0,-5.293 c 0.3906,-0.166 1.0644,-0.4053 1.709,-0.4053 1.3525,0 1.3964,0.9424 1.3964,1.4551 l 0,4.2432 1.8165,0 0,-4.2774 c 0,-1.4697 -0.3467,-3.1006 -2.6709,-3.1006 -0.586,0 -1.4405,0.1319 -2.5489,0.6445 l -0.2392,-0.498 -1.2598,0 z m 14.9838,5.5078 c 0,0 -1.2158,0.2539 -2.1631,0.2539 -1.7089,0 -2.3242,-0.6445 -2.4902,-1.289 l 5.1904,0 0,-0.9327 c 0,-1.5283 -0.913,-3.6865 -3.2812,-3.6865 -2.1777,0 -3.8428,1.1963 -3.8428,3.9746 0,1.6797 0.8252,3.5401 3.96,3.5401 0.9619,0 1.6064,-0.0635 2.3877,-0.2588 l 0.2392,-0.0586 0,-1.543 z m -2.8808,-4.0967 c 0.8691,0 1.6211,0.5567 1.6211,1.8018 l -3.3741,0 c 0,-0.9033 0.5225,-1.8018 1.753,-1.8018 z m 4.7239,2.3535 c 0,2.8223 2.0411,3.6182 3.8868,3.6182 0.6738,0 1.4697,-0.1221 2.2802,-0.4346 l 0.2686,-0.0927 -0.4932,-1.3916 -0.2881,0.1025 c -0.4052,0.1514 -0.8398,0.2246 -1.3183,0.2246 -1.5283,0 -2.5635,-0.6299 -2.5635,-2.251 0,-1.6357 1.2109,-2.041 2.4268,-2.041 0.5566,0 1.0644,0.0928 1.5478,0.2588 l 0.2832,0.1026 0.4785,-1.4405 -0.2685,-0.1025 c -0.6739,-0.3028 -1.3965,-0.4492 -2.2022,-0.4492 -1.9824,0 -4.0381,0.957 -4.0381,3.8964 z m 12.9751,3.3301 0.2881,-0.0732 -0.2881,-1.3819 -0.2832,0.0489 c -0.7812,0.1318 -0.8838,0.1465 -1.0791,0.1465 -0.9912,0 -1.2158,-0.6153 -1.2158,-1.0498 l 0,-3.2373 2.5342,0 0,-1.5479 -2.5342,0 0,-2.085 -1.8018,0 0,2.085 -1.123,0 0,1.5479 1.123,0 0,3.3593 c 0,1.2744 0.3174,2.4756 2.6123,2.4756 0.3907,0 0.9131,-0.0635 1.7676,-0.2881 z m 6.6168,-11.3379 -3.6768,2.7588 1.1279,1.2012 3.6133,-2.7002 -1.0644,-1.2598 z m 1.2451,9.751 c 0,0 -1.2158,0.2539 -2.1631,0.2539 -1.709,0 -2.3242,-0.6445 -2.4902,-1.289 l 5.1904,0 0,-0.9327 c 0,-1.5283 -0.9131,-3.6865 -3.2813,-3.6865 -2.1777,0 -3.8427,1.1963 -3.8427,3.9746 0,1.6797 0.8252,3.5401 3.9599,3.5401 0.9619,0 1.6065,-0.0635 2.3877,-0.2588 l 0.2393,-0.0586 0,-1.543 z m -2.8809,-4.0967 c 0.8692,0 1.6211,0.5567 1.6211,1.8018 l -3.374,0 c 0,-0.9033 0.5225,-1.8018 1.7529,-1.8018 z m 11.3559,4.0967 c 0,0 -1.2158,0.2539 -2.1631,0.2539 -1.709,0 -2.3242,-0.6445 -2.4902,-1.289 l 5.1904,0 0,-0.9327 c 0,-1.5283 -0.9131,-3.6865 -3.2812,-3.6865 -2.1778,0 -3.8428,1.1963 -3.8428,3.9746 0,1.6797 0.8252,3.5401 3.96,3.5401 0.9619,0 1.6064,-0.0635 2.3877,-0.2588 l 0.2392,-0.0586 0,-1.543 z m -2.8808,-4.0967 c 0.8691,0 1.6211,0.5567 1.6211,1.8018 l -3.3741,0 c 0,-0.9033 0.5225,-1.8018 1.753,-1.8018 z m 9.3723,3.6621 c 0,0.5079 -0.4931,0.7618 -1.6308,0.7618 -0.6299,0 -1.2305,-0.1319 -2.1924,-0.4932 l -0.2686,-0.1074 -0.5566,1.4551 0.2881,0.122 c 1.0937,0.4492 2.0361,0.5713 2.6806,0.5713 2.9444,0 3.6182,-1.3525 3.6182,-2.2949 0.0293,-2.2363 -4.4092,-2.1338 -4.4092,-2.9541 0,-0.1807 0.1612,-0.7373 1.6162,-0.7373 0.7666,0 1.2452,0.1221 1.7286,0.2539 l 0.2832,0.0781 0.4931,-1.4697 -0.2978,-0.0928 c -0.5078,-0.1514 -0.9619,-0.3125 -1.9971,-0.3125 -2.9248,0 -3.7354,1.377 -3.7354,2.2608 0,2.373 4.3213,2.041 4.3799,2.9589 z"
           id="path3077"
           style="fill:#000000;fill-opacity:1;fill-rule:nonzero;stroke:none" /></g></g><g
       id="g3079"><g
         clip-path="url(#clipPath3083)"
         id="g3081"><path
           d="m 265,79 c 0,16.0162 -53.7259,29 -120,29 C 78.7258,108 25,95.0162 25,79 25,62.9837 78.7258,50 145,50 c 66.2741,0 120,12.9837 120,29 z"
           id="path3087"
           style="fill:#ffffff;fill-opacity:1;fill-rule:nonzero;stroke:none" /></g></g><g
       id="g3089"><g
         clip-path="url(#clipPath3093)"
         id="g3091"><path
           d="M 266,79.5 C 266,95.7924 212.0503,109 145.5,109 78.9496,109 25,95.7924 25,79.5 25,63.2075 78.9496,50 145.5,50 212.0503,50 266,63.2075 266,79.5 z"
           id="path3097"
           style="fill:none;stroke:#000000;stroke-width:1.10000002;stroke-linecap:butt;stroke-linejoin:miter;stroke-miterlimit:10;stroke-opacity:1;stroke-dasharray:none" /></g></g><g
       id="g3099"><g
         clip-path="url(#clipPath3103)"
         id="g3101"><path
           d="M 64.1552,63.5898 60.4492,74 l 1.1572,0 1.0498,-3.0323 4.3018,0 1.0498,3.0323 1.2597,0 -3.7011,-10.4102 -1.4112,0 z m 0.6592,1.2158 1.7578,5.083 -3.54,0 1.7822,-5.083 z m 6.1653,10.3662 c 0,0.8838 -0.3906,1.4844 -1.2011,1.8604 l 0.4492,0.9131 c 0.6933,-0.2393 1.2939,-0.6299 1.5918,-1.2452 0.2832,-0.5419 0.3613,-0.7177 0.3613,-1.7382 l -0.0293,-8.1934 -1.2012,0 0.0147,8.252 0,0.0439 c 0.0146,0.0439 0.0146,0.0732 0.0146,0.1074 z m -0.0439,-11.206 0,1.2451 1.2305,0 0,-1.2451 -1.2305,0 z m 6.5091,3.6425 c 1.4697,0 2.2363,1.2598 2.2363,2.793 0,1.5576 -0.7666,2.7735 -2.2363,2.7735 -1.4697,0 -2.2363,-1.2452 -2.2363,-2.7735 0,-1.5185 0.7666,-2.793 2.2363,-2.793 z m -0.0293,6.543 c 2.2021,0 3.5107,-1.499 3.5107,-3.7646 0,-2.251 -1.2451,-3.7354 -3.4668,-3.7354 -2.2216,0 -3.4961,1.499 -3.4961,3.75 0,2.2656 1.2305,3.75 3.4522,3.75 z m 6.5087,-2.7441 0,-4.6094 -1.2159,0 0,4.9072 c 0,1.543 0.8252,2.4756 2.3584,2.4756 0.7617,0 1.6309,-0.2392 2.5489,-0.7226 l 0.2392,0.542 0.8545,0 0,-7.2022 -1.2305,0 0,5.8203 c -0.7324,0.3467 -1.4111,0.5274 -1.9775,0.5274 -1.1865,0 -1.5771,-0.542 -1.5771,-1.7383 z m 9.299,2.7295 c 0.5127,0 1.0351,-0.0928 1.5918,-0.2735 l 0,-0.9131 c -0.3906,0.1026 -0.7959,0.1661 -1.2305,0.1661 -0.9277,0 -1.1719,-0.4834 -1.1719,-1.4551 l 0,-3.8867 2.4024,0 0,-1.0205 -2.4024,0 0,-1.8604 -1.2109,0.0635 0,1.7969 -1.2158,0 0,1.0205 1.2158,0 0,3.9746 c 0,1.5332 0.5078,2.3877 2.0215,2.3877 z m 6.3616,-7.4854 c -1.0498,0 -1.8603,0.376 -2.4462,1.1231 -0.5518,0.7519 -0.8399,1.6504 -0.8399,2.7295 0,2.3388 1.2744,3.6328 3.6475,3.6328 0.8105,0 1.5869,-0.1367 2.3242,-0.3907 l 0,-0.9765 c -0.7031,0.2246 -1.3672,0.332 -1.9971,0.332 -0.9131,0 -1.5869,-0.2099 -2.0068,-0.6592 -0.4199,-0.4541 -0.6592,-1.0205 -0.708,-1.7138 l 4.9218,0 0.0733,-0.1172 0,-0.6592 c 0,-2.0703 -1.0645,-3.3008 -2.9688,-3.3008 z m 1.7383,3.1348 -3.7353,0 c 0.1367,-1.1572 0.7519,-2.1631 2.1045,-2.1631 1.123,0 1.6308,0.9912 1.6308,2.1631 z m 6.4046,-3.1348 c -0.7031,0 -1.3623,0.2393 -2.0068,0.7324 l -0.2393,-0.6005 -0.9033,0 0,7.2168 1.2451,0 0,-5.7471 c 0.5274,-0.3418 1.0645,-0.5225 1.6504,-0.5225 0.3613,0 0.7227,0.0879 1.0938,0.2393 l 0.1513,0 0,-1.1865 c -0.3125,-0.0879 -0.6445,-0.1319 -0.9912,-0.1319 z m 9.615,-0.2246 c 0,-0.874 -0.2685,-1.5771 -0.7617,-2.0996 -0.5566,-0.5713 -1.1865,-0.7373 -2.2949,-0.7373 l -3.8135,0 0,10.4102 1.2451,0 0,-4.336 1.0987,0 c 0.4638,0 0.7617,-0.0146 0.913,-0.0146 l 2.8223,4.3506 1.3916,0 -2.9394,-4.4678 c 1.4404,-0.3028 2.3388,-1.4258 2.3388,-3.1055 z m -5.625,2.1436 0,-3.8868 1.9092,0 c 0.4639,0 0.791,0.0293 1.0156,0.0782 0.8594,0.1806 1.4551,0.8398 1.4551,1.875 0,0.2685 -0.0586,0.5517 -0.1758,0.8252 -0.2881,0.6445 -0.8545,1.0009 -1.7138,1.0791 -0.1612,0.0146 -0.5664,0.0293 -1.2452,0.0293 l -1.2451,0 z m 11.0872,-1.919 c -1.0498,0 -1.8604,0.376 -2.4463,1.1231 -0.5518,0.7519 -0.8398,1.6504 -0.8398,2.7295 0,2.3388 1.2744,3.6328 3.6474,3.6328 0.8106,0 1.5869,-0.1367 2.3242,-0.3907 l 0,-0.9765 c -0.7031,0.2246 -1.3671,0.332 -1.997,0.332 -0.9131,0 -1.5869,-0.2099 -2.0069,-0.6592 -0.4199,-0.4541 -0.6591,-1.0205 -0.708,-1.7138 l 4.9219,0 0.0732,-0.1172 0,-0.6592 c 0,-2.0703 -1.0644,-3.3008 -2.9687,-3.3008 z m 1.7383,3.1348 -3.7354,0 c 0.1367,-1.1572 0.752,-2.1631 2.1045,-2.1631 1.1231,0 1.6309,0.9912 1.6309,2.1631 z m 6.2141,4.3799 c 0.0147,0 0.044,0 0.0586,-0.0147 0.6299,0 1.2744,-0.1367 1.9629,-0.4053 l -0.2832,-0.8252 c -0.4639,0.1661 -0.8984,0.254 -1.3037,0.254 -0.1221,0 -0.2441,-0.0147 -0.3467,-0.0293 -1.5918,-0.1807 -2.3389,-1.0791 -2.3389,-2.8516 0,-1.6943 0.8399,-2.6367 2.5635,-2.6367 0.4346,0 0.9473,0.0879 1.499,0.2832 l 0.3028,-0.8692 c -0.6592,-0.288 -1.2744,-0.4345 -1.8604,-0.4345 -1.2597,0 -2.1924,0.3564 -2.8076,1.0937 -0.5859,0.7031 -0.8838,1.6358 -0.8838,2.7881 0,2.2803 1.2012,3.6475 3.4375,3.6475 z m 6.8976,-7.5147 c -1.0498,0 -1.8603,0.376 -2.4463,1.1231 -0.5517,0.7519 -0.8398,1.6504 -0.8398,2.7295 0,2.3388 1.2744,3.6328 3.6474,3.6328 0.8106,0 1.587,-0.1367 2.3243,-0.3907 l 0,-0.9765 c -0.7032,0.2246 -1.3672,0.332 -1.9971,0.332 -0.9131,0 -1.5869,-0.2099 -2.0069,-0.6592 -0.4199,-0.4541 -0.6591,-1.0205 -0.708,-1.7138 l 4.9219,0 0.0733,-0.1172 0,-0.6592 c 0,-2.0703 -1.0645,-3.3008 -2.9688,-3.3008 z m 1.7383,3.1348 -3.7354,0 c 0.1368,-1.1572 0.752,-2.1631 2.1045,-2.1631 1.1231,0 1.6309,0.9912 1.6309,2.1631 z m 5.5501,4.3506 c 0.5127,0 1.0352,-0.0928 1.5918,-0.2735 l 0,-0.9131 c -0.3906,0.1026 -0.7959,0.1661 -1.2305,0.1661 -0.9277,0 -1.1718,-0.4834 -1.1718,-1.4551 l 0,-3.8867 2.4023,0 0,-1.0205 -2.4023,0 0,-1.8604 -1.211,0.0635 0,1.7969 -1.2158,0 0,1.0205 1.2158,0 0,3.9746 c 0,1.5332 0.5078,2.3877 2.0215,2.3877 z m 5.805,0 c 0.5127,0 1.0352,-0.0928 1.5918,-0.2735 l 0,-0.9131 c -0.3906,0.1026 -0.7959,0.1661 -1.2305,0.1661 -0.9277,0 -1.1718,-0.4834 -1.1718,-1.4551 l 0,-3.8867 2.4023,0 0,-1.0205 -2.4023,0 0,-1.8604 -1.211,0.0635 0,1.7969 -1.2158,0 0,1.0205 1.2158,0 0,3.9746 c 0,1.5332 0.5078,2.3877 2.0215,2.3877 z m 6.3617,-7.4854 c -1.0498,0 -1.8604,0.376 -2.4463,1.1231 -0.5518,0.7519 -0.8399,1.6504 -0.8399,2.7295 0,2.3388 1.2744,3.6328 3.6475,3.6328 0.8105,0 1.5869,-0.1367 2.3242,-0.3907 l 0,-0.9765 c -0.7031,0.2246 -1.3672,0.332 -1.9971,0.332 -0.9131,0 -1.5869,-0.2099 -2.0068,-0.6592 -0.4199,-0.4541 -0.6592,-1.0205 -0.708,-1.7138 l 4.9219,0 0.0732,-0.1172 0,-0.6592 c 0,-2.0703 -1.0644,-3.3008 -2.9687,-3.3008 z m 1.7382,3.1348 -3.7353,0 c 0.1367,-1.1572 0.7519,-2.1631 2.1045,-2.1631 1.123,0 1.6308,0.9912 1.6308,2.1631 z m 11.3998,-4.7412 0.3466,-1.0352 c -0.9912,-0.3613 -1.7675,-0.542 -3.1347,-0.542 -1.5137,0 -2.8516,0.6787 -3.6426,1.5039 -0.8252,0.8545 -1.4551,2.2022 -1.4551,3.8233 0,1.5918 0.4785,2.8662 1.4209,3.872 0.8399,0.8692 2.1485,1.4844 3.8135,1.4844 1.167,0 2.2168,-0.2099 3.1348,-0.6299 l -0.3174,-0.9912 c -0.8106,0.3321 -1.6358,0.4932 -2.4463,0.4932 -0.8203,0 -1.543,-0.1611 -2.1875,-0.5225 -1.1719,-0.6738 -1.9971,-1.9531 -1.9971,-3.7207 0,-1.2158 0.3613,-2.1924 1.0986,-2.9834 0.5811,-0.6445 1.6358,-1.2011 2.8028,-1.2011 1.1865,0 1.6211,0.1171 2.5635,0.4492 z m 5.087,2.5634 c 1.4697,0 2.2363,1.2598 2.2363,2.793 0,1.5576 -0.7666,2.7735 -2.2363,2.7735 -1.4697,0 -2.2363,-1.2452 -2.2363,-2.7735 0,-1.5185 0.7666,-2.793 2.2363,-2.793 z m -0.0293,6.543 c 2.2022,0 3.5108,-1.499 3.5108,-3.7646 0,-2.251 -1.2452,-3.7354 -3.4668,-3.7354 -2.2217,0 -3.4961,1.499 -3.4961,3.75 0,2.2656 1.2304,3.75 3.4521,3.75 z m 8.5204,-6.4941 c 0.5713,0 0.957,0.1318 1.2012,0.4004 0.2392,0.2734 0.3564,0.7226 0.3564,1.3379 l 0,4.6045 1.2158,0 0,-4.9073 c 0,-0.7763 -0.1953,-1.3769 -0.6006,-1.8115 -0.4052,-0.4346 -0.9716,-0.6592 -1.7382,-0.6592 -0.7666,0 -1.6504,0.2393 -2.5635,0.7178 l -0.2442,-0.542 -0.8545,0 0,7.2022 1.2305,0 0,-5.8204 c 0.7373,-0.3466 1.4258,-0.5224 1.9971,-0.5224 z m 7.8,0 c 0.5713,0 0.957,0.1318 1.2012,0.4004 0.2392,0.2734 0.3564,0.7226 0.3564,1.3379 l 0,4.6045 1.2158,0 0,-4.9073 c 0,-0.7763 -0.1953,-1.3769 -0.6006,-1.8115 -0.4052,-0.4346 -0.9716,-0.6592 -1.7382,-0.6592 -0.7666,0 -1.6504,0.2393 -2.5635,0.7178 l -0.2442,-0.542 -0.8544,0 0,7.2022 1.2304,0 0,-5.8204 c 0.7373,-0.3466 1.4258,-0.5224 1.9971,-0.5224 z m 7.844,-1.0059 c -1.0498,0 -1.8604,0.376 -2.4463,1.1231 -0.5518,0.7519 -0.8399,1.6504 -0.8399,2.7295 0,2.3388 1.2744,3.6328 3.6475,3.6328 0.8105,0 1.5869,-0.1367 2.3242,-0.3907 l 0,-0.9765 c -0.7031,0.2246 -1.3672,0.332 -1.9971,0.332 -0.913,0 -1.5869,-0.2099 -2.0068,-0.6592 -0.4199,-0.4541 -0.6592,-1.0205 -0.708,-1.7138 l 4.9219,0 0.0732,-0.1172 0,-0.6592 c 0,-2.0703 -1.0644,-3.3008 -2.9687,-3.3008 z m 1.7382,3.1348 -3.7353,0 c 0.1367,-1.1572 0.7519,-2.1631 2.1045,-2.1631 1.123,0 1.6308,0.9912 1.6308,2.1631 z m 6.2142,4.3799 c 0.0147,0 0.044,0 0.0586,-0.0147 0.6299,0 1.2744,-0.1367 1.9629,-0.4053 l -0.2832,-0.8252 c -0.4639,0.1661 -0.8984,0.254 -1.3037,0.254 -0.1221,0 -0.2442,-0.0147 -0.3467,-0.0293 -1.5918,-0.1807 -2.3389,-1.0791 -2.3389,-2.8516 0,-1.6943 0.8399,-2.6367 2.5635,-2.6367 0.4346,0 0.9473,0.0879 1.499,0.2832 l 0.3028,-0.8692 c -0.6592,-0.288 -1.2744,-0.4345 -1.8604,-0.4345 -1.2598,0 -2.1924,0.3564 -2.8076,1.0937 -0.5859,0.7031 -0.8838,1.6358 -0.8838,2.7881 0,2.2803 1.2012,3.6475 3.4375,3.6475 z m 6.341,-0.0293 c 0.5127,0 1.0351,-0.0928 1.5918,-0.2735 l 0,-0.9131 c -0.3907,0.1026 -0.7959,0.1661 -1.2305,0.1661 -0.9277,0 -1.1719,-0.4834 -1.1719,-1.4551 l 0,-3.8867 2.4024,0 0,-1.0205 -2.4024,0 0,-1.8604 -1.2109,0.0635 0,1.7969 -1.2158,0 0,1.0205 1.2158,0 0,3.9746 c 0,1.5332 0.5078,2.3877 2.0215,2.3877 z m 7.9534,-11.4746 -2.6709,2.3681 0.5859,0.7324 2.7588,-2.3095 -0.6738,-0.791 z m -1.5918,3.9892 c -1.0498,0 -1.8603,0.376 -2.4463,1.1231 -0.5517,0.7519 -0.8398,1.6504 -0.8398,2.7295 0,2.3388 1.2744,3.6328 3.6474,3.6328 0.8106,0 1.5869,-0.1367 2.3243,-0.3907 l 0,-0.9765 c -0.7032,0.2246 -1.3672,0.332 -1.9971,0.332 -0.9131,0 -1.5869,-0.2099 -2.0069,-0.6592 -0.4199,-0.4541 -0.6591,-1.0205 -0.708,-1.7138 l 4.9219,0 0.0733,-0.1172 0,-0.6592 c 0,-2.0703 -1.0645,-3.3008 -2.9688,-3.3008 z m 1.7383,3.1348 -3.7354,0 c 0.1368,-1.1572 0.752,-2.1631 2.1045,-2.1631 1.1231,0 1.6309,0.9912 1.6309,2.1631 z m 6.1067,-3.1348 c -1.0498,0 -1.8603,0.376 -2.4463,1.1231 -0.5517,0.7519 -0.8398,1.6504 -0.8398,2.7295 0,2.3388 1.2744,3.6328 3.6475,3.6328 0.8105,0 1.5869,-0.1367 2.3242,-0.3907 l 0,-0.9765 c -0.7032,0.2246 -1.3672,0.332 -1.9971,0.332 -0.9131,0 -1.5869,-0.2099 -2.0068,-0.6592 -0.42,-0.4541 -0.6592,-1.0205 -0.708,-1.7138 l 4.9218,0 0.0733,-0.1172 0,-0.6592 c 0,-2.0703 -1.0645,-3.3008 -2.9688,-3.3008 z m 1.7383,3.1348 -3.7353,0 c 0.1367,-1.1572 0.7519,-2.1631 2.1044,-2.1631 1.1231,0 1.6309,0.9912 1.6309,2.1631 z"
           id="path3107"
           style="fill:#000000;fill-opacity:1;fill-rule:nonzero;stroke:none" /></g></g><g
       id="g3109"><g
         clip-path="url(#clipPath3113)"
         id="g3111"><path
           d="M 637,39 C 637,55.0162 581.7071,68 513.5,68 445.2928,68 390,55.0162 390,39 390,22.9837 445.2928,10 513.5,10 581.7071,10 637,22.9837 637,39 z"
           id="path3117"
           style="fill:#ffffff;fill-opacity:1;fill-rule:nonzero;stroke:none" /></g></g><g
       id="g3119"><g
         clip-path="url(#clipPath3123)"
         id="g3121"><path
           d="M 638,39.5 C 638,55.7924 582.4833,69 514,69 445.5166,69 390,55.7924 390,39.5 390,23.2075 445.5166,10 514,10 c 68.4833,0 124,13.2075 124,29.5 z"
           id="path3127"
           style="fill:none;stroke:#000000;stroke-width:1.10000002;stroke-linecap:butt;stroke-linejoin:miter;stroke-miterlimit:10;stroke-opacity:1;stroke-dasharray:none" /></g></g><g
       id="g3129"><g
         clip-path="url(#clipPath3133)"
         id="g3131"><path
           d="m 427.3476,23.5898 0,10.4102 1.2451,0 0,-8.6231 3.1983,5.6397 1.2451,0 3.1933,-5.6397 0,8.6231 1.2451,0 0,-10.4102 -1.6357,0 -3.4033,6.3135 -3.3301,-6.3135 -1.7578,0 z m 15.6473,4.0185 c 1.4697,0 2.2363,1.2598 2.2363,2.793 0,1.5576 -0.7666,2.7735 -2.2363,2.7735 -1.4698,0 -2.2364,-1.2452 -2.2364,-2.7735 0,-1.5185 0.7666,-2.793 2.2364,-2.793 z m -0.0293,6.543 c 2.2021,0 3.5107,-1.499 3.5107,-3.7646 0,-2.251 -1.2451,-3.7354 -3.4668,-3.7354 -2.2217,0 -3.4961,1.499 -3.4961,3.75 0,2.2656 1.2305,3.75 3.4522,3.75 z m 8.8475,-1.0351 c -1.5869,0 -2.3389,-1.128 -2.3389,-2.7588 0,-1.5918 0.7374,-2.7783 2.3536,-2.7783 0.5713,0 1.0986,0.0927 1.6211,0.3173 l 0,4.7705 c -0.5079,0.2832 -0.8985,0.4493 -1.6358,0.4493 z m -0.2685,1.0205 c 0.7226,0 1.4111,-0.2246 2.0556,-0.6446 l 0.21,0.5079 0.8838,0 0,-10.0635 -1.2451,0 0,2.998 c -0.5713,-0.2392 -1.1524,-0.3467 -1.7383,-0.3467 -0.9912,0 -1.8164,0.3174 -2.4756,0.962 -0.6885,0.6884 -1.0352,1.665 -1.0352,2.9101 0,2.1582 1.1231,3.6768 3.3448,3.6768 z m 5.3538,-7.3828 0,7.2461 1.2305,0 0,-7.2461 -1.2305,0 z m 0,-2.7881 0,1.2451 1.2305,0 0,-1.2451 -1.2305,0 z m 6.3308,0.5713 c 0.3321,0 0.7227,0.0586 1.1866,0.1757 l 0.1953,-0.8984 c -0.5127,-0.1514 -1.1426,-0.2686 -1.7578,-0.2686 -1.0205,0 -1.753,0.376 -2.1729,1.1231 -0.1514,0.2734 -0.2246,0.7373 -0.2246,1.3672 l 0,0.7324 -1.0498,0 0,0.9473 1.0498,0 0.0147,6.2842 1.2158,0 -0.0147,-6.2842 2.4121,0 0,-0.9473 -2.4121,0 0,-0.6885 c 0,-0.1953 0.0147,-0.3613 0.0293,-0.4638 0.0879,-0.6006 0.6885,-1.0791 1.5283,-1.0791 z m 2.2792,2.2168 0,7.2461 1.2305,0 0,-7.2461 -1.2305,0 z m 0,-2.7881 0,1.2451 1.2305,0 0,-1.2451 -1.2305,0 z m 6.3015,2.6855 c -1.0498,0 -1.8603,0.376 -2.4462,1.1231 -0.5518,0.7519 -0.8399,1.6504 -0.8399,2.7295 0,2.3388 1.2744,3.6328 3.6475,3.6328 0.8105,0 1.5869,-0.1367 2.3242,-0.3907 l 0,-0.9765 c -0.7031,0.2246 -1.3672,0.332 -1.9971,0.332 -0.9131,0 -1.5869,-0.2099 -2.0068,-0.6592 -0.4199,-0.4541 -0.6592,-1.0205 -0.708,-1.7138 l 4.9219,0 0.0732,-0.1172 0,-0.6592 c 0,-2.0703 -1.0645,-3.3008 -2.9688,-3.3008 z m 1.7383,3.1348 -3.7353,0 c 0.1367,-1.1572 0.7519,-2.1631 2.1045,-2.1631 1.123,0 1.6308,0.9912 1.6308,2.1631 z m 6.4046,-3.1348 c -0.7031,0 -1.3623,0.2393 -2.0068,0.7324 l -0.2393,-0.6005 -0.9033,0 0,7.2168 1.2451,0 0,-5.7471 c 0.5274,-0.3418 1.0645,-0.5225 1.6504,-0.5225 0.3614,0 0.7227,0.0879 1.0938,0.2393 l 0.1513,0 0,-1.1865 c -0.3125,-0.0879 -0.6445,-0.1319 -0.9912,-0.1319 z m 9.615,-0.2246 c 0,-0.874 -0.2685,-1.5771 -0.7617,-2.0996 -0.5566,-0.5713 -1.1865,-0.7373 -2.2949,-0.7373 l -3.8135,0 0,10.4102 1.2451,0 0,-4.336 1.0987,0 c 0.4638,0 0.7617,-0.0146 0.913,-0.0146 l 2.8223,4.3506 1.3916,0 -2.9394,-4.4678 c 1.4404,-0.3028 2.3388,-1.4258 2.3388,-3.1055 z m -5.625,2.1436 0,-3.8868 1.9092,0 c 0.4639,0 0.791,0.0293 1.0156,0.0782 0.8594,0.1806 1.4551,0.8398 1.4551,1.875 0,0.2685 -0.0586,0.5517 -0.1758,0.8252 -0.2881,0.6445 -0.8545,1.0009 -1.7138,1.0791 -0.1612,0.0146 -0.5665,0.0293 -1.2452,0.0293 l -1.2451,0 z m 11.0872,-1.919 c -1.0498,0 -1.8603,0.376 -2.4463,1.1231 -0.5517,0.7519 -0.8398,1.6504 -0.8398,2.7295 0,2.3388 1.2744,3.6328 3.6474,3.6328 0.8106,0 1.587,-0.1367 2.3243,-0.3907 l 0,-0.9765 c -0.7032,0.2246 -1.3672,0.332 -1.9971,0.332 -0.9131,0 -1.5869,-0.2099 -2.0068,-0.6592 -0.42,-0.4541 -0.6592,-1.0205 -0.7081,-1.7138 l 4.9219,0 0.0733,-0.1172 0,-0.6592 c 0,-2.0703 -1.0645,-3.3008 -2.9688,-3.3008 z m 1.7383,3.1348 -3.7354,0 c 0.1368,-1.1572 0.752,-2.1631 2.1045,-2.1631 1.1231,0 1.6309,0.9912 1.6309,2.1631 z m 6.2141,4.3799 c 0.0147,0 0.044,0 0.0586,-0.0147 0.6299,0 1.2744,-0.1367 1.9629,-0.4053 l -0.2832,-0.8252 c -0.4639,0.1661 -0.8984,0.254 -1.3037,0.254 -0.1221,0 -0.2441,-0.0147 -0.3467,-0.0293 -1.5918,-0.1807 -2.3388,-1.0791 -2.3388,-2.8516 0,-1.6943 0.8398,-2.6367 2.5634,-2.6367 0.4346,0 0.9473,0.0879 1.4991,0.2832 l 0.3027,-0.8692 c -0.6592,-0.288 -1.2744,-0.4345 -1.8604,-0.4345 -1.2597,0 -2.1923,0.3564 -2.8076,1.0937 -0.5859,0.7031 -0.8838,1.6358 -0.8838,2.7881 0,2.2803 1.2012,3.6475 3.4375,3.6475 z m 6.8977,-7.5147 c -1.0499,0 -1.8604,0.376 -2.4463,1.1231 -0.5518,0.7519 -0.8399,1.6504 -0.8399,2.7295 0,2.3388 1.2744,3.6328 3.6475,3.6328 0.8105,0 1.5869,-0.1367 2.3242,-0.3907 l 0,-0.9765 c -0.7031,0.2246 -1.3672,0.332 -1.9971,0.332 -0.9131,0 -1.5869,-0.2099 -2.0068,-0.6592 -0.4199,-0.4541 -0.6592,-1.0205 -0.708,-1.7138 l 4.9219,0 0.0732,-0.1172 0,-0.6592 c 0,-2.0703 -1.0644,-3.3008 -2.9687,-3.3008 z m 1.7382,3.1348 -3.7353,0 c 0.1367,-1.1572 0.7519,-2.1631 2.1045,-2.1631 1.123,0 1.6308,0.9912 1.6308,2.1631 z m 5.5501,4.3506 c 0.5127,0 1.0352,-0.0928 1.5918,-0.2735 l 0,-0.9131 c -0.3906,0.1026 -0.7959,0.1661 -1.2305,0.1661 -0.9277,0 -1.1718,-0.4834 -1.1718,-1.4551 l 0,-3.8867 2.4023,0 0,-1.0205 -2.4023,0 0,-1.8604 -1.211,0.0635 0,1.7969 -1.2158,0 0,1.0205 1.2158,0 0,3.9746 c 0,1.5332 0.5078,2.3877 2.0215,2.3877 z m 5.8051,0 c 0.5127,0 1.0351,-0.0928 1.5918,-0.2735 l 0,-0.9131 c -0.3907,0.1026 -0.7959,0.1661 -1.2305,0.1661 -0.9277,0 -1.1719,-0.4834 -1.1719,-1.4551 l 0,-3.8867 2.4024,0 0,-1.0205 -2.4024,0 0,-1.8604 -1.2109,0.0635 0,1.7969 -1.2158,0 0,1.0205 1.2158,0 0,3.9746 c 0,1.5332 0.5078,2.3877 2.0215,2.3877 z m 6.3616,-7.4854 c -1.0498,0 -1.8604,0.376 -2.4463,1.1231 -0.5518,0.7519 -0.8398,1.6504 -0.8398,2.7295 0,2.3388 1.2744,3.6328 3.6474,3.6328 0.8106,0 1.5869,-0.1367 2.3242,-0.3907 l 0,-0.9765 c -0.7031,0.2246 -1.3672,0.332 -1.997,0.332 -0.9131,0 -1.587,-0.2099 -2.0069,-0.6592 -0.4199,-0.4541 -0.6592,-1.0205 -0.708,-1.7138 l 4.9219,0 0.0732,-0.1172 0,-0.6592 c 0,-2.0703 -1.0644,-3.3008 -2.9687,-3.3008 z m 1.7383,3.1348 -3.7354,0 c 0.1367,-1.1572 0.752,-2.1631 2.1045,-2.1631 1.1231,0 1.6309,0.9912 1.6309,2.1631 z m 11.3997,-4.7412 0.3467,-1.0352 c -0.9912,-0.3613 -1.7676,-0.542 -3.1348,-0.542 -1.5137,0 -2.8516,0.6787 -3.6426,1.5039 -0.8252,0.8545 -1.455,2.2022 -1.455,3.8233 0,1.5918 0.4785,2.8662 1.4209,3.872 0.8398,0.8692 2.1484,1.4844 3.8134,1.4844 1.167,0 2.2168,-0.2099 3.1348,-0.6299 l -0.3174,-0.9912 c -0.8105,0.3321 -1.6357,0.4932 -2.4463,0.4932 -0.8203,0 -1.5429,-0.1611 -2.1875,-0.5225 -1.1719,-0.6738 -1.997,-1.9531 -1.997,-3.7207 0,-1.2158 0.3613,-2.1924 1.0986,-2.9834 0.581,-0.6445 1.6357,-1.2011 2.8027,-1.2011 1.1865,0 1.6211,0.1171 2.5635,0.4492 z m 5.087,2.5634 c 1.4698,0 2.2364,1.2598 2.2364,2.793 0,1.5576 -0.7666,2.7735 -2.2364,2.7735 -1.4697,0 -2.2363,-1.2452 -2.2363,-2.7735 0,-1.5185 0.7666,-2.793 2.2363,-2.793 z m -0.0293,6.543 c 2.2022,0 3.5108,-1.499 3.5108,-3.7646 0,-2.251 -1.2451,-3.7354 -3.4668,-3.7354 -2.2217,0 -3.4961,1.499 -3.4961,3.75 0,2.2656 1.2305,3.75 3.4521,3.75 z m 8.5204,-6.4941 c 0.5713,0 0.957,0.1318 1.2012,0.4004 0.2392,0.2734 0.3564,0.7226 0.3564,1.3379 l 0,4.6045 1.2158,0 0,-4.9073 c 0,-0.7763 -0.1953,-1.3769 -0.6005,-1.8115 -0.4053,-0.4346 -0.9717,-0.6592 -1.7383,-0.6592 -0.7666,0 -1.6504,0.2393 -2.5635,0.7178 l -0.2441,-0.542 -0.8545,0 0,7.2022 1.2304,0 0,-5.8204 c 0.7373,-0.3466 1.4258,-0.5224 1.9971,-0.5224 z m 7.8,0 c 0.5713,0 0.957,0.1318 1.2012,0.4004 0.2392,0.2734 0.3564,0.7226 0.3564,1.3379 l 0,4.6045 1.2158,0 0,-4.9073 c 0,-0.7763 -0.1953,-1.3769 -0.6006,-1.8115 -0.4052,-0.4346 -0.9716,-0.6592 -1.7382,-0.6592 -0.7666,0 -1.6504,0.2393 -2.5635,0.7178 l -0.2442,-0.542 -0.8544,0 0,7.2022 1.2304,0 0,-5.8204 c 0.7373,-0.3466 1.4258,-0.5224 1.9971,-0.5224 z m 7.844,-1.0059 c -1.0498,0 -1.8604,0.376 -2.4463,1.1231 -0.5517,0.7519 -0.8398,1.6504 -0.8398,2.7295 0,2.3388 1.2744,3.6328 3.6474,3.6328 0.8106,0 1.5869,-0.1367 2.3242,-0.3907 l 0,-0.9765 c -0.7031,0.2246 -1.3671,0.332 -1.997,0.332 -0.9131,0 -1.5869,-0.2099 -2.0069,-0.6592 -0.4199,-0.4541 -0.6591,-1.0205 -0.708,-1.7138 l 4.9219,0 0.0733,-0.1172 0,-0.6592 c 0,-2.0703 -1.0645,-3.3008 -2.9688,-3.3008 z m 1.7383,3.1348 -3.7354,0 c 0.1367,-1.1572 0.752,-2.1631 2.1045,-2.1631 1.1231,0 1.6309,0.9912 1.6309,2.1631 z m 6.2142,4.3799 c 0.0146,0 0.0439,0 0.0586,-0.0147 0.6298,0 1.2744,-0.1367 1.9628,-0.4053 l -0.2832,-0.8252 c -0.4638,0.1661 -0.8984,0.254 -1.3037,0.254 -0.122,0 -0.2441,-0.0147 -0.3466,-0.0293 -1.5918,-0.1807 -2.3389,-1.0791 -2.3389,-2.8516 0,-1.6943 0.8398,-2.6367 2.5635,-2.6367 0.4345,0 0.9472,0.0879 1.499,0.2832 l 0.3027,-0.8692 c -0.6592,-0.288 -1.2744,-0.4345 -1.8603,-0.4345 -1.2598,0 -2.1924,0.3564 -2.8076,1.0937 -0.586,0.7031 -0.8838,1.6358 -0.8838,2.7881 0,2.2803 1.2011,3.6475 3.4375,3.6475 z m 6.3409,-0.0293 c 0.5127,0 1.0352,-0.0928 1.5918,-0.2735 l 0,-0.9131 c -0.3906,0.1026 -0.7959,0.1661 -1.2305,0.1661 -0.9277,0 -1.1718,-0.4834 -1.1718,-1.4551 l 0,-3.8867 2.4023,0 0,-1.0205 -2.4023,0 0,-1.8604 -1.211,0.0635 0,1.7969 -1.2158,0 0,1.0205 1.2158,0 0,3.9746 c 0,1.5332 0.5078,2.3877 2.0215,2.3877 z m 7.9534,-11.4746 -2.6709,2.3681 0.586,0.7324 2.7587,-2.3095 -0.6738,-0.791 z m -1.5918,3.9892 c -1.0498,0 -1.8603,0.376 -2.4463,1.1231 -0.5517,0.7519 -0.8398,1.6504 -0.8398,2.7295 0,2.3388 1.2744,3.6328 3.6475,3.6328 0.8105,0 1.5869,-0.1367 2.3242,-0.3907 l 0,-0.9765 c -0.7032,0.2246 -1.3672,0.332 -1.9971,0.332 -0.9131,0 -1.5869,-0.2099 -2.0068,-0.6592 -0.42,-0.4541 -0.6592,-1.0205 -0.708,-1.7138 l 4.9218,0 0.0733,-0.1172 0,-0.6592 c 0,-2.0703 -1.0645,-3.3008 -2.9688,-3.3008 z m 1.7383,3.1348 -3.7353,0 c 0.1367,-1.1572 0.7519,-2.1631 2.1044,-2.1631 1.1231,0 1.6309,0.9912 1.6309,2.1631 z m 6.1068,-3.1348 c -1.0498,0 -1.8604,0.376 -2.4463,1.1231 -0.5518,0.7519 -0.8399,1.6504 -0.8399,2.7295 0,2.3388 1.2744,3.6328 3.6475,3.6328 0.8105,0 1.5869,-0.1367 2.3242,-0.3907 l 0,-0.9765 c -0.7031,0.2246 -1.3672,0.332 -1.9971,0.332 -0.913,0 -1.5869,-0.2099 -2.0068,-0.6592 -0.4199,-0.4541 -0.6592,-1.0205 -0.708,-1.7138 l 4.9219,0 0.0732,-0.1172 0,-0.6592 c 0,-2.0703 -1.0644,-3.3008 -2.9687,-3.3008 z m 1.7382,3.1348 -3.7353,0 c 0.1367,-1.1572 0.7519,-2.1631 2.1045,-2.1631 1.123,0 1.6308,0.9912 1.6308,2.1631 z"
           id="path3137"
           style="fill:#000000;fill-opacity:1;fill-rule:nonzero;stroke:none" /></g></g><g
       id="g3139"><g
         clip-path="url(#clipPath3143)"
         id="g3141"><path
           d="m 841,134 c 0,16.0162 -50.5919,29 -113,29 -62.4082,0 -113,-12.9838 -113,-29 0,-16.0163 50.5918,-29 113,-29 62.4081,0 113,12.9837 113,29 z"
           id="path3147"
           style="fill:#ffffff;fill-opacity:1;fill-rule:nonzero;stroke:none" /></g></g><g
       id="g3149"><g
         clip-path="url(#clipPath3153)"
         id="g3151"><path
           d="M 842,134.5 C 842,150.7924 791.1843,164 728.5,164 665.8156,164 615,150.7924 615,134.5 615,118.2075 665.8156,105 728.5,105 791.1843,105 842,118.2075 842,134.5 z"
           id="path3157"
           style="fill:none;stroke:#000000;stroke-width:1.10000002;stroke-linecap:butt;stroke-linejoin:miter;stroke-miterlimit:10;stroke-opacity:1;stroke-dasharray:none" /></g></g><g
       id="g3159"><g
         clip-path="url(#clipPath3163)"
         id="g3161"><path
           d="m 649.3476,118.5898 0,10.4102 1.2452,0 0,-8.7305 5.6738,8.7305 1.5722,0 0,-10.4102 -1.2451,0 0,8.7158 -5.6689,-8.7158 -1.5772,0 z m 14.0123,4.0185 c 1.4697,0 2.2363,1.2598 2.2363,2.793 0,1.5576 -0.7666,2.7735 -2.2363,2.7735 -1.4698,0 -2.2364,-1.2452 -2.2364,-2.7735 0,-1.5185 0.7666,-2.793 2.2364,-2.793 z m -0.0293,6.543 c 2.2021,0 3.5107,-1.499 3.5107,-3.7646 0,-2.251 -1.2451,-3.7354 -3.4668,-3.7354 -2.2217,0 -3.4961,1.499 -3.4961,3.75 0,2.2656 1.2305,3.75 3.4522,3.75 z m 8.0077,-0.0146 c 0.5127,0 1.0352,-0.0928 1.5918,-0.2735 l 0,-0.9131 c -0.3906,0.1026 -0.7959,0.1661 -1.2305,0.1661 -0.9277,0 -1.1718,-0.4834 -1.1718,-1.4551 l 0,-3.8867 2.4023,0 0,-1.0205 -2.4023,0 0,-1.8604 -1.211,0.0635 0,1.7969 -1.2158,0 0,1.0205 1.2158,0 0,3.9746 c 0,1.5332 0.5078,2.3877 2.0215,2.3877 z m 6.3616,-7.4854 c -1.0498,0 -1.8603,0.376 -2.4463,1.1231 -0.5517,0.7519 -0.8398,1.6504 -0.8398,2.7295 0,2.3388 1.2744,3.6328 3.6474,3.6328 0.8106,0 1.587,-0.1367 2.3243,-0.3907 l 0,-0.9765 c -0.7032,0.2246 -1.3672,0.332 -1.9971,0.332 -0.9131,0 -1.5869,-0.21 -2.0068,-0.6592 -0.42,-0.4541 -0.6592,-1.0205 -0.7081,-1.7138 l 4.9219,0 0.0733,-0.1172 0,-0.6592 c 0,-2.0703 -1.0645,-3.3008 -2.9688,-3.3008 z m 1.7383,3.1348 -3.7354,0 c 0.1368,-1.1572 0.752,-2.1631 2.1045,-2.1631 1.1231,0 1.6309,0.9912 1.6309,2.1631 z m 6.4046,-3.1348 c -0.7032,0 -1.3623,0.2393 -2.0069,0.7324 l -0.2392,-0.6006 -0.9033,0 0,7.2169 1.2451,0 0,-5.7471 c 0.5273,-0.3418 1.0644,-0.5225 1.6504,-0.5225 0.3613,0 0.7226,0.0879 1.0937,0.2393 l 0.1514,0 0,-1.1866 c -0.3125,-0.0878 -0.6446,-0.1318 -0.9912,-0.1318 z m 9.6151,-0.2246 c 0,-0.874 -0.2686,-1.5771 -0.7618,-2.0996 -0.5566,-0.5713 -1.1865,-0.7373 -2.2949,-0.7373 l -3.8135,0 0,10.4102 1.2452,0 0,-4.336 1.0986,0 c 0.4639,0 0.7617,-0.0146 0.9131,-0.0146 l 2.8223,4.3506 1.3916,0 -2.9395,-4.4678 c 1.4404,-0.3028 2.3389,-1.4258 2.3389,-3.1055 z m -5.625,2.1436 0,-3.8868 1.9091,0 c 0.4639,0 0.7911,0.0293 1.0157,0.0782 0.8593,0.1806 1.455,0.8398 1.455,1.875 0,0.2685 -0.0585,0.5517 -0.1757,0.8252 -0.2881,0.6445 -0.8545,1.0009 -1.7139,1.0791 -0.1611,0.0146 -0.5664,0.0293 -1.2451,0.0293 l -1.2451,0 z m 11.0871,-1.919 c -1.0498,0 -1.8604,0.376 -2.4463,1.1231 -0.5518,0.7519 -0.8399,1.6504 -0.8399,2.7295 0,2.3388 1.2745,3.6328 3.6475,3.6328 0.8106,0 1.5869,-0.1367 2.3242,-0.3907 l 0,-0.9765 c -0.7031,0.2246 -1.3672,0.332 -1.997,0.332 -0.9131,0 -1.587,-0.21 -2.0069,-0.6592 -0.4199,-0.4541 -0.6592,-1.0205 -0.708,-1.7138 l 4.9219,0 0.0732,-0.1172 0,-0.6592 c 0,-2.0703 -1.0644,-3.3008 -2.9687,-3.3008 z m 1.7383,3.1348 -3.7354,0 c 0.1367,-1.1572 0.752,-2.1631 2.1045,-2.1631 1.123,0 1.6309,0.9912 1.6309,2.1631 z m 6.2141,4.3799 c 0.0147,0 0.0439,0 0.0586,-0.0147 0.6299,0 1.2744,-0.1367 1.9629,-0.4053 l -0.2832,-0.8252 c -0.4639,0.1661 -0.8985,0.254 -1.3037,0.254 -0.1221,0 -0.2442,-0.0147 -0.3467,-0.0293 -1.5918,-0.1807 -2.3389,-1.0791 -2.3389,-2.8516 0,-1.6943 0.8399,-2.6367 2.5635,-2.6367 0.4346,0 0.9473,0.0879 1.499,0.2832 l 0.3028,-0.8692 c -0.6592,-0.2881 -1.2745,-0.4345 -1.8604,-0.4345 -1.2598,0 -2.1924,0.3564 -2.8076,1.0937 -0.5859,0.7031 -0.8838,1.6358 -0.8838,2.7881 0,2.2803 1.2012,3.6475 3.4375,3.6475 z m 6.8977,-7.5147 c -1.0498,0 -1.8604,0.376 -2.4463,1.1231 -0.5518,0.7519 -0.8399,1.6504 -0.8399,2.7295 0,2.3388 1.2744,3.6328 3.6475,3.6328 0.8105,0 1.5869,-0.1367 2.3242,-0.3907 l 0,-0.9765 c -0.7031,0.2246 -1.3672,0.332 -1.9971,0.332 -0.913,0 -1.5869,-0.21 -2.0068,-0.6592 -0.4199,-0.4541 -0.6592,-1.0205 -0.708,-1.7138 l 4.9219,0 0.0732,-0.1172 0,-0.6592 c 0,-2.0703 -1.0644,-3.3008 -2.9687,-3.3008 z m 1.7382,3.1348 -3.7353,0 c 0.1367,-1.1572 0.7519,-2.1631 2.1045,-2.1631 1.123,0 1.6308,0.9912 1.6308,2.1631 z m 5.55,4.3506 c 0.5127,0 1.0352,-0.0928 1.5918,-0.2735 l 0,-0.9131 c -0.3906,0.1026 -0.7959,0.1661 -1.2304,0.1661 -0.9278,0 -1.1719,-0.4834 -1.1719,-1.4551 l 0,-3.8867 2.4023,0 0,-1.0205 -2.4023,0 0,-1.8604 -1.2109,0.0635 0,1.7969 -1.2159,0 0,1.0205 1.2159,0 0,3.9746 c 0,1.5332 0.5078,2.3877 2.0214,2.3877 z m 5.8051,0 c 0.5127,0 1.0352,-0.0928 1.5918,-0.2735 l 0,-0.9131 c -0.3906,0.1026 -0.7959,0.1661 -1.2305,0.1661 -0.9277,0 -1.1718,-0.4834 -1.1718,-1.4551 l 0,-3.8867 2.4023,0 0,-1.0205 -2.4023,0 0,-1.8604 -1.211,0.0635 0,1.7969 -1.2158,0 0,1.0205 1.2158,0 0,3.9746 c 0,1.5332 0.5078,2.3877 2.0215,2.3877 z m 6.3616,-7.4854 c -1.0498,0 -1.8603,0.376 -2.4463,1.1231 -0.5517,0.7519 -0.8398,1.6504 -0.8398,2.7295 0,2.3388 1.2744,3.6328 3.6474,3.6328 0.8106,0 1.587,-0.1367 2.3243,-0.3907 l 0,-0.9765 c -0.7032,0.2246 -1.3672,0.332 -1.9971,0.332 -0.9131,0 -1.5869,-0.21 -2.0068,-0.6592 -0.42,-0.4541 -0.6592,-1.0205 -0.7081,-1.7138 l 4.9219,0 0.0733,-0.1172 0,-0.6592 c 0,-2.0703 -1.0645,-3.3008 -2.9688,-3.3008 z m 1.7383,3.1348 -3.7354,0 c 0.1368,-1.1572 0.752,-2.1631 2.1045,-2.1631 1.1231,0 1.6309,0.9912 1.6309,2.1631 z m 11.3998,-4.7412 0.3466,-1.0352 c -0.9912,-0.3613 -1.7675,-0.542 -3.1347,-0.542 -1.5137,0 -2.8516,0.6787 -3.6426,1.5039 -0.8252,0.8545 -1.4551,2.2022 -1.4551,3.8233 0,1.5918 0.4785,2.8662 1.4209,3.872 0.8399,0.8692 2.1485,1.4844 3.8135,1.4844 1.167,0 2.2168,-0.2099 3.1348,-0.6299 l -0.3174,-0.9912 c -0.8106,0.3321 -1.6358,0.4932 -2.4463,0.4932 -0.8203,0 -1.543,-0.1611 -2.1875,-0.5225 -1.1719,-0.6738 -1.9971,-1.9531 -1.9971,-3.7207 0,-1.2158 0.3613,-2.1924 1.0987,-2.9834 0.581,-0.6445 1.6357,-1.2012 2.8027,-1.2012 1.1865,0 1.6211,0.1172 2.5635,0.4493 z m 5.087,2.5634 c 1.4697,0 2.2363,1.2598 2.2363,2.793 0,1.5576 -0.7666,2.7735 -2.2363,2.7735 -1.4697,0 -2.2363,-1.2452 -2.2363,-2.7735 0,-1.5185 0.7666,-2.793 2.2363,-2.793 z m -0.0293,6.543 c 2.2022,0 3.5108,-1.499 3.5108,-3.7646 0,-2.251 -1.2452,-3.7354 -3.4668,-3.7354 -2.2217,0 -3.4961,1.499 -3.4961,3.75 0,2.2656 1.2304,3.75 3.4521,3.75 z m 8.5204,-6.4941 c 0.5713,0 0.957,0.1318 1.2011,0.4004 0.2393,0.2734 0.3565,0.7226 0.3565,1.3379 l 0,4.6045 1.2158,0 0,-4.9073 c 0,-0.7763 -0.1953,-1.3769 -0.6006,-1.8115 -0.4052,-0.4346 -0.9717,-0.6592 -1.7383,-0.6592 -0.7666,0 -1.6503,0.2393 -2.5634,0.7178 l -0.2442,-0.542 -0.8545,0 0,7.2022 1.2305,0 0,-5.8204 c 0.7373,-0.3466 1.4258,-0.5224 1.9971,-0.5224 z m 7.8,0 c 0.5713,0 0.957,0.1318 1.2011,0.4004 0.2393,0.2734 0.3565,0.7226 0.3565,1.3379 l 0,4.6045 1.2158,0 0,-4.9073 c 0,-0.7763 -0.1953,-1.3769 -0.6006,-1.8115 -0.4053,-0.4346 -0.9717,-0.6592 -1.7383,-0.6592 -0.7666,0 -1.6504,0.2393 -2.5634,0.7178 l -0.2442,-0.542 -0.8545,0 0,7.2022 1.2305,0 0,-5.8204 c 0.7373,-0.3466 1.4258,-0.5224 1.9971,-0.5224 z m 7.844,-1.0059 c -1.0498,0 -1.8604,0.376 -2.4463,1.1231 -0.5518,0.7519 -0.8399,1.6504 -0.8399,2.7295 0,2.3388 1.2745,3.6328 3.6475,3.6328 0.8105,0 1.5869,-0.1367 2.3242,-0.3907 l 0,-0.9765 c -0.7031,0.2246 -1.3672,0.332 -1.9971,0.332 -0.913,0 -1.5869,-0.21 -2.0068,-0.6592 -0.4199,-0.4541 -0.6592,-1.0205 -0.708,-1.7138 l 4.9219,0 0.0732,-0.1172 0,-0.6592 c 0,-2.0703 -1.0644,-3.3008 -2.9687,-3.3008 z m 1.7383,3.1348 -3.7354,0 c 0.1367,-1.1572 0.752,-2.1631 2.1045,-2.1631 1.123,0 1.6309,0.9912 1.6309,2.1631 z m 6.214,4.3799 c 0.0147,0 0.044,0 0.0586,-0.0147 0.6299,0 1.2744,-0.1367 1.9629,-0.4053 l -0.2832,-0.8252 c -0.4639,0.1661 -0.8984,0.254 -1.3037,0.254 -0.1221,0 -0.2442,-0.0147 -0.3467,-0.0293 -1.5918,-0.1807 -2.3389,-1.0791 -2.3389,-2.8516 0,-1.6943 0.8399,-2.6367 2.5635,-2.6367 0.4346,0 0.9473,0.0879 1.499,0.2832 l 0.3028,-0.8692 c -0.6592,-0.2881 -1.2744,-0.4345 -1.8604,-0.4345 -1.2597,0 -2.1924,0.3564 -2.8076,1.0937 -0.5859,0.7031 -0.8838,1.6358 -0.8838,2.7881 0,2.2803 1.2012,3.6475 3.4375,3.6475 z m 6.341,-0.0293 c 0.5127,0 1.0352,-0.0928 1.5918,-0.2735 l 0,-0.9131 c -0.3906,0.1026 -0.7959,0.1661 -1.2304,0.1661 -0.9278,0 -1.1719,-0.4834 -1.1719,-1.4551 l 0,-3.8867 2.4023,0 0,-1.0205 -2.4023,0 0,-1.8604 -1.2109,0.0635 0,1.7969 -1.2159,0 0,1.0205 1.2159,0 0,3.9746 c 0,1.5332 0.5078,2.3877 2.0214,2.3877 z m 7.9535,-11.4746 -2.6709,2.3681 0.5859,0.7324 2.7588,-2.3095 -0.6738,-0.791 z m -1.5918,3.9892 c -1.0499,0 -1.8604,0.376 -2.4463,1.1231 -0.5518,0.7519 -0.8399,1.6504 -0.8399,2.7295 0,2.3388 1.2744,3.6328 3.6475,3.6328 0.8105,0 1.5869,-0.1367 2.3242,-0.3907 l 0,-0.9765 c -0.7031,0.2246 -1.3672,0.332 -1.9971,0.332 -0.9131,0 -1.5869,-0.21 -2.0068,-0.6592 -0.4199,-0.4541 -0.6592,-1.0205 -0.708,-1.7138 l 4.9219,0 0.0732,-0.1172 0,-0.6592 c 0,-2.0703 -1.0644,-3.3008 -2.9687,-3.3008 z m 1.7382,3.1348 -3.7353,0 c 0.1367,-1.1572 0.7519,-2.1631 2.1045,-2.1631 1.123,0 1.6308,0.9912 1.6308,2.1631 z m 6.1068,-3.1348 c -1.0498,0 -1.8603,0.376 -2.4463,1.1231 -0.5517,0.7519 -0.8398,1.6504 -0.8398,2.7295 0,2.3388 1.2744,3.6328 3.6475,3.6328 0.8105,0 1.5869,-0.1367 2.3242,-0.3907 l 0,-0.9765 c -0.7031,0.2246 -1.3672,0.332 -1.9971,0.332 -0.9131,0 -1.5869,-0.21 -2.0068,-0.6592 -0.4199,-0.4541 -0.6592,-1.0205 -0.708,-1.7138 l 4.9218,0 0.0733,-0.1172 0,-0.6592 c 0,-2.0703 -1.0645,-3.3008 -2.9688,-3.3008 z m 1.7383,3.1348 -3.7353,0 c 0.1367,-1.1572 0.7519,-2.1631 2.1045,-2.1631 1.123,0 1.6308,0.9912 1.6308,2.1631 z"
           id="path3167"
           style="fill:#000000;fill-opacity:1;fill-rule:nonzero;stroke:none" /></g></g><g
       id="g3169"><g
         clip-path="url(#clipPath3173)"
         id="g3171"><path
           d="m 614,254 c 0,16.0162 -59.0985,29 -132,29 -72.9016,0 -132,-12.9838 -132,-29 0,-16.0163 59.0984,-29 132,-29 72.9015,0 132,12.9837 132,29 z"
           id="path3177"
           style="fill:#ffffff;fill-opacity:1;fill-rule:nonzero;stroke:none" /></g></g><g
       id="g3179"><g
         clip-path="url(#clipPath3183)"
         id="g3181"><path
           d="M 615,254.5 C 615,270.7924 555.6777,284 482.5,284 409.3222,284 350,270.7924 350,254.5 350,238.2075 409.3222,225 482.5,225 555.6777,225 615,238.2075 615,254.5 z"
           id="path3187"
           style="fill:none;stroke:#000000;stroke-width:1.10000002;stroke-linecap:butt;stroke-linejoin:miter;stroke-miterlimit:10;stroke-opacity:1;stroke-dasharray:none" /></g></g><g
       id="g3189"><g
         clip-path="url(#clipPath3193)"
         id="g3191"><path
           d="m 392.2431,247.9208 c -0.7178,0 -1.6943,-0.2392 -2.9101,-0.6884 l -0.4346,1.2109 c 1.0498,0.4199 1.8164,0.6934 3.1689,0.6934 1.5869,0 2.7735,-0.5127 3.4473,-1.3965 0.376,-0.5078 0.5713,-1.0645 0.5713,-1.6504 0,-0.7959 -0.2881,-1.4111 -0.8692,-1.8457 -0.6933,-0.4785 -1.2451,-0.7471 -2.2363,-1.0498 -0.5566,-0.166 -1.1084,-0.3906 -1.6357,-0.6592 -0.586,-0.2978 -0.8692,-0.7031 -0.8692,-1.2305 0,-1.0791 1.333,-1.6357 2.5196,-1.6357 0.6884,0 1.455,0.1221 2.3388,0.376 l 0.4053,-1.1231 c -0.9277,-0.2881 -1.7236,-0.4199 -2.4316,-0.4199 -1.3623,0 -2.3682,0.3271 -3.1006,0.8984 -0.586,0.4639 -1.0987,1.2012 -1.0987,2.1436 0,0.918 0.5274,1.5918 1.128,1.9385 0.957,0.581 2.3242,0.8691 3.3886,1.3476 0.7373,0.3321 1.1084,0.8106 1.1084,1.4405 0,1.1376 -1.2744,1.6503 -2.4902,1.6503 z m 6.8561,-1.5136 0,-4.6094 -1.2158,0 0,4.9072 c 0,1.543 0.8252,2.4756 2.3584,2.4756 0.7617,0 1.6309,-0.2392 2.5488,-0.7226 l 0.2393,0.542 0.8545,0 0,-7.2022 -1.2305,0 0,5.8203 c -0.7324,0.3467 -1.4111,0.5274 -1.9775,0.5274 -1.1866,0 -1.5772,-0.542 -1.5772,-1.7383 z m 9.8704,-3.75 c 1.5771,0 2.3535,1.1523 2.3535,2.7588 0,1.6015 -0.8252,2.8027 -2.3682,2.8027 -0.5566,0 -1.0937,-0.1172 -1.6211,-0.3418 l 0,-4.7705 c 0.4981,-0.2734 0.8838,-0.4492 1.6358,-0.4492 z m -1.6358,10.2588 0,-4.0821 c 0.5713,0.2393 1.1572,0.3614 1.7432,0.3614 0.9863,0 1.8115,-0.3467 2.4707,-0.9913 0.6933,-0.6738 1.0547,-1.6503 1.0547,-2.8955 0,-1.499 -0.5274,-2.5488 -1.5332,-3.1933 -0.5078,-0.3174 -1.1084,-0.4785 -1.8311,-0.4785 -0.7178,0 -1.3916,0.2246 -2.0361,0.6445 l -0.2246,-0.4981 -0.8887,0 0,11.1329 1.2451,0 z m 10.1558,-10.2588 c 1.5771,0 2.3535,1.1523 2.3535,2.7588 0,1.6015 -0.8252,2.8027 -2.3682,2.8027 -0.5566,0 -1.0937,-0.1172 -1.6211,-0.3418 l 0,-4.7705 c 0.4981,-0.2734 0.8838,-0.4492 1.6358,-0.4492 z m -1.6358,10.2588 0,-4.0821 c 0.5713,0.2393 1.1573,0.3614 1.7432,0.3614 0.9863,0 1.8115,-0.3467 2.4707,-0.9913 0.6934,-0.6738 1.0547,-1.6503 1.0547,-2.8955 0,-1.499 -0.5274,-2.5488 -1.5332,-3.1933 -0.5078,-0.3174 -1.1084,-0.4785 -1.8311,-0.4785 -0.7177,0 -1.3916,0.2246 -2.0361,0.6445 l -0.2246,-0.4981 -0.8887,0 0,11.1329 1.2451,0 z m 10.439,-11.2647 c -0.7031,0 -1.3623,0.2393 -2.0068,0.7324 l -0.2393,-0.6006 -0.9033,0 0,7.2169 1.2451,0 0,-5.7471 c 0.5273,-0.3418 1.0644,-0.5225 1.6504,-0.5225 0.3613,0 0.7226,0.0879 1.0937,0.2393 l 0.1514,0 0,-1.1866 c -0.3125,-0.0878 -0.6445,-0.1318 -0.9912,-0.1318 z m 2.2956,0.1026 0,7.2461 1.2305,0 0,-7.2461 -1.2305,0 z m 0,-2.7881 0,1.2451 1.2305,0 0,-1.2451 -1.2305,0 z m 11.7606,5.4297 0,4.6045 1.2158,0 0,-4.9073 c 0,-1.4355 -0.7813,-2.4707 -2.2656,-2.4707 -0.3272,0 -0.6739,0.044 -1.0499,0.1465 -0.3271,0.0928 -0.8251,0.3467 -1.4697,0.7813 -0.3906,-0.542 -1.0058,-0.9278 -1.8603,-0.9278 -0.3125,0 -0.6592,0.044 -1.0059,0.1319 -0.2978,0.0927 -0.7031,0.2734 -1.1963,0.5859 l -0.2441,-0.542 -0.8545,0 0,7.2022 1.2305,0 0,-5.835 c 0.6298,-0.3613 1.2011,-0.542 1.665,-0.542 1.0205,0 1.4404,0.6641 1.4404,1.7725 l 0,4.6045 1.2158,0 0,-4.9073 c 0,-0.3418 -0.0146,-0.6299 -0.0732,-0.8398 0.7031,-0.4199 1.3037,-0.6299 1.8262,-0.6299 1.0058,0 1.4258,0.6787 1.4258,1.7725 z m 6.286,-2.7442 c -1.0498,0 -1.8603,0.376 -2.4463,1.1231 -0.5517,0.7519 -0.8398,1.6504 -0.8398,2.7295 0,2.3388 1.2744,3.6328 3.6474,3.6328 0.8106,0 1.5869,-0.1367 2.3243,-0.3907 l 0,-0.9765 c -0.7032,0.2246 -1.3672,0.332 -1.9971,0.332 -0.9131,0 -1.5869,-0.21 -2.0069,-0.6592 -0.4199,-0.4541 -0.6591,-1.0205 -0.708,-1.7138 l 4.9219,0 0.0733,-0.1172 0,-0.6592 c 0,-2.0703 -1.0645,-3.3008 -2.9688,-3.3008 z m 1.7383,3.1348 -3.7354,0 c 0.1368,-1.1572 0.752,-2.1631 2.1045,-2.1631 1.1231,0 1.6309,0.9912 1.6309,2.1631 z m 6.4046,-3.1348 c -0.7032,0 -1.3623,0.2393 -2.0069,0.7324 l -0.2392,-0.6006 -0.9034,0 0,7.2169 1.2452,0 0,-5.7471 c 0.5273,-0.3418 1.0644,-0.5225 1.6504,-0.5225 0.3613,0 0.7226,0.0879 1.0937,0.2393 l 0.1514,0 0,-1.1866 c -0.3125,-0.0878 -0.6446,-0.1318 -0.9912,-0.1318 z m 9.615,-0.2246 c 0,-0.874 -0.2686,-1.5771 -0.7617,-2.0996 -0.5567,-0.5713 -1.1866,-0.7373 -2.295,-0.7373 l -3.8134,0 0,10.4102 1.2451,0 0,-4.336 1.0986,0 c 0.4639,0 0.7617,-0.0146 0.9131,-0.0146 l 2.8223,4.3506 1.3916,0 -2.9395,-4.4678 c 1.4404,-0.3028 2.3389,-1.4258 2.3389,-3.1055 z m -5.625,2.1436 0,-3.8868 1.9092,0 c 0.4638,0 0.791,0.0293 1.0156,0.0782 0.8594,0.1806 1.4551,0.8398 1.4551,1.875 0,0.2685 -0.0586,0.5517 -0.1758,0.8252 -0.2881,0.6445 -0.8545,1.0009 -1.7139,1.0791 -0.1611,0.0146 -0.5664,0.0293 -1.2451,0.0293 l -1.2451,0 z m 11.0872,-1.919 c -1.0498,0 -1.8604,0.376 -2.4463,1.1231 -0.5518,0.7519 -0.8399,1.6504 -0.8399,2.7295 0,2.3388 1.2744,3.6328 3.6475,3.6328 0.8105,0 1.5869,-0.1367 2.3242,-0.3907 l 0,-0.9765 c -0.7031,0.2246 -1.3672,0.332 -1.9971,0.332 -0.913,0 -1.5869,-0.21 -2.0068,-0.6592 -0.4199,-0.4541 -0.6592,-1.0205 -0.708,-1.7138 l 4.9219,0 0.0732,-0.1172 0,-0.6592 c 0,-2.0703 -1.0644,-3.3008 -2.9687,-3.3008 z m 1.7382,3.1348 -3.7353,0 c 0.1367,-1.1572 0.752,-2.1631 2.1045,-2.1631 1.123,0 1.6308,0.9912 1.6308,2.1631 z m 6.2142,4.3799 c 0.0146,0 0.0439,0 0.0586,-0.0147 0.6299,0 1.2744,-0.1367 1.9629,-0.4053 l -0.2832,-0.8252 c -0.4639,0.1661 -0.8985,0.254 -1.3037,0.254 -0.1221,0 -0.2442,-0.0147 -0.3467,-0.0293 -1.5918,-0.1807 -2.3389,-1.0791 -2.3389,-2.8516 0,-1.6943 0.8399,-2.6367 2.5635,-2.6367 0.4346,0 0.9473,0.0879 1.499,0.2832 l 0.3027,-0.8692 c -0.6591,-0.2881 -1.2744,-0.4345 -1.8603,-0.4345 -1.2598,0 -2.1924,0.3564 -2.8076,1.0937 -0.586,0.7031 -0.8838,1.6358 -0.8838,2.7881 0,2.2803 1.2012,3.6475 3.4375,3.6475 z m 6.8976,-7.5147 c -1.0498,0 -1.8604,0.376 -2.4463,1.1231 -0.5518,0.7519 -0.8399,1.6504 -0.8399,2.7295 0,2.3388 1.2745,3.6328 3.6475,3.6328 0.8105,0 1.5869,-0.1367 2.3242,-0.3907 l 0,-0.9765 c -0.7031,0.2246 -1.3672,0.332 -1.997,0.332 -0.9131,0 -1.587,-0.21 -2.0069,-0.6592 -0.4199,-0.4541 -0.6592,-1.0205 -0.708,-1.7138 l 4.9219,0 0.0732,-0.1172 0,-0.6592 c 0,-2.0703 -1.0644,-3.3008 -2.9687,-3.3008 z m 1.7383,3.1348 -3.7354,0 c 0.1367,-1.1572 0.752,-2.1631 2.1045,-2.1631 1.123,0 1.6309,0.9912 1.6309,2.1631 z m 5.55,4.3506 c 0.5127,0 1.0352,-0.0928 1.5918,-0.2735 l 0,-0.9131 c -0.3906,0.1026 -0.7959,0.1661 -1.2304,0.1661 -0.9278,0 -1.1719,-0.4834 -1.1719,-1.4551 l 0,-3.8867 2.4023,0 0,-1.0205 -2.4023,0 0,-1.8604 -1.2109,0.0635 0,1.7969 -1.2159,0 0,1.0205 1.2159,0 0,3.9746 c 0,1.5332 0.5078,2.3877 2.0214,2.3877 z m 5.8051,0 c 0.5126,0 1.0351,-0.0928 1.5917,-0.2735 l 0,-0.9131 c -0.3906,0.1026 -0.7959,0.1661 -1.2304,0.1661 -0.9278,0 -1.1719,-0.4834 -1.1719,-1.4551 l 0,-3.8867 2.4023,0 0,-1.0205 -2.4023,0 0,-1.8604 -1.2109,0.0635 0,1.7969 -1.2159,0 0,1.0205 1.2159,0 0,3.9746 c 0,1.5332 0.5078,2.3877 2.0215,2.3877 z m 6.3616,-7.4854 c -1.0498,0 -1.8603,0.376 -2.4463,1.1231 -0.5517,0.7519 -0.8398,1.6504 -0.8398,2.7295 0,2.3388 1.2744,3.6328 3.6474,3.6328 0.8106,0 1.5869,-0.1367 2.3243,-0.3907 l 0,-0.9765 c -0.7032,0.2246 -1.3672,0.332 -1.9971,0.332 -0.9131,0 -1.5869,-0.21 -2.0069,-0.6592 -0.4199,-0.4541 -0.6591,-1.0205 -0.708,-1.7138 l 4.9219,0 0.0733,-0.1172 0,-0.6592 c 0,-2.0703 -1.0645,-3.3008 -2.9688,-3.3008 z m 1.7383,3.1348 -3.7354,0 c 0.1368,-1.1572 0.752,-2.1631 2.1045,-2.1631 1.1231,0 1.6309,0.9912 1.6309,2.1631 z m 11.3997,-4.7412 0.3467,-1.0352 c -0.9912,-0.3613 -1.7676,-0.542 -3.1348,-0.542 -1.5136,0 -2.8515,0.6787 -3.6425,1.5039 -0.8252,0.8545 -1.4551,2.2022 -1.4551,3.8233 0,1.5918 0.4785,2.8662 1.4209,3.872 0.8398,0.8692 2.1484,1.4844 3.8134,1.4844 1.167,0 2.2168,-0.2099 3.1348,-0.6299 l -0.3174,-0.9912 c -0.8105,0.3321 -1.6357,0.4932 -2.4463,0.4932 -0.8203,0 -1.5429,-0.1611 -2.1875,-0.5225 -1.1718,-0.6738 -1.997,-1.9531 -1.997,-3.7207 0,-1.2158 0.3613,-2.1924 1.0986,-2.9834 0.5811,-0.6445 1.6357,-1.2012 2.8027,-1.2012 1.1866,0 1.6211,0.1172 2.5635,0.4493 z m 5.087,2.5634 c 1.4698,0 2.2364,1.2598 2.2364,2.793 0,1.5576 -0.7666,2.7735 -2.2364,2.7735 -1.4697,0 -2.2363,-1.2452 -2.2363,-2.7735 0,-1.5185 0.7666,-2.793 2.2363,-2.793 z m -0.0293,6.543 c 2.2022,0 3.5108,-1.499 3.5108,-3.7646 0,-2.251 -1.2451,-3.7354 -3.4668,-3.7354 -2.2217,0 -3.4961,1.499 -3.4961,3.75 0,2.2656 1.2305,3.75 3.4521,3.75 z m 8.5204,-6.4941 c 0.5713,0 0.9571,0.1318 1.2012,0.4004 0.2393,0.2734 0.3564,0.7226 0.3564,1.3379 l 0,4.6045 1.2159,0 0,-4.9073 c 0,-0.7763 -0.1954,-1.3769 -0.6006,-1.8115 -0.4053,-0.4346 -0.9717,-0.6592 -1.7383,-0.6592 -0.7666,0 -1.6504,0.2393 -2.5635,0.7178 l -0.2441,-0.542 -0.8545,0 0,7.2022 1.2305,0 0,-5.8204 c 0.7373,-0.3466 1.4257,-0.5224 1.997,-0.5224 z m 7.8,0 c 0.5713,0 0.957,0.1318 1.2012,0.4004 0.2392,0.2734 0.3564,0.7226 0.3564,1.3379 l 0,4.6045 1.2158,0 0,-4.9073 c 0,-0.7763 -0.1953,-1.3769 -0.6005,-1.8115 -0.4053,-0.4346 -0.9717,-0.6592 -1.7383,-0.6592 -0.7666,0 -1.6504,0.2393 -2.5635,0.7178 l -0.2441,-0.542 -0.8545,0 0,7.2022 1.2304,0 0,-5.8204 c 0.7373,-0.3466 1.4258,-0.5224 1.9971,-0.5224 z m 7.844,-1.0059 c -1.0498,0 -1.8603,0.376 -2.4463,1.1231 -0.5517,0.7519 -0.8398,1.6504 -0.8398,2.7295 0,2.3388 1.2744,3.6328 3.6474,3.6328 0.8106,0 1.587,-0.1367 2.3243,-0.3907 l 0,-0.9765 c -0.7032,0.2246 -1.3672,0.332 -1.9971,0.332 -0.9131,0 -1.5869,-0.21 -2.0068,-0.6592 -0.42,-0.4541 -0.6592,-1.0205 -0.708,-1.7138 l 4.9218,0 0.0733,-0.1172 0,-0.6592 c 0,-2.0703 -1.0645,-3.3008 -2.9688,-3.3008 z m 1.7383,3.1348 -3.7353,0 c 0.1367,-1.1572 0.7519,-2.1631 2.1044,-2.1631 1.1231,0 1.6309,0.9912 1.6309,2.1631 z m 6.2141,4.3799 c 0.0147,0 0.044,0 0.0586,-0.0147 0.6299,0 1.2744,-0.1367 1.9629,-0.4053 l -0.2832,-0.8252 c -0.4639,0.1661 -0.8984,0.254 -1.3037,0.254 -0.1221,0 -0.2442,-0.0147 -0.3467,-0.0293 -1.5918,-0.1807 -2.3389,-1.0791 -2.3389,-2.8516 0,-1.6943 0.8399,-2.6367 2.5635,-2.6367 0.4346,0 0.9473,0.0879 1.499,0.2832 l 0.3028,-0.8692 c -0.6592,-0.2881 -1.2744,-0.4345 -1.8604,-0.4345 -1.2598,0 -2.1924,0.3564 -2.8076,1.0937 -0.5859,0.7031 -0.8838,1.6358 -0.8838,2.7881 0,2.2803 1.2012,3.6475 3.4375,3.6475 z m 6.341,-0.0293 c 0.5127,0 1.0352,-0.0928 1.5918,-0.2735 l 0,-0.9131 c -0.3906,0.1026 -0.7959,0.1661 -1.2304,0.1661 -0.9278,0 -1.1719,-0.4834 -1.1719,-1.4551 l 0,-3.8867 2.4023,0 0,-1.0205 -2.4023,0 0,-1.8604 -1.211,0.0635 0,1.7969 -1.2158,0 0,1.0205 1.2158,0 0,3.9746 c 0,1.5332 0.5079,2.3877 2.0215,2.3877 z m 7.9534,-11.4746 -2.6709,2.3681 0.586,0.7324 2.7588,-2.3095 -0.6739,-0.791 z m -1.5918,3.9892 c -1.0498,0 -1.8603,0.376 -2.4462,1.1231 -0.5518,0.7519 -0.8399,1.6504 -0.8399,2.7295 0,2.3388 1.2744,3.6328 3.6475,3.6328 0.8105,0 1.5869,-0.1367 2.3242,-0.3907 l 0,-0.9765 c -0.7031,0.2246 -1.3672,0.332 -1.9971,0.332 -0.9131,0 -1.5869,-0.21 -2.0068,-0.6592 -0.4199,-0.4541 -0.6592,-1.0205 -0.708,-1.7138 l 4.9219,0 0.0732,-0.1172 0,-0.6592 c 0,-2.0703 -1.0645,-3.3008 -2.9688,-3.3008 z m 1.7383,3.1348 -3.7353,0 c 0.1367,-1.1572 0.7519,-2.1631 2.1045,-2.1631 1.123,0 1.6308,0.9912 1.6308,2.1631 z m 6.1068,-3.1348 c -1.0498,0 -1.8604,0.376 -2.4463,1.1231 -0.5518,0.7519 -0.8399,1.6504 -0.8399,2.7295 0,2.3388 1.2745,3.6328 3.6475,3.6328 0.8106,0 1.5869,-0.1367 2.3242,-0.3907 l 0,-0.9765 c -0.7031,0.2246 -1.3672,0.332 -1.997,0.332 -0.9131,0 -1.587,-0.21 -2.0069,-0.6592 -0.4199,-0.4541 -0.6592,-1.0205 -0.708,-1.7138 l 4.9219,0 0.0732,-0.1172 0,-0.6592 c 0,-2.0703 -1.0644,-3.3008 -2.9687,-3.3008 z m 1.7383,3.1348 -3.7354,0 c 0.1367,-1.1572 0.752,-2.1631 2.1045,-2.1631 1.1231,0 1.6309,0.9912 1.6309,2.1631 z"
           id="path3197"
           style="fill:#000000;fill-opacity:1;fill-rule:nonzero;stroke:none" /></g></g><g
       id="g3199"><g
         clip-path="url(#clipPath3203)"
         id="g3201"><path
           d="m 50,265 0,6 17,0 0,2 -17,0 0,14 17,17 0,1 -2,0 -16,-16 -16,16 -2,0 0,-1 17,-17 0,-14 -17,0 0,-2 17,0 0,-6 2,0 z"
           id="path3207"
           style="fill:#ffffff;fill-opacity:1;fill-rule:nonzero;stroke:none" /></g></g><g
       id="g3209"><g
         clip-path="url(#clipPath3213)"
         id="g3211"><path
           d="m 58,254.5 c 0,5.2467 -4.2533,9.5 -9.5,9.5 -5.2468,0 -9.5,-4.2533 -9.5,-9.5 0,-5.2468 4.2532,-9.5 9.5,-9.5 5.2467,0 9.5,4.2532 9.5,9.5 z"
           id="path3217"
           style="fill:#ffffff;fill-opacity:1;fill-rule:nonzero;stroke:none" /></g></g><g
       id="g3219"><g
         clip-path="url(#clipPath3223)"
         id="g3221"><path
           d="m 50,265 0,6 17,0 0,2 -17,0 0,14 17,17 0,1 -2,0 -16,-16 -16,16 -2,0 0,-1 17,-17 0,-14 -17,0 0,-2 17,0 0,-6 2,0 z"
           id="path3227"
           style="fill:none;stroke:#000000;stroke-width:1.10000002;stroke-linecap:butt;stroke-linejoin:miter;stroke-miterlimit:10;stroke-opacity:1;stroke-dasharray:none" /></g></g><g
       id="g3229"><g
         clip-path="url(#clipPath3233)"
         id="g3231"><path
           d="m 59,255 c 0,5.5228 -4.4772,10 -10,10 -5.5229,0 -10,-4.4772 -10,-10 0,-5.5229 4.4771,-10 10,-10 5.5228,0 10,4.4771 10,10 z"
           id="path3237"
           style="fill:none;stroke:#000000;stroke-width:1.10000002;stroke-linecap:butt;stroke-linejoin:miter;stroke-miterlimit:10;stroke-opacity:1;stroke-dasharray:none" /></g></g><g
       id="g3239"><g
         clip-path="url(#clipPath3243)"
         id="g3241"><path
           d="m 59.4628,332.0449 0.3467,-1.0352 c -0.9912,-0.3613 -1.7676,-0.542 -3.1347,-0.542 -1.5137,0 -2.8516,0.6787 -3.6426,1.5039 -0.8252,0.8545 -1.4551,2.2022 -1.4551,3.8233 0,1.5918 0.4785,2.8662 1.4209,3.872 0.8398,0.8692 2.1484,1.4844 3.8135,1.4844 1.167,0 2.2168,-0.21 3.1347,-0.6299 l -0.3173,-0.9912 c -0.8106,0.332 -1.6358,0.4932 -2.4463,0.4932 -0.8203,0 -1.543,-0.1612 -2.1875,-0.5225 -1.1719,-0.6738 -1.9971,-1.9531 -1.9971,-3.7207 0,-1.2158 0.3613,-2.1924 1.0986,-2.9834 0.5811,-0.6445 1.6358,-1.2012 2.8028,-1.2012 1.1865,0 1.6211,0.1172 2.5634,0.4493 z m 3.964,7.9785 c -0.9179,0 -0.9472,-0.4785 -0.9472,-1.0352 l 0,-8.0517 -1.2012,0 0,8.4863 c 0.0147,1.0205 0.6152,1.7285 1.5625,1.7285 0.6885,0 1.1816,-0.2734 1.4551,-0.3613 l 0,-0.9278 c -0.3467,0.1026 -0.586,0.1612 -0.8692,0.1612 z m 2.4716,-6.2696 0,7.2462 1.2305,0 0,-7.2462 -1.2305,0 z m 0,-2.788 0,1.2451 1.2305,0 0,-1.2451 -1.2305,0 z m 6.3015,2.6855 c -1.0498,0 -1.8604,0.376 -2.4463,1.123 -0.5517,0.752 -0.8398,1.6504 -0.8398,2.7295 0,2.3389 1.2744,3.6329 3.6474,3.6329 0.8106,0 1.5869,-0.1367 2.3242,-0.3907 l 0,-0.9765 c -0.7031,0.2246 -1.3671,0.332 -1.997,0.332 -0.9131,0 -1.5869,-0.21 -2.0069,-0.6592 -0.4199,-0.4541 -0.6591,-1.0205 -0.708,-1.7138 l 4.9219,0 0.0733,-0.1172 0,-0.6592 c 0,-2.0703 -1.0645,-3.3008 -2.9688,-3.3008 z m 1.7383,3.1348 -3.7354,0 c 0.1367,-1.1573 0.752,-2.1631 2.1045,-2.1631 1.1231,0 1.6309,0.9912 1.6309,2.1631 z m 6.0628,-2.1289 c 0.5713,0 0.957,0.1318 1.2011,0.4004 0.2393,0.2734 0.3565,0.7226 0.3565,1.3378 l 0,4.6046 1.2158,0 0,-4.9073 c 0,-0.7764 -0.1953,-1.3769 -0.6006,-1.8115 -0.4053,-0.4346 -0.9717,-0.6592 -1.7383,-0.6592 -0.7666,0 -1.6503,0.2393 -2.5634,0.7178 l -0.2442,-0.542 -0.8545,0 0,7.2022 1.2305,0 0,-5.8204 c 0.7373,-0.3467 1.4258,-0.5224 1.9971,-0.5224 z m 7.2873,6.4795 c 0.5127,0 1.0351,-0.0928 1.5918,-0.2735 l 0,-0.9131 c -0.3906,0.1026 -0.7959,0.166 -1.2305,0.166 -0.9277,0 -1.1719,-0.4834 -1.1719,-1.455 l 0,-3.8868 2.4024,0 0,-1.0205 -2.4024,0 0,-1.8603 -1.2109,0.0635 0,1.7968 -1.2158,0 0,1.0205 1.2158,0 0,3.9747 c 0,1.5332 0.5078,2.3877 2.0215,2.3877 z"
           id="path3247"
           style="fill:#000000;fill-opacity:1;fill-rule:nonzero;stroke:none" /></g></g><g
       id="g3249"><g
         clip-path="url(#clipPath3253)"
         id="g3251"><path
           d="M 341,174 90,261"
           id="path3257"
           style="fill:none;stroke:#000000;stroke-width:1.10000002;stroke-linecap:butt;stroke-linejoin:miter;stroke-miterlimit:10;stroke-opacity:1;stroke-dasharray:none" /></g></g><g
       id="g3259"><g
         clip-path="url(#clipPath3263)"
         id="g3261"><path
           d="m 229,101 99,26"
           id="path3267"
           style="fill:none;stroke:#000000;stroke-width:1.10000002;stroke-linecap:butt;stroke-linejoin:miter;stroke-miterlimit:10;stroke-opacity:1;stroke-dasharray:none" /></g></g><g
       id="g3269"><g
         clip-path="url(#clipPath3273)"
         id="g3271"><path
           d="m 328,127 -15,2 3,-11 12,9 z"
           id="path3277"
           style="fill:#ffffff;fill-opacity:1;fill-rule:nonzero;stroke:none" /></g></g><g
       id="g3279"><g
         clip-path="url(#clipPath3283)"
         id="g3281"><path
           d="m 328,127 -15,2 3,-11 12,9 z"
           id="path3287"
           style="fill:none;stroke:#000000;stroke-width:1.10000002;stroke-linecap:butt;stroke-linejoin:miter;stroke-miterlimit:10;stroke-opacity:1;stroke-dasharray:none" /></g></g><g
       id="g3289"><g
         clip-path="url(#clipPath3293)"
         id="g3291"><path
           d="m 487,69 -47,51"
           id="path3297"
           style="fill:none;stroke:#000000;stroke-width:1.10000002;stroke-linecap:butt;stroke-linejoin:miter;stroke-miterlimit:10;stroke-opacity:1;stroke-dasharray:none" /></g></g><g
       id="g3299"><g
         clip-path="url(#clipPath3303)"
         id="g3301"><path
           d="m 440,120 5,-14 9,8 -14,6 z"
           id="path3307"
           style="fill:#ffffff;fill-opacity:1;fill-rule:nonzero;stroke:none" /></g></g><g
       id="g3309"><g
         clip-path="url(#clipPath3313)"
         id="g3311"><path
           d="m 440,120 5,-14 9,8 -14,6 z"
           id="path3317"
           style="fill:none;stroke:#000000;stroke-width:1.10000002;stroke-linecap:butt;stroke-linejoin:miter;stroke-miterlimit:10;stroke-opacity:1;stroke-dasharray:none" /></g></g><g
       id="g3319"><g
         clip-path="url(#clipPath3323)"
         id="g3321"><path
           d="m 616,140 -80,0"
           id="path3327"
           style="fill:none;stroke:#000000;stroke-width:1.10000002;stroke-linecap:butt;stroke-linejoin:miter;stroke-miterlimit:10;stroke-opacity:1;stroke-dasharray:none" /></g></g><g
       id="g3329"><g
         clip-path="url(#clipPath3333)"
         id="g3331"><path
           d="m 536,140 14,-6 0,12 -14,-6 z"
           id="path3337"
           style="fill:#ffffff;fill-opacity:1;fill-rule:nonzero;stroke:none" /></g></g><g
       id="g3339"><g
         clip-path="url(#clipPath3343)"
         id="g3341"><path
           d="m 536,140 14,-6 0,12 -14,-6 z"
           id="path3347"
           style="fill:none;stroke:#000000;stroke-width:1.10000002;stroke-linecap:butt;stroke-linejoin:miter;stroke-miterlimit:10;stroke-opacity:1;stroke-dasharray:none" /></g></g><g
       id="g3349"><g
         clip-path="url(#clipPath3353)"
         id="g3351"><path
           d="M 463,225 433,179"
           id="path3357"
           style="fill:none;stroke:#000000;stroke-width:1.10000002;stroke-linecap:butt;stroke-linejoin:miter;stroke-miterlimit:10;stroke-opacity:1;stroke-dasharray:none" /></g></g><g
       id="g3359"><g
         clip-path="url(#clipPath3363)"
         id="g3361"><path
           d="m 433,179 13,8 -10,7 -3,-15 z"
           id="path3367"
           style="fill:#ffffff;fill-opacity:1;fill-rule:nonzero;stroke:none" /></g></g><g
       id="g3369"><g
         clip-path="url(#clipPath3373)"
         id="g3371"><path
           d="m 433,179 13,8 -10,7 -3,-15 z"
           id="path3377"
           style="fill:none;stroke:#000000;stroke-width:1.10000002;stroke-linecap:butt;stroke-linejoin:miter;stroke-miterlimit:10;stroke-opacity:1;stroke-dasharray:none" /></g></g></g></svg>