<?xml version="1.0" encoding="UTF-8" standalone="no"?>
<!-- Created with Inkscape (http://www.inkscape.org/) -->

<svg
   xmlns:dc="http://purl.org/dc/elements/1.1/"
   xmlns:cc="http://creativecommons.org/ns#"
   xmlns:rdf="http://www.w3.org/1999/02/22-rdf-syntax-ns#"
   xmlns:svg="http://www.w3.org/2000/svg"
   xmlns="http://www.w3.org/2000/svg"
   xmlns:sodipodi="http://sodipodi.sourceforge.net/DTD/sodipodi-0.dtd"
   xmlns:inkscape="http://www.inkscape.org/namespaces/inkscape"
   id="svg3004"
   version="1.1"
   inkscape:version="0.48.3.1 r9886"
   width="547.84924"
   height="292.41306"
   xml:space="preserve"
   sodipodi:docname="document.pdf"><metadata
     id="metadata3010"><rdf:RDF><cc:Work
         rdf:about=""><dc:format>image/svg+xml</dc:format><dc:type
           rdf:resource="http://purl.org/dc/dcmitype/StillImage" /><dc:title></dc:title></cc:Work></rdf:RDF></metadata><defs
     id="defs3008" /><sodipodi:namedview
     pagecolor="#ffffff"
     bordercolor="#666666"
     borderopacity="1"
     objecttolerance="10"
     gridtolerance="10"
     guidetolerance="10"
     inkscape:pageopacity="0"
     inkscape:pageshadow="2"
     inkscape:window-width="1295"
     inkscape:window-height="830"
     id="namedview3006"
     showgrid="false"
     inkscape:zoom="0.91223336"
     inkscape:cx="28.546735"
     inkscape:cy="111.84159"
     inkscape:window-x="0"
     inkscape:window-y="27"
     inkscape:window-maximized="0"
     inkscape:current-layer="g3012"
     fit-margin-top="0"
     fit-margin-left="0"
     fit-margin-right="0"
     fit-margin-bottom="0"
     showborder="false"
     inkscape:showpageshadow="false" /><g
     id="g3012"
     inkscape:groupmode="layer"
     inkscape:label="document"
     transform="matrix(1.25,0,0,-1.25,-70.833661,894.29373)"><g
       id="g3022"
       transform="translate(349.2073,758.711)"><path
         d="M 0,0 0,23.9053"
         style="fill:none;stroke:#000000;stroke-width:0.3985;stroke-linecap:butt;stroke-linejoin:miter;stroke-miterlimit:10;stroke-opacity:1;stroke-dasharray:none"
         id="path3024"
         inkscape:connector-curvature="0" /></g><text
       transform="matrix(1,0,0,-1,56.6929,624.9427)"
       id="text3082"><tspan
         style="font-size:10.95890427px;font-variant:normal;font-weight:bold;writing-mode:lr-tb;fill:#000000;fill-opacity:1;fill-rule:nonzero;stroke:none;font-family:TeXGyrePagella;-inkscape-font-specification:TeXGyrePagella-Bold"
         x="0 6.6958904 11.561644 17.041096 23.736986 29.216438 33.698631 37.347946 46.18082 52.876713 58.969864 68.712326 72.361641 79.057533 84.536987"
         y="0"
         sodipodi:role="line"
         id="tspan3084">Scénarionominal</tspan></text>
<text
       transform="matrix(1,0,0,-1,147.6189,624.9427)"
       id="text3086"><tspan
         style="font-size:10.95890427px;font-variant:normal;font-weight:normal;writing-mode:lr-tb;fill:#000000;fill-opacity:1;fill-rule:nonzero;stroke:none;font-family:TeXGyrePagella;-inkscape-font-specification:TeXGyrePagella-Regular"
         x="0"
         y="0"
         id="tspan3088">:</tspan></text>
<text
       transform="matrix(1,0,0,-1,56.6929,611.1652)"
       id="text3090"><tspan
         style="font-size:10.95890427px;font-variant:normal;font-weight:normal;writing-mode:lr-tb;fill:#000000;fill-opacity:1;fill-rule:nonzero;stroke:none;font-family:TeXGyrePagella;-inkscape-font-specification:TeXGyrePagella-Regular"
         x="0 5.4794521 16.438356 19.627398 27.616438 32.263012 38.356163 43.002739 46.57534 51.824657 61.501369 69.49041 74.969864 84.799995 89.665756 96.043831 104.03288 107.22192 115.44109 122.0274 127.50685 133.38081 141.36986 148.06575 156.05479 165.73151 168.92055 173.56712 181.55617 189.77534 192.96439 196.01096 201.26027 206.12602 212.5041 217.75342 220.94246 224.1315 232.12054 238.81644 246.80548 249.99452 258.21368 262.54245 267.79178 272.65753 277.90686 281.47946 285.05206"
         y="0"
         sodipodi:role="line"
         id="tspan3092">1.lesystèmeaﬃchelapagedemiseàl’échelledelarecette</tspan></text>
<text
       transform="matrix(1,0,0,-1,56.6929,597.3876)"
       id="text3094"><tspan
         style="font-size:10.95890427px;font-variant:normal;font-weight:normal;writing-mode:lr-tb;fill:#000000;fill-opacity:1;fill-rule:nonzero;stroke:none;font-family:TeXGyrePagella;-inkscape-font-specification:TeXGyrePagella-Regular"
         x="0 5.4794521 16.438356 19.627398 27.616438 32.482193 35.671234 38.860275 44.109589 50.487671 56.799999 61.446575 66.695892 69.884933 75.134247 80 83.572601 86.761642 92.745201 99.123283 105.50137 113.49041 118.96986 125.34795 131.33151 141.00822 147.0685 151.39726 159.38631 166.08218 174.07123 180.65753 185.90685 190.23561 194.88219 200.86575 207.24384 213.62192 218.87123 223.51781"
         y="0"
         sodipodi:role="line"
         id="tspan3096">2.leclientsélectionne«nombredepersonnes»</tspan></text>
<text
       transform="matrix(1,0,0,-1,56.6929,583.6101)"
       id="text3098"><tspan
         style="font-size:10.95890427px;font-variant:normal;font-weight:normal;writing-mode:lr-tb;fill:#000000;fill-opacity:1;fill-rule:nonzero;stroke:none;font-family:TeXGyrePagella;-inkscape-font-specification:TeXGyrePagella-Regular"
         x="0 5.4794521 16.438356 19.627398 27.616438 32.482193 35.671234 38.860275 44.109589 50.487671 56.799999 61.446575 66.926025 70.115067 74.761642 77.950684 84.263016 87.452057 95.441093 101.81918 107.80274 117.47945 123.53973 127.86849 135.85753 142.55342 150.54247 157.12877 162.37808 166.70685 171.35342 177.33699 183.71507 190.09315 195.34247"
         y="0"
         sodipodi:role="line"
         id="tspan3100">3.leclientsaisitlenombredepersonnes</tspan></text>
<text
       transform="matrix(1,0,0,-1,56.6929,569.8326)"
       id="text3102"><tspan
         style="font-size:10.95890427px;font-variant:normal;font-weight:normal;writing-mode:lr-tb;fill:#000000;fill-opacity:1;fill-rule:nonzero;stroke:none;font-family:TeXGyrePagella;-inkscape-font-specification:TeXGyrePagella-Regular"
         x="0 5.4794521 16.438356 19.627398 27.616438 32.482193 35.671234 38.860275 44.109589 50.487671 56.799999 62.663013 68.142464 71.331505 74.520546 81.216438"
         y="0"
         sodipodi:role="line"
         id="tspan3104">4.leclientvalide</tspan></text>
<text
       transform="matrix(1,0,0,-1,56.6929,556.0551)"
       id="text3106"><tspan
         style="font-size:10.95890427px;font-variant:normal;font-weight:normal;writing-mode:lr-tb;fill:#000000;fill-opacity:1;fill-rule:nonzero;stroke:none;font-family:TeXGyrePagella;-inkscape-font-specification:TeXGyrePagella-Regular"
         x="0 5.4794521 16.438356 19.627398 27.616438 32.263012 38.356163 43.002739 46.57534 51.824657 61.501369 69.49041 75.353424 80.832878 84.021919 87.21096 93.906845 101.89589 105.08493 113.07397 117.93973 124.31781 130.30136 133.4904 141.88493 148.58083 157.92877 162.79453 165.98357 169.17261 174.42192 180.8"
         y="0"
         sodipodi:role="line"
         id="tspan3108">5.lesystèmevalidelechoixduclient</tspan></text>
<text
       transform="matrix(1,0,0,-1,56.6929,542.2775)"
       id="text3110"><tspan
         style="font-size:10.95890427px;font-variant:normal;font-weight:normal;writing-mode:lr-tb;fill:#000000;fill-opacity:1;fill-rule:nonzero;stroke:none;font-family:TeXGyrePagella;-inkscape-font-specification:TeXGyrePagella-Regular"
         x="0 5.4794521 16.438356 19.627398 27.616438 32.263012 38.356163 43.002739 46.57534 51.824657 61.501369 69.49041 74.969864 84.799995 89.665756 96.043831 104.03288 107.22192 115.44109 118.63013 121.81918 126.30137 129.87398 137.86301 144.5589 149.80821 157.19452 163.78082 168.10959 174.09315 180.78903 187.39726 190.5863 194.15891 201.5452 209.76439 215.24384 220.10959 226.48767 231.73698 235.30959 240.5589 247.6274 252.87671 259.18903 262.37808 267.62738 275.0137 281.1507 287.75891 293.23834 299.61642 303.18903 306.37808 309.95068 315.19998 322.5863 328.06577 332.71231 337.35889 343.34247 348.20822 351.39725 356.64658 361.89587"
         y="0"
         sodipodi:role="line"
         id="tspan3112">6.lesystèmeaﬃchelalistedesproduitsàacheteretlesquantitésassociées</tspan></text>
<text
       transform="matrix(1,0,0,-1,56.6929,528.5)"
       id="text3114"><tspan
         style="font-size:10.95890427px;font-variant:normal;font-weight:normal;writing-mode:lr-tb;fill:#000000;fill-opacity:1;fill-rule:nonzero;stroke:none;font-family:TeXGyrePagella;-inkscape-font-specification:TeXGyrePagella-Regular"
         x="0 5.4794521 16.438356 19.627398 27.616438 32.482193 35.671234 38.860275 44.109589 50.487671 56.799999 62.663013 68.142464 71.331505 74.520546 81.216438 89.205475 92.394516 100.6137 103.80274 106.99178 111.47397 115.04658"
         y="0"
         sodipodi:role="line"
         id="tspan3116">7.leclientvalidelaliste</tspan></text>
<text
       transform="matrix(1,0,0,-1,56.6929,514.7225)"
       id="text3118"><tspan
         style="font-size:10.95890427px;font-variant:normal;font-weight:normal;writing-mode:lr-tb;fill:#000000;fill-opacity:1;fill-rule:nonzero;stroke:none;font-family:TeXGyrePagella;-inkscape-font-specification:TeXGyrePagella-Regular"
         x="0 5.4794521 16.438356 19.627398 27.616438 32.263012 38.356163 43.002739 46.57534 51.824657 61.501369 69.49041 73.819176 79.068489 82.531509 88.515068 95.123283 99.61644 105.99452 113.98356 122.20274 125.39178 133.61096 140.19727 145.67671 151.55069 159.53972 166.23561 174.22466 179.09041 185.07397 191.45206 196.09863 202.70685 205.89589 209.46849 214.94794 218.52054 221.70958 227.69315 236.81096 243.50685 251.4959 254.68494 262.90411 267.23288 272.48218 277.34793 282.59726 286.16986 289.74246"
         y="0"
         sodipodi:role="line"
         id="tspan3120">8.lesystèmeretourneàlapagedeconsultationdelarecette</tspan></text>
<text
       transform="matrix(1,0,0,-1,56.6929,500.945)"
       id="text3122"><tspan
         style="font-size:10.95890427px;font-variant:normal;font-weight:normal;writing-mode:lr-tb;fill:#000000;fill-opacity:1;fill-rule:nonzero;stroke:none;font-family:TeXGyrePagella;-inkscape-font-specification:TeXGyrePagella-Regular"
         x="0 5.4794521"
         y="0"
         sodipodi:role="line"
         id="tspan3124">9.</tspan></text>
<text
       transform="matrix(1,0,0,-1,73.1314,500.945)"
       id="text3126"><tspan
         style="font-size:10.95890427px;font-style:italic;font-variant:normal;writing-mode:lr-tb;fill:#000000;fill-opacity:1;fill-rule:nonzero;stroke:none;font-family:TeXGyrePagella;-inkscape-font-specification:TeXGyrePagella-Italic"
         x="0 5.7863011 14.619178 20.098629 28.931507 33.391781 38.257534 45.260273 50.739727 53.786301 59.879452 63.528767 66.57534 69.621918 72.668495 76.931503 81.797256 85.446571 88.493149 93.358902"
         y="0"
         sodipodi:role="line"
         id="tspan3128">ﬁnducasd’utilisation</tspan></text>
<text
       transform="matrix(1,0,0,-1,56.6929,484.6059)"
       id="text3130"><tspan
         style="font-size:10.95890427px;font-variant:normal;font-weight:bold;writing-mode:lr-tb;fill:#000000;fill-opacity:1;fill-rule:nonzero;stroke:none;font-family:TeXGyrePagella;-inkscape-font-specification:TeXGyrePagella-Bold"
         x="0 6.3123288 12.405479 17.271233 20.920547 24.569862 29.435616 35.528767 42.224659 48.920547 52.569862 56.219177 59.868492 65.961639"
         y="0"
         sodipodi:role="line"
         id="tspan3132">Post-condition</tspan></text>
<text
       transform="matrix(1,0,0,-1,132.0901,484.6059)"
       id="text3134"><tspan
         style="font-size:10.95890427px;font-variant:normal;font-weight:normal;writing-mode:lr-tb;fill:#000000;fill-opacity:1;fill-rule:nonzero;stroke:none;font-family:TeXGyrePagella;-inkscape-font-specification:TeXGyrePagella-Regular"
         x="0 8.2191782 11.408219 16.657534 24.043835 29.523287 33.852055 37.424656 40.613697 45.47945 48.668491 53.917809 61.304108 67.287674 73.665756 79.978081 85.227394 88.799995 96.78904 100.95342 106.43288 108.99726 114.98082 121.58904 125.16164 130.41096 137.79726 143.27672 152.62465 159.21095 164.69041 171.0685 174.25754 179.50685 186.57535 193.27122 202.61917 207.48492 210.67397 213.86301 219.11232 225.4904"
         y="0"
         sodipodi:role="line"
         id="tspan3136">:lesarticlesontétérajoutésaupanierduclient</tspan></text>
<text
       style="font-size:12px"
       y="-707.47882"
       x="56.403915"
       id="text3026"
       transform="scale(1,-1)"><tspan
         style="font-size:10.95890427px;font-variant:normal;font-weight:bold;writing-mode:lr-tb;fill:#000000;fill-opacity:1;fill-rule:nonzero;stroke:none;font-family:TeXGyrePagella;-inkscape-font-specification:TeXGyrePagella-Bold"
         x="56.403915 65.313492 71.406662 83.88884 90.584732 100.02034 104.8861 110.36555"
         y="-707.47882"
         sodipodi:role="line"
         id="tspan3028">Nomducas</tspan></text>
<text
       style="font-size:12px"
       y="-707.47882"
       x="117.971"
       id="text3030"
       transform="scale(1,-1)"><tspan
         style="font-size:10.95890427px;font-variant:normal;font-weight:normal;writing-mode:lr-tb;fill:#000000;fill-opacity:1;fill-rule:nonzero;stroke:none;font-family:TeXGyrePagella;-inkscape-font-specification:TeXGyrePagella-Regular"
         x="117.971 126.1902 134.71619 141.30249 147.88879 151.07785 154.26688 160.40387 167.01208 172.26141 176.59018 183.69156 188.94086 193.80661 199.05591 202.62854 206.20111 211.45044 219.22031 225.20386 231.58194 237.96002 243.20935 248.0751 251.64771 256.89703"
         y="-707.47882"
         sodipodi:role="line"
         id="tspan3032">:AppliquerRecetteConnectée</tspan></text>
<text
       style="font-size:12px"
       y="-691.13977"
       x="56.403915"
       id="text3034"
       transform="scale(1,-1)"><tspan
         style="font-size:10.95890427px;font-variant:normal;font-weight:bold;writing-mode:lr-tb;fill:#000000;fill-opacity:1;fill-rule:nonzero;stroke:none;font-family:TeXGyrePagella;-inkscape-font-specification:TeXGyrePagella-Bold"
         x="56.403915 63.713486 70.409378"
         y="-691.13977"
         sodipodi:role="line"
         id="tspan3036">But</tspan></text>
<text
       style="font-size:12px"
       y="-691.13977"
       x="76.798416"
       id="text3038"
       transform="scale(1,-1)"><tspan
         style="font-size:10.95890427px;font-variant:normal;font-weight:normal;writing-mode:lr-tb;fill:#000000;fill-opacity:1;fill-rule:nonzero;stroke:none;font-family:TeXGyrePagella;-inkscape-font-specification:TeXGyrePagella-Regular"
         x="76.798416 85.017593 91.023056 95.187454 100.66689 107.04497 111.69155 115.23128 120.48061 124.80936 130.05865 137.12717 140.31619 145.56552 152.95181 158.43127 162.76001 166.33264 169.52167 174.38745 177.57648 182.82581 190.2121 195.69153 200.33813 204.98468 210.96826 215.83401 219.02304 224.27237 231.65866 239.87784 246.48605 252.86414 260.85318 265.18195 270.43127 275.297 280.54636 284.11893 287.69156 295.68057 300.54636 306.52988 312.90799 319.2861 324.53537 329.40115 332.97372 338.22305 346.21213 352.90799 358.38742 364.76553 372.15182 375.34085 383.56003 386.74911 389.93808 394.42032 397.99289 405.98196 412.67783 415.72446 421.20389 425.53268 429.10526 432.29428 437.16 440.34909 445.59836 452.98471 457.85043 463.83401 470.44223 474.6066 480.08603 486.46414 490.03671"
         y="-691.13977"
         sodipodi:role="line"
         id="tspan3040">:Transférerlesarticlesassociésàunerecetteconnectéedanslalisted’articlescourante</tspan></text>
<text
       style="font-size:12px"
       y="-674.80066"
       x="56.403915"
       id="text3042"
       transform="scale(1,-1)"><tspan
         style="font-size:10.95890427px;font-variant:normal;font-weight:bold;writing-mode:lr-tb;fill:#000000;fill-opacity:1;fill-rule:nonzero;stroke:none;font-family:TeXGyrePagella;-inkscape-font-specification:TeXGyrePagella-Bold"
         x="56.403915 64.765549 69.631302 73.280624 78.760086 85.455978"
         y="-674.80066"
         sodipodi:role="line"
         id="tspan3044">Acteur</tspan></text>
<text
       style="font-size:12px"
       y="-674.80066"
       x="92.458694"
       id="text3046"
       transform="scale(1,-1)"><tspan
         style="font-size:10.95890427px;font-variant:normal;font-weight:normal;writing-mode:lr-tb;fill:#000000;fill-opacity:1;fill-rule:nonzero;stroke:none;font-family:TeXGyrePagella;-inkscape-font-specification:TeXGyrePagella-Regular"
         x="92.458694 100.67786 103.86693 111.85596 116.72173 119.91074 123.09981 128.34909 134.72717"
         y="-674.80066"
         sodipodi:role="line"
         id="tspan3048">:leclient</tspan></text>
<text
       style="font-size:12px"
       y="-658.46155"
       x="56.403915"
       id="text3050"
       transform="scale(1,-1)"><tspan
         style="font-size:10.95890427px;font-variant:normal;font-weight:bold;writing-mode:lr-tb;fill:#000000;fill-opacity:1;fill-rule:nonzero;stroke:none;font-family:TeXGyrePagella;-inkscape-font-specification:TeXGyrePagella-Bold"
         x="56.403915 63.099808 67.362808 72.84227 76.491592 81.357346 87.450485 94.146378 100.84227 104.49155 108.14088 111.79021 117.88335"
         y="-658.46155"
         sodipodi:role="line"
         id="tspan3052">Pré-condition</tspan></text>
<text
       style="font-size:12px"
       y="-658.46155"
       x="127.31889"
       id="text3054"
       transform="scale(1,-1)"><tspan
         style="font-size:10.95890427px;font-variant:normal;font-weight:normal;writing-mode:lr-tb;fill:#000000;fill-opacity:1;fill-rule:nonzero;stroke:none;font-family:TeXGyrePagella;-inkscape-font-specification:TeXGyrePagella-Regular"
         x="127.31889 135.53806 138.72711 146.71616 151.58191 154.77094 157.95999 163.20929 169.58737 175.89972 180.76547 186.74902 193.12711 197.77368 204.3819 207.57095 211.14355 219.1326 225.74081 232.1189 240.10794 244.43671 249.686 254.55176 259.80109 263.37369 266.94629 274.93533 279.80112 285.78464 292.16275 298.5408 303.79013 308.65585 312.22849 317.47781"
         y="-658.46155"
         sodipodi:role="line"
         id="tspan3056">:leclientconsulteunerecetteconnectée</tspan></text>
<text
       style="font-size:12px"
       y="-642.12244"
       x="56.403915"
       id="text3058"
       transform="scale(1,-1)"><tspan
         style="font-size:10.95890427px;font-variant:normal;font-weight:bold;writing-mode:lr-tb;fill:#000000;fill-opacity:1;fill-rule:nonzero;stroke:none;font-family:TeXGyrePagella;-inkscape-font-specification:TeXGyrePagella-Bold"
         x="56.403915 65.532669 71.012131 75.877884 79.527206 85.006638 91.70253 96.568283 103.26418 108.74364 118.4861 123.96556 130.66144"
         y="-642.12244"
         sodipodi:role="line"
         id="tspan3060">Déclenchement</tspan></text>
<text
       style="font-size:12px"
       y="-642.12244"
       x="137.05048"
       id="text3062"
       transform="scale(1,-1)"><tspan
         style="font-size:10.95890427px;font-variant:normal;font-weight:normal;writing-mode:lr-tb;fill:#000000;fill-opacity:1;fill-rule:nonzero;stroke:none;font-family:TeXGyrePagella;-inkscape-font-specification:TeXGyrePagella-Regular"
         x="137.05048 145.26965 148.45871 156.44775 161.31351 164.50253 167.69159 172.94092 179.31897 185.63132 190.27789 195.52719 198.71625 203.96558 208.8313 212.40393 215.59296 221.57651 227.95459 234.33267 242.32172 245.51077 248.55734 254.54089 261.1272 264.6998 267.88882 273.87241 282.9902 288.4697 293.94913 300.53543 307.12173 310.31076 313.49979 319.63681 326.24503 331.49435 338.56284 341.75186 349.97104 354.29977 359.5491 364.41489 369.66415 373.23679 376.80942 382.05869"
         y="-642.12244"
         sodipodi:role="line"
         id="tspan3064">:leclientsélectionnel’option«appliquerlarecette»</tspan></text>
</g></svg>